<svg width="107" height="51" viewBox="0 0 107 51" fill="none" xmlns="http://www.w3.org/2000/svg">
<g clip-path="url(#clip0_1_3427)">
<path d="M2.41847 43.6018C2.74417 43.5928 3.06746 43.6601 3.36252 43.7983C3.65758 43.9365 3.91623 44.1418 4.11781 44.3978V43.6894H5.14059V48.5884H4.11781V47.8601C3.91356 48.1171 3.65215 48.3229 3.35437 48.4611C3.05659 48.5992 2.73067 48.666 2.40255 48.656C1.12904 48.656 0.106256 47.6173 0.106256 46.1051C0.106256 44.5928 1.12904 43.6018 2.41847 43.6018ZM2.63337 44.4813C2.42634 44.4828 2.22184 44.527 2.03268 44.6112C1.84352 44.6954 1.67377 44.8177 1.53406 44.9705C1.39434 45.1233 1.28767 45.3032 1.22072 45.4992C1.15377 45.6951 1.12798 45.9027 1.14496 46.109C1.12758 46.3176 1.15281 46.5276 1.2191 46.7262C1.28539 46.9247 1.39136 47.1078 1.53057 47.2641C1.66979 47.4204 1.83934 47.5468 2.02892 47.6356C2.2185 47.7244 2.42415 47.7737 2.63337 47.7805C3.03964 47.7358 3.41513 47.5428 3.68788 47.2384C3.96064 46.934 4.11146 46.5396 4.11146 46.1309C4.11146 45.7222 3.96064 45.3279 3.68788 45.0235C3.41513 44.7191 3.03964 44.526 2.63337 44.4813V44.4813Z" fill="#FCC206"/>
<path d="M9.16803 43.6017C9.48659 43.6035 9.80119 43.6725 10.0913 43.8041C10.3814 43.9358 10.6404 44.1272 10.8515 44.3658V41.978H11.8742V48.5604H10.8515V47.8202C10.6557 48.0842 10.3988 48.2968 10.1028 48.4396C9.80683 48.5824 9.48058 48.6511 9.15211 48.64C7.86269 48.64 6.8399 47.6013 6.8399 46.089C6.8399 44.5767 7.87065 43.6017 9.16803 43.6017ZM9.37498 44.4812C9.16828 44.4832 8.96422 44.5279 8.77553 44.6123C8.58684 44.6967 8.41757 44.8191 8.27829 44.9718C8.139 45.1245 8.03268 45.3043 7.96597 45.5C7.89926 45.6956 7.87358 45.9029 7.89054 46.1089C7.87318 46.3172 7.89828 46.5268 7.96432 46.7251C8.03037 46.9235 8.13599 47.1063 8.27478 47.2626C8.41357 47.4188 8.58265 47.5453 8.77176 47.6343C8.96088 47.7233 9.16609 47.773 9.37498 47.7804C9.78125 47.7357 10.1567 47.5427 10.4295 47.2383C10.7022 46.9339 10.8531 46.5395 10.8531 46.1308C10.8531 45.7221 10.7022 45.3277 10.4295 45.0233C10.1567 44.7189 9.78125 44.5259 9.37498 44.4812V44.4812Z" fill="#FCC206"/>
<path d="M15.9017 43.6018C16.2274 43.5928 16.5507 43.6601 16.8457 43.7983C17.1408 43.9365 17.3995 44.1418 17.601 44.3978V43.6894H18.6238V48.5884H17.617V47.8601C17.4131 48.1176 17.1518 48.3237 16.8539 48.4619C16.556 48.6001 16.2299 48.6666 15.9017 48.656C14.6282 48.656 13.6054 47.6173 13.6054 46.1051C13.6054 44.5928 14.6123 43.6018 15.9017 43.6018ZM16.1166 44.4813C15.9099 44.4834 15.7058 44.528 15.5172 44.6124C15.3285 44.6968 15.1592 44.8192 15.0199 44.9719C14.8806 45.1246 14.7743 45.3044 14.7076 45.5001C14.6409 45.6957 14.6152 45.903 14.6322 46.109C14.6148 46.3173 14.6399 46.527 14.7059 46.7253C14.772 46.9236 14.8776 47.1064 15.0164 47.2627C15.1552 47.419 15.3243 47.5454 15.5134 47.6345C15.7025 47.7235 15.9077 47.7732 16.1166 47.7805C16.5229 47.7358 16.8984 47.5428 17.1711 47.2384C17.4439 46.934 17.5947 46.5396 17.5947 46.1309C17.5947 45.7222 17.4439 45.3279 17.1711 45.0235C16.8984 44.7191 16.5229 44.526 16.1166 44.4813V44.4813Z" fill="#FCC206"/>
<path d="M20.6734 41.9979H21.6843V48.5804H20.6734V41.9979Z" fill="#FCC206"/>
<path d="M25.7038 43.6018C26.0295 43.5928 26.3528 43.6601 26.6478 43.7983C26.9429 43.9365 27.2015 44.1418 27.4031 44.3978V43.6894H28.4259V48.5884H27.4031V47.8601C27.1993 48.1176 26.938 48.3237 26.6401 48.4619C26.3422 48.6001 26.0161 48.6666 25.6879 48.656C24.4183 48.656 23.3955 47.6173 23.3955 46.1051C23.3955 44.5928 24.4183 43.6018 25.7038 43.6018ZM25.9187 44.4813C25.712 44.4834 25.5079 44.528 25.3192 44.6124C25.1306 44.6968 24.9613 44.8192 24.822 44.9719C24.6827 45.1246 24.5764 45.3044 24.5097 45.5001C24.443 45.6957 24.4173 45.903 24.4343 46.109C24.4169 46.3173 24.442 46.527 24.508 46.7253C24.5741 46.9236 24.6797 47.1064 24.8185 47.2627C24.9573 47.419 25.1264 47.5454 25.3155 47.6345C25.5046 47.7235 25.7098 47.7732 25.9187 47.7805C26.325 47.7358 26.7004 47.5428 26.9732 47.2384C27.246 46.934 27.3968 46.5396 27.3968 46.1309C27.3968 45.7222 27.246 45.3279 26.9732 45.0235C26.7004 44.7191 26.325 44.526 25.9187 44.4813V44.4813Z" fill="#FCC206"/>
<path d="M30.8853 48.64C30.7566 48.6424 30.63 48.6064 30.5217 48.5366C30.4135 48.4668 30.3285 48.3663 30.2776 48.248C30.2266 48.1297 30.2121 47.9989 30.2358 47.8723C30.2594 47.7457 30.3202 47.629 30.4105 47.5371C30.5007 47.4451 30.6162 47.3822 30.7424 47.3561C30.8685 47.3301 30.9996 47.3423 31.1188 47.391C31.238 47.4397 31.3401 47.5228 31.4119 47.6298C31.4837 47.7367 31.5221 47.8626 31.5221 47.9914C31.5231 48.0758 31.5075 48.1597 31.476 48.2381C31.4445 48.3165 31.3978 48.3879 31.3387 48.4482C31.2795 48.5085 31.209 48.5564 31.1312 48.5894C31.0534 48.6223 30.9698 48.6395 30.8853 48.64V48.64Z" fill="#FCC206"/>
<path d="M34.3317 43.6813V49.5394C34.3317 50.5343 33.7985 50.9084 32.9269 50.9084H32.4135V50.0568H32.7598C33.1856 50.0568 33.3289 49.9055 33.3289 49.5394V43.6813H34.3317ZM33.1856 42.3799C33.1872 42.2529 33.2262 42.1292 33.2978 42.0243C33.3694 41.9194 33.4704 41.8381 33.5881 41.7904C33.7058 41.7427 33.835 41.7308 33.9594 41.7562C34.0839 41.7817 34.198 41.8433 34.2875 41.9334C34.377 42.0235 34.438 42.138 34.4627 42.2626C34.4874 42.3871 34.4747 42.5162 34.4263 42.6336C34.3779 42.7511 34.2959 42.8516 34.1905 42.9225C34.0852 42.9935 33.9613 43.0318 33.8343 43.0326C33.7495 43.0321 33.6656 43.0147 33.5875 42.9815C33.5095 42.9484 33.4388 42.9 33.3795 42.8393C33.3203 42.7786 33.2737 42.7067 33.2425 42.6279C33.2112 42.549 33.1959 42.4647 33.1975 42.3799H33.1856Z" fill="#FCC206"/>
<path d="M40.8267 48.5803H39.8118V47.9913C39.6361 48.2038 39.4144 48.3737 39.1635 48.4882C38.9125 48.6026 38.6389 48.6586 38.3632 48.6519C37.2171 48.6519 36.3455 47.9316 36.3455 46.5626V43.6813H37.3484V46.4114C37.3484 47.3068 37.8379 47.7724 38.5781 47.7724C39.3183 47.7724 39.8118 47.3068 39.8118 46.4114V43.6813H40.8267V48.5803Z" fill="#FCC206"/>
<path d="M44.6512 48.66C43.4573 48.66 42.6614 47.9675 42.6056 47.0681H43.6563C43.6963 47.2912 43.8198 47.4907 44.0017 47.626C44.1835 47.7613 44.4101 47.8222 44.6353 47.7964C45.2203 47.7964 45.5347 47.5496 45.5347 47.2114C45.5347 46.2523 42.6852 46.8134 42.6852 45.0066C42.6852 44.2107 43.4175 43.5938 44.5716 43.5938C45.7257 43.5938 46.4142 44.1868 46.466 45.1857H45.4511C45.442 45.0768 45.4106 44.9709 45.3589 44.8747C45.3071 44.7785 45.236 44.694 45.1502 44.6264C45.0643 44.5588 44.9654 44.5096 44.8597 44.4819C44.754 44.4542 44.6438 44.4486 44.5358 44.4654C43.9946 44.4654 43.708 44.6882 43.708 45.0185C43.708 46.0055 46.4938 45.4523 46.5296 47.2233C46.5296 48.0392 45.8093 48.66 44.6512 48.66Z" fill="#FCC206"/>
<path d="M48.4955 44.5051H47.9184V43.6813H48.4955V42.4635H49.5183V43.6813H50.7122V44.5051H49.5183V47.2193C49.5183 47.5854 49.6616 47.7366 50.0874 47.7366H50.7122V48.5803H49.9163C49.0447 48.5803 48.5035 48.2142 48.5035 47.2193L48.4955 44.5051Z" fill="#FCC206"/>
<path d="M52.2405 42.3799C52.242 42.2529 52.2811 42.1292 52.3527 42.0243C52.4243 41.9194 52.5253 41.8381 52.643 41.7904C52.7607 41.7427 52.8899 41.7308 53.0143 41.7562C53.1387 41.7817 53.2529 41.8433 53.3424 41.9334C53.4319 42.0235 53.4929 42.138 53.5175 42.2626C53.5422 42.3871 53.5296 42.5162 53.4812 42.6336C53.4327 42.7511 53.3507 42.8516 53.2454 42.9225C53.1401 42.9935 53.0162 43.0318 52.8892 43.0326C52.8033 43.0337 52.7182 43.0175 52.6387 42.985C52.5593 42.9526 52.4871 42.9045 52.4266 42.8436C52.3661 42.7827 52.3185 42.7103 52.2865 42.6306C52.2545 42.551 52.2389 42.4657 52.2405 42.3799V42.3799ZM52.3718 43.6813H53.3866V48.5803H52.3718V43.6813Z" fill="#FCC206"/>
<path d="M57.4777 43.6017C58.6716 43.6017 59.4676 44.1947 59.7382 45.2255H58.6438C58.5619 44.9861 58.4031 44.7806 58.1922 44.641C57.9812 44.5013 57.73 44.4354 57.4777 44.4534C56.6818 44.4534 56.1206 45.0583 56.1206 46.1249C56.1206 47.1914 56.6619 47.8043 57.4777 47.8043C57.7308 47.8266 57.9839 47.7624 58.1957 47.6221C58.4075 47.4819 58.5655 47.2739 58.6438 47.0323H59.7382C59.607 47.5227 59.3102 47.9526 58.8983 48.2492C58.4863 48.5459 57.9844 48.691 57.4777 48.66C56.0729 48.66 55.0899 47.665 55.0899 46.1249C55.0899 44.5847 56.0729 43.6017 57.4777 43.6017Z" fill="#FCC206"/>
<path d="M63.5747 48.66C63.2433 48.669 62.9138 48.6088 62.6069 48.4834C62.3001 48.358 62.0228 48.1701 61.7925 47.9316C61.5623 47.6931 61.3842 47.4094 61.2697 47.0983C61.1551 46.7873 61.1066 46.4558 61.1271 46.125C61.1271 44.5888 62.1221 43.6018 63.5747 43.6018C63.8922 43.5871 64.2092 43.6388 64.5056 43.7535C64.802 43.8683 65.0711 44.0437 65.2959 44.2684C65.5206 44.4932 65.696 44.7623 65.8108 45.0587C65.9256 45.3551 65.9772 45.6722 65.9625 45.9896C65.9646 46.1562 65.9526 46.3226 65.9267 46.4871H62.1897C62.1959 46.6641 62.2369 46.8382 62.3106 46.9993C62.3842 47.1605 62.4889 47.3055 62.6186 47.426C62.7484 47.5465 62.9008 47.6403 63.0669 47.7018C63.233 47.7633 63.4096 47.7914 63.5866 47.7845C63.8254 47.7992 64.0631 47.7418 64.2689 47.6197C64.4747 47.4977 64.6391 47.3166 64.7407 47.1H65.8351C65.6855 47.5744 65.382 47.9853 64.9726 48.2679C64.5632 48.5504 64.0713 48.6884 63.5747 48.66V48.66ZM62.1897 45.6912H64.8999C64.8955 45.5186 64.8562 45.3488 64.7841 45.1919C64.7121 45.035 64.6089 44.8945 64.4809 44.7787C64.3528 44.6629 64.2026 44.5744 64.0393 44.5185C63.876 44.4626 63.703 44.4405 63.5309 44.4535C63.1919 44.4506 62.8645 44.577 62.6154 44.8069C62.3662 45.0368 62.214 45.353 62.1897 45.6912V45.6912Z" fill="#FCC206"/>
<path d="M68.067 48.64C67.9382 48.6424 67.8116 48.6064 67.7034 48.5366C67.5951 48.4668 67.5101 48.3663 67.4592 48.248C67.4083 48.1297 67.3937 47.9989 67.4174 47.8723C67.441 47.7457 67.5019 47.629 67.5921 47.5371C67.6823 47.4451 67.7979 47.3822 67.924 47.3561C68.0502 47.3301 68.1812 47.3423 68.3004 47.391C68.4197 47.4397 68.5217 47.5228 68.5935 47.6298C68.6653 47.7367 68.7037 47.8626 68.7037 47.9914C68.7048 48.0758 68.6891 48.1597 68.6576 48.2381C68.6261 48.3165 68.5795 48.3879 68.5203 48.4482C68.4611 48.5085 68.3906 48.5564 68.3128 48.5894C68.235 48.6223 68.1514 48.6395 68.067 48.64V48.64Z" fill="#FCC206"/>
<path d="M72.4844 43.6017C72.8103 43.5917 73.1339 43.6586 73.4291 43.7968C73.7243 43.9351 73.9828 44.1409 74.1838 44.3976V43.6892H75.2065V48.6679C75.2065 50.0011 74.3429 51.0079 72.8187 51.0079C71.5134 51.0079 70.5423 50.3552 70.4309 49.2728H71.4338C71.5434 49.5466 71.7387 49.7775 71.9905 49.9311C72.2423 50.0846 72.5371 50.1524 72.8307 50.1244C73.6266 50.1244 74.1997 49.6469 74.1997 48.6679V47.848C73.9997 48.1075 73.742 48.3166 73.447 48.459C73.152 48.6013 72.8278 48.6728 72.5003 48.6679C71.2109 48.6679 70.1881 47.6291 70.1881 46.1169C70.1881 44.6046 71.195 43.6017 72.4844 43.6017ZM72.6993 44.4812C72.4926 44.4832 72.2886 44.5278 72.0999 44.6123C71.9112 44.6967 71.7419 44.819 71.6026 44.9718C71.4633 45.1245 71.357 45.3043 71.2903 45.4999C71.2236 45.6956 71.1979 45.9029 71.2149 46.1089C71.1975 46.3172 71.2226 46.5268 71.2887 46.7251C71.3547 46.9234 71.4603 47.1063 71.5991 47.2626C71.7379 47.4188 71.907 47.5453 72.0961 47.6343C72.2852 47.7233 72.4904 47.773 72.6993 47.7804C73.1056 47.7357 73.4811 47.5426 73.7538 47.2383C74.0266 46.9339 74.1774 46.5395 74.1774 46.1308C74.1774 45.7221 74.0266 45.3277 73.7538 45.0233C73.4811 44.7189 73.1056 44.5259 72.6993 44.4812V44.4812Z" fill="#FCC206"/>
<path d="M79.3813 48.6599C79.0493 48.67 78.7188 48.6107 78.4111 48.4858C78.1033 48.3609 77.825 48.1731 77.5939 47.9345C77.3628 47.6959 77.184 47.4118 77.069 47.1002C76.9539 46.7886 76.9052 46.4564 76.9258 46.1249C76.9258 45.462 77.1891 44.8263 77.6578 44.3576C78.1265 43.8889 78.7622 43.6256 79.4251 43.6256C80.0879 43.6256 80.7236 43.8889 81.1923 44.3576C81.661 44.8263 81.9243 45.462 81.9243 46.1249C81.9355 46.4615 81.8772 46.7968 81.7533 47.1099C81.6293 47.423 81.4423 47.7073 81.2037 47.9451C80.9652 48.1828 80.6804 48.369 80.3668 48.492C80.0533 48.615 79.7178 48.6721 79.3813 48.6599V48.6599ZM79.3813 47.7804C79.5919 47.7803 79.8001 47.7361 79.9926 47.6508C80.1852 47.5656 80.3578 47.441 80.4994 47.2851C80.641 47.1293 80.7485 46.9456 80.815 46.7458C80.8815 46.546 80.9056 46.3345 80.8856 46.1249C80.8856 45.0145 80.1653 44.4812 79.4091 44.4812C78.653 44.4812 77.9605 45.0145 77.9605 46.1249C77.9605 47.2352 78.6132 47.7804 79.3813 47.7804Z" fill="#FCC206"/>
<path d="M84.149 43.6813L85.5339 47.661L86.9229 43.6813H87.9974L86.1309 48.5803H84.937L83.0785 43.6813H84.149Z" fill="#FCC206"/>
<path d="M89.8838 48.6401C89.7551 48.6417 89.6289 48.605 89.5212 48.5347C89.4135 48.4644 89.3291 48.3636 89.2788 48.2452C89.2285 48.1268 89.2145 47.9962 89.2386 47.8698C89.2627 47.7435 89.3239 47.6271 89.4143 47.5356C89.5047 47.4441 89.6202 47.3815 89.7463 47.3558C89.8723 47.3302 90.0032 47.3425 90.1222 47.3914C90.2412 47.4402 90.343 47.5234 90.4146 47.6302C90.4862 47.7371 90.5245 47.8628 90.5245 47.9914C90.5255 48.0762 90.5098 48.1604 90.478 48.2391C90.4463 48.3177 90.3993 48.3893 90.3397 48.4496C90.2801 48.51 90.2091 48.5579 90.1308 48.5906C90.0525 48.6233 89.9686 48.6401 89.8838 48.6401V48.6401Z" fill="#FCC206"/>
<path d="M99.2759 45.8424C99.2759 44.943 98.7864 44.4813 98.0501 44.4813C97.3139 44.4813 96.8125 44.943 96.8125 45.8424V48.5804H95.8096V45.8424C95.8096 44.943 95.3201 44.4813 94.5798 44.4813C93.8396 44.4813 93.3461 44.943 93.3461 45.8424V48.5804H92.3313V43.6814H93.3461V44.2386C93.56 44.0115 93.8233 43.8368 94.1156 43.728C94.4079 43.6192 94.7213 43.5792 95.0316 43.6111C95.3418 43.6431 95.6405 43.7461 95.9045 43.9122C96.1685 44.0783 96.3907 44.303 96.5538 44.5689C96.7249 44.2689 96.9739 44.0208 97.2744 43.8505C97.5749 43.6803 97.9158 43.5944 98.2611 43.6018C99.4112 43.6018 100.283 44.3222 100.283 45.6912V48.5804H99.2759V45.8424Z" fill="#FCC206"/>
<path d="M104.259 43.6018C104.584 43.5928 104.907 43.6601 105.203 43.7983C105.498 43.9365 105.756 44.1418 105.958 44.3978V43.6894H106.981V48.5884H105.958V47.8601C105.754 48.1171 105.492 48.3229 105.194 48.4611C104.897 48.5992 104.571 48.666 104.243 48.656C102.969 48.656 101.946 47.6173 101.946 46.1051C101.946 44.5928 102.969 43.6018 104.259 43.6018ZM104.473 44.4813C104.267 44.4834 104.063 44.528 103.874 44.6124C103.685 44.6968 103.516 44.8192 103.377 44.9719C103.237 45.1246 103.131 45.3044 103.064 45.5001C102.998 45.6957 102.972 45.903 102.989 46.109C102.972 46.3173 102.997 46.527 103.063 46.7253C103.129 46.9236 103.234 47.1064 103.373 47.2627C103.512 47.419 103.681 47.5454 103.87 47.6345C104.059 47.7235 104.265 47.7732 104.473 47.7805C104.88 47.7358 105.255 47.5428 105.528 47.2384C105.801 46.934 105.951 46.5396 105.951 46.1309C105.951 45.7222 105.801 45.3279 105.528 45.0235C105.255 44.7191 104.88 44.526 104.473 44.4813V44.4813Z" fill="#FCC206"/>
<path d="M54.1787 0V32.3033V38.4042H48.1494V0H54.1787Z" fill="white"/>
<path d="M40.0506 0V32.3033V38.4042H34.0214V0H40.0506Z" fill="white"/>
<path d="M101.088 32.7291H62.2415V38.4041H101.088V32.7291Z" fill="#30558C"/>
<path d="M40.0506 32.7291H12.1648V38.4041H40.0506V32.7291Z" fill="white"/>
<path d="M106.981 0H89.4699V5.67507H106.981V0Z" fill="#FCC206"/>
<path d="M79.7523 0H62.2415V5.67507H79.7523V0Z" fill="#FCC206"/>
<path d="M5.76939 7.22714C7.75852 7.22714 9.37103 5.61463 9.37103 3.6255C9.37103 1.63637 7.75852 0.0238647 5.76939 0.0238647C3.78026 0.0238647 2.16775 1.63637 2.16775 3.6255C2.16775 5.61463 3.78026 7.22714 5.76939 7.22714Z" fill="#FCC206"/>
<path d="M17.6409 7.22714C19.63 7.22714 21.2425 5.61463 21.2425 3.6255C21.2425 1.63637 19.63 0.0238647 17.6409 0.0238647C15.6517 0.0238647 14.0392 1.63637 14.0392 3.6255C14.0392 5.61463 15.6517 7.22714 17.6409 7.22714Z" fill="#FCC206"/>
<path opacity="0.75" d="M34.0811 32.7291H10.8595V38.4041H34.0811V32.7291Z" fill="url(#paint0_linear_1_3427)"/>
<path d="M11.7072 38.3763C9.41238 38.3771 7.16893 37.6973 5.26057 36.4228C3.35221 35.1484 1.86468 33.3367 0.986142 31.2167C0.107607 29.0968 -0.122464 26.7639 0.325031 24.5132C0.772525 22.2625 1.87748 20.195 3.50013 18.5724C5.12278 16.9497 7.19022 15.8448 9.44094 15.3973C11.6917 14.9498 14.0245 15.1799 16.1445 16.0584C18.2644 16.9369 20.0762 18.4245 21.3506 20.3328C22.625 22.2412 23.3048 24.4846 23.304 26.7794C23.3009 29.8541 22.0781 32.802 19.9039 34.9761C17.7297 37.1503 14.7819 38.3731 11.7072 38.3763ZM11.7072 20.8656C10.534 20.8624 9.38624 21.2076 8.4094 21.8573C7.43256 22.5071 6.67056 23.4321 6.21996 24.5154C5.76937 25.5986 5.65044 26.7912 5.87826 27.942C6.10607 29.0929 6.67038 30.1502 7.49967 30.9801C8.32897 31.8099 9.38593 32.3749 10.5366 32.6035C11.6874 32.8321 12.88 32.714 13.9635 32.2641C15.047 31.8143 15.9726 31.0529 16.623 30.0765C17.2735 29.1001 17.6194 27.9526 17.617 26.7794C17.6149 25.2112 16.9921 23.7076 15.8847 22.5972C14.7773 21.4868 13.2754 20.8599 11.7072 20.8536V20.8656Z" fill="white"/>
<path d="M105.257 32.7291H65.2016V38.4041H105.257V32.7291Z" fill="white"/>
<path opacity="0.75" d="M106.981 32.7291H76.0781V38.4041H106.981V32.7291Z" fill="url(#paint1_linear_1_3427)"/>
<path d="M101.286 20.8776H106.981V15.2025H101.286C98.3309 15.1957 95.4851 16.317 93.3292 18.3374C91.1733 20.3577 89.8698 23.1248 89.6849 26.0737C89.5 29.0226 90.4477 31.9308 92.3344 34.2046C94.2211 36.4784 96.9046 37.9464 99.837 38.3087V38.4042H106.981V32.7291H101.286C99.714 32.7291 98.2067 32.1048 97.0954 30.9935C95.9841 29.8822 95.3598 28.375 95.3598 26.8033C95.3598 25.2317 95.9841 23.7245 97.0954 22.6132C98.2067 21.5019 99.714 20.8776 101.286 20.8776V20.8776Z" fill="white"/>
<path d="M67.9325 20.8776H62.2415V15.2025H67.9325C70.8872 15.1957 73.733 16.317 75.8889 18.3374C78.0449 20.3577 79.3483 23.1248 79.5332 26.0737C79.7181 29.0226 78.7704 31.9308 76.8837 34.2046C74.997 36.4784 72.3135 37.9464 69.3812 38.3087V38.4042H62.2415V32.7291H67.9325C69.5041 32.7291 71.0114 32.1048 72.1227 30.9935C73.234 29.8822 73.8583 28.375 73.8583 26.8033C73.8583 25.2317 73.234 23.7245 72.1227 22.6132C71.0114 21.5019 69.5041 20.8776 67.9325 20.8776V20.8776Z" fill="white"/>
</g>
<defs>
<linearGradient id="paint0_linear_1_3427" x1="42.0883" y1="35.5666" x2="18.8666" y2="35.5666" gradientUnits="userSpaceOnUse">
<stop offset="0.42" stop-color="white"/>
<stop offset="0.53" stop-color="#FCFDFD" stop-opacity="0.99"/>
<stop offset="0.6" stop-color="#F3F5F7" stop-opacity="0.97"/>
<stop offset="0.67" stop-color="#E5E8ED" stop-opacity="0.93"/>
<stop offset="0.74" stop-color="#D0D6DE" stop-opacity="0.88"/>
<stop offset="0.8" stop-color="#B4BECC" stop-opacity="0.8"/>
<stop offset="0.86" stop-color="#93A1B5" stop-opacity="0.72"/>
<stop offset="0.91" stop-color="#6B7F9A" stop-opacity="0.61"/>
<stop offset="0.96" stop-color="#3F587B" stop-opacity="0.5"/>
<stop offset="1" stop-color="#1A3862" stop-opacity="0.4"/>
</linearGradient>
<linearGradient id="paint1_linear_1_3427" x1="65.4245" y1="35.5666" x2="96.3269" y2="35.5666" gradientUnits="userSpaceOnUse">
<stop stop-color="white"/>
<stop offset="0.38" stop-color="#FDFDFE"/>
<stop offset="0.51" stop-color="#F7F8F9" stop-opacity="0.98"/>
<stop offset="0.61" stop-color="#ECEEF2" stop-opacity="0.96"/>
<stop offset="0.69" stop-color="#DCE0E7" stop-opacity="0.92"/>
<stop offset="0.75" stop-color="#C7CED8" stop-opacity="0.88"/>
<stop offset="0.81" stop-color="#ADB8C7" stop-opacity="0.82"/>
<stop offset="0.87" stop-color="#8E9DB2" stop-opacity="0.75"/>
<stop offset="0.92" stop-color="#6B7E99" stop-opacity="0.68"/>
<stop offset="0.96" stop-color="#445C7F" stop-opacity="0.59"/>
<stop offset="1" stop-color="#1A3862" stop-opacity="0.5"/>
</linearGradient>
<clipPath id="clip0_1_3427">
<rect width="106.883" height="51" fill="white" transform="translate(0.106262)"/>
</clipPath>
</defs>
</svg>
