<svg width="107" height="25" viewBox="0 0 107 25" fill="none" xmlns="http://www.w3.org/2000/svg">
<path d="M0.684326 1.87846C0.684326 1.52432 0.780224 1.29485 0.973351 1.19272C1.16515 1.08927 1.3969 1.03887 1.66594 1.03887C1.95897 1.03887 2.16408 1.08131 2.28129 1.16752C2.3985 1.25374 2.5237 1.44209 2.65555 1.73389C2.80473 1.37444 2.95923 1.1211 3.12039 0.975195C3.28155 0.829294 3.54794 0.756348 3.92087 0.756348C4.16727 0.756348 4.37372 0.875717 4.54021 1.11579C4.7067 1.35587 4.79061 1.56146 4.79061 1.73256C4.79061 1.97794 4.6694 2.18087 4.42966 2.34136C4.18858 2.50186 3.92487 2.58144 3.63717 2.58144C3.37878 2.58144 3.19231 2.52175 3.07777 2.40105C2.9579 2.24056 2.862 2.11191 2.79407 2.01508C2.46642 2.42626 2.22402 2.67163 2.06685 2.74856C1.90835 2.82549 1.72988 2.86396 1.52876 2.86396C1.31698 2.86396 1.12252 2.77509 0.948045 2.59868C0.772232 2.42227 0.684326 2.1822 0.684326 1.87846ZM7.71948 11.447L8.02982 11.4642C7.97254 11.4642 7.87931 11.4642 7.75012 11.4642C7.62092 11.4642 7.45576 11.4642 7.25464 11.4642C6.65795 11.4642 6.18778 11.6512 5.84681 12.0253C5.50584 12.3993 4.94111 12.5863 4.15529 12.5863C4.20057 12.4431 4.34442 12.2521 4.58549 12.012C4.82657 11.7719 4.97574 11.5889 5.03302 11.4629C4.94111 11.4509 4.83856 11.4456 4.72801 11.4456C4.61613 11.4456 4.53089 11.4456 4.47361 11.4456C4.03675 11.4456 3.76903 11.4483 3.66914 11.4536C3.56925 11.4589 3.484 11.4735 3.41474 11.496C2.95523 11.4271 2.49972 11.2586 2.04554 10.9907C1.59136 10.7214 1.36493 10.0702 1.36493 9.03561C1.36493 8.07531 1.7352 7.38691 2.47575 6.9691C3.33616 6.73433 4.20057 6.50089 5.06765 6.26612C5.11959 6.15736 5.11826 5.99023 5.06365 5.76475C5.00904 5.53926 4.95044 5.35755 4.88651 5.22094C4.82391 5.08432 4.6441 4.9225 4.34841 4.73681C4.05273 4.55111 3.90489 4.3694 3.90489 4.19299C3.90489 3.74733 4.0221 3.46614 4.25784 3.34809C4.49359 3.23137 4.7946 3.17168 5.16221 3.17168C5.56978 3.17168 5.90941 3.34146 6.18246 3.68234C6.4555 4.02189 6.59135 4.47286 6.59135 5.03259C6.59135 5.39867 6.58736 5.76608 6.57803 6.13481C6.57004 6.50355 6.56471 6.88157 6.56471 7.27019C6.56471 7.65352 6.56471 8.03949 6.56471 8.42812C6.59268 9.02234 6.64196 9.46535 6.71122 9.75716H7.71815V11.447H7.71948ZM3.12972 9.30354C3.12972 9.46933 3.22162 9.58074 3.40542 9.63778C3.58922 9.69481 3.81565 9.724 4.08603 9.724C4.35641 9.71206 4.53089 9.70675 4.6108 9.70675C5.11559 9.70675 5.36866 9.52106 5.36866 9.14967L5.33403 8.84991L5.24745 8.02623C5.24745 7.81534 5.11826 7.70923 4.85987 7.70923C4.64676 7.70923 4.39769 7.77024 4.11133 7.89359C3.82364 8.01695 3.61586 8.13366 3.48667 8.24508C3.35747 8.3565 3.26557 8.50505 3.21096 8.69074C3.15635 8.87643 3.12972 9.0807 3.12972 9.30354Z" fill="white"/>
<path d="M7.23694 9.75841H9.09629C9.09629 9.22122 9.19352 8.77423 9.38931 8.41611C9.58377 8.05932 10.0286 7.88025 10.7239 7.88025C11.194 7.88025 11.6655 8.15349 12.1357 8.69863C12.6059 9.2451 12.8416 10.0038 12.8416 10.9747C12.8416 11.6034 12.6991 12.0385 12.4154 12.2785C12.1317 12.5186 11.7681 12.638 11.3259 12.638C10.9357 12.638 10.6 12.5146 10.319 12.2692C10.0726 11.9894 9.8315 11.7148 9.59575 11.4456H7.23694V9.75841ZM10.5601 10.6577C10.7146 10.9495 10.893 11.0954 11.0942 11.0954C11.1514 11.0954 11.242 11.0728 11.3659 11.0264C11.4897 10.9813 11.551 10.846 11.551 10.6232C11.551 10.4919 11.5217 10.3327 11.4644 10.147C11.4072 9.96134 11.3086 9.80748 11.1674 9.68413C11.0262 9.56078 10.8677 9.52231 10.6893 9.56874C10.592 9.60322 10.5201 9.66423 10.4735 9.7531C10.4269 9.84196 10.4042 9.93747 10.4042 10.0409C10.4042 10.1722 10.4162 10.2783 10.4389 10.3579C10.4615 10.4388 10.5028 10.5383 10.5601 10.6577Z" fill="white"/>
<path d="M18.7226 11.4468C18.6427 11.4242 18.5521 11.4097 18.4509 11.4044C18.351 11.399 18.1312 11.3964 17.7916 11.3964C17.5332 11.3964 17.348 11.4256 17.2362 11.4826C17.1243 11.5396 16.9152 11.7731 16.6075 12.1816C16.2998 12.5901 15.8709 12.8886 15.3195 13.0769L15.233 12.8116C15.3475 12.5888 15.5606 12.2745 15.8696 11.8686C16.0987 11.4004 16.2146 10.6908 16.2146 9.7424L15.2676 4.46076C15.0665 4.12386 14.8574 3.76043 14.6389 3.3718C14.4205 2.98317 14.3113 2.6025 14.3113 2.23112C14.3113 1.6422 14.4764 1.19919 14.8068 0.902082C15.1371 0.604973 15.4541 0.456421 15.7577 0.456421C15.9935 0.456421 16.1786 0.573137 16.3131 0.807907C16.4477 1.04268 16.5156 1.32785 16.5156 1.66475C16.5156 1.88758 16.4703 2.26958 16.3784 2.80942C16.2865 3.34925 16.2465 3.68217 16.2585 3.80818C16.4077 4.83745 16.5769 5.79775 16.766 6.68908C16.9551 7.5804 17.1123 8.25951 17.2348 8.72507C17.3587 9.19062 17.4479 9.53549 17.5065 9.75832H18.7199V11.4468H18.7226Z" fill="white"/>
<path d="M22.5273 11.0435C22.2463 10.7742 22.0652 10.6403 21.9852 10.6403C21.9107 10.6403 21.7322 10.7742 21.4511 11.0435C21.1701 11.3127 20.9943 11.4467 20.9264 11.4467H18.2146V9.75823H19.9368C20.1725 9.73568 20.343 9.68925 20.4495 9.62161C20.5561 9.55263 20.692 9.4757 20.8584 9.38949C20.5028 9.355 20.1499 9.31522 19.7996 9.27012C19.2828 9.16666 19.0244 8.93852 19.0244 8.58438C19.0244 8.21299 19.1736 7.93313 19.4719 7.74478C19.7703 7.55644 20.1379 7.35085 20.5734 7.12801C20.7745 6.9914 21.0236 6.73805 21.3219 6.36932C21.6203 6.00059 21.8814 5.81622 22.1051 5.81622C22.4088 5.81622 22.7058 6.00325 22.9962 6.37729C23.2865 6.75133 23.5223 7.00201 23.7061 7.12801C24.0164 7.30575 24.3294 7.48216 24.6451 7.65989C24.9834 7.89466 25.1525 8.20238 25.1525 8.5857C25.1525 8.95178 24.9621 9.17196 24.5798 9.24624C24.1975 9.32052 23.8006 9.3696 23.3877 9.39214C23.497 9.46642 23.6075 9.53805 23.7194 9.60702C23.8313 9.67599 24.039 9.72771 24.3441 9.76087H26.0409V11.4494H23.0787C22.9922 11.4467 22.8084 11.3127 22.5273 11.0435ZM21.8774 7.50338C21.8281 7.72091 21.7335 7.84558 21.5937 7.88007C21.4525 7.91455 21.2647 7.97292 21.0303 8.05648C20.7945 8.13872 20.6773 8.21565 20.6773 8.28329C20.6773 8.38012 20.8172 8.45174 21.0995 8.49817C21.3806 8.54459 21.6989 8.58438 22.0558 8.61886C22.245 8.61886 22.5273 8.58438 22.9043 8.51541C23.2799 8.44644 23.4677 8.35757 23.4677 8.25013C23.4677 8.20504 23.3877 8.1427 23.2266 8.06577C23.0654 7.98884 22.8923 7.93047 22.7058 7.88935C22.5193 7.84956 22.3901 7.72091 22.3182 7.50338C22.2463 7.28586 22.1757 7.17709 22.1078 7.17709C22.0026 7.17709 21.9266 7.28586 21.8774 7.50338Z" fill="white"/>
<path d="M29.3995 8.23201C29.3995 9.12334 29.2783 10.008 29.0386 10.8861C28.7975 11.7642 28.3407 12.2019 27.6694 12.2019C27.5775 12.2019 27.4163 12.0759 27.1872 11.8252C26.9581 11.5732 26.765 11.4485 26.6105 11.4485H25.4917V9.76001H27.042C27.1912 9.76001 27.3364 9.80378 27.4762 9.89264C27.6174 9.98151 27.7306 10.0545 27.8159 10.1115C27.8505 9.64328 27.8825 9.12599 27.9105 8.55963C27.9384 7.99326 27.9531 7.46537 27.9531 6.97328C27.9531 6.38437 27.8998 5.8631 27.7932 5.40815C27.6867 4.9532 27.6081 4.60304 27.5562 4.35766C27.5042 4.11228 27.3044 3.70508 26.9581 3.13607C26.6118 2.56705 26.4374 2.06567 26.4374 1.63062C26.4374 1.20751 26.5932 0.848056 26.9062 0.550947C27.2192 0.253838 27.5388 0.105286 27.8665 0.105286C28.0783 0.105286 28.2874 0.253838 28.4912 0.550947C28.6949 0.848056 28.7962 1.17965 28.7962 1.54573C28.7962 1.67174 28.7815 1.84284 28.7536 2.06037C28.7242 2.27789 28.7163 2.4291 28.7282 2.51531C28.7282 3.09892 28.7935 3.75283 28.9214 4.47836C29.0506 5.20389 29.1331 5.69863 29.1718 5.96125C29.2104 6.22388 29.257 6.57272 29.3143 7.00777C29.3702 7.44017 29.3995 7.84869 29.3995 8.23201Z" fill="white"/>
<path d="M30.9656 3.24963C30.9203 2.95252 30.8271 2.72173 30.6859 2.55991C30.5447 2.39677 30.4035 2.22699 30.2597 2.04926C30.2024 1.53462 30.3649 1.06508 30.7458 0.639316C31.1281 0.213548 31.525 0 31.9379 0C32.2416 0 32.456 0.133961 32.5799 0.403216C32.7037 0.672471 32.7477 0.895308 32.7131 1.07172C32.6331 1.35158 32.5479 1.64869 32.4587 1.96304C32.3694 2.27739 32.3255 2.62358 32.3255 3.00027C32.3255 3.76029 32.4067 4.73252 32.5705 5.91565C32.7344 7.09878 32.8156 7.99939 32.8156 8.61616C32.8156 9.10824 32.5279 9.81256 31.9552 10.7291C31.3811 11.6469 30.618 12.2398 29.6643 12.5078C30.1811 11.8791 30.5407 11.3777 30.7445 11.0036C30.9483 10.6296 31.0921 10.2635 31.1747 9.90673C31.2573 9.54993 31.3105 9.24486 31.3345 8.99418C31.3572 8.74217 31.3692 8.49944 31.3692 8.266C31.3692 8.0551 31.3572 7.78585 31.3345 7.45956C31.3119 7.13327 31.2879 6.83615 31.2653 6.56823L30.9656 3.24963Z" fill="white"/>
<path d="M37.5436 1.87852C37.5436 1.52438 37.6395 1.29492 37.8326 1.19278C38.0244 1.08933 38.2562 1.03893 38.5252 1.03893C38.8182 1.03893 39.0233 1.08137 39.1405 1.16758C39.2578 1.2538 39.383 1.44215 39.5148 1.73395C39.664 1.3745 39.8185 1.12116 39.9796 0.975256C40.1408 0.829355 40.4072 0.756409 40.7801 0.756409C41.0265 0.756409 41.233 0.875778 41.3995 1.11585C41.566 1.35593 41.6499 1.56152 41.6499 1.73262C41.6499 1.978 41.5287 2.18093 41.2889 2.34143C41.0478 2.50192 40.7841 2.5815 40.4964 2.5815C40.238 2.5815 40.0516 2.52181 39.937 2.40111C39.8172 2.24062 39.7213 2.11197 39.6533 2.01514C39.3257 2.42632 39.0833 2.67169 38.9261 2.74862C38.7676 2.82555 38.5891 2.86402 38.388 2.86402C38.1762 2.86402 37.9818 2.77515 37.8073 2.59874C37.6315 2.42234 37.5436 2.18226 37.5436 1.87852ZM44.5774 11.447L44.8877 11.4643C44.8305 11.4643 44.7372 11.4643 44.608 11.4643C44.4788 11.4643 44.3137 11.4643 44.1126 11.4643C43.5159 11.4643 43.0457 11.6513 42.7047 12.0253C42.3638 12.3994 41.799 12.5864 41.0132 12.5864C41.0585 12.4431 41.2023 12.2521 41.4434 12.0121C41.6845 11.772 41.8337 11.5889 41.8909 11.4629C41.799 11.451 41.6965 11.4457 41.5859 11.4457C41.474 11.4457 41.3888 11.4457 41.3315 11.4457C40.8947 11.4457 40.627 11.4483 40.5271 11.4537C40.4272 11.459 40.3419 11.4735 40.2727 11.4961C39.8132 11.4271 39.3576 11.2587 38.9035 10.9907C38.4493 10.7215 38.2229 10.0702 38.2229 9.03567C38.2229 8.07537 38.5931 7.38697 39.3337 6.96916C40.1941 6.7344 41.0585 6.50095 41.9256 6.26619C41.9775 6.15742 41.9762 5.99029 41.9216 5.76481C41.867 5.53933 41.8084 5.35761 41.7444 5.221C41.6818 5.08438 41.502 4.92256 41.2063 4.73687C40.9107 4.55117 40.7628 4.36946 40.7628 4.19305C40.7628 3.74739 40.88 3.4662 41.1158 3.34815C41.3515 3.23143 41.6525 3.17174 42.0201 3.17174C42.4277 3.17174 42.7673 3.34152 43.0404 3.6824C43.3134 4.02195 43.4493 4.47292 43.4493 5.03265C43.4493 5.39874 43.4453 5.76614 43.436 6.13488C43.428 6.50361 43.4226 6.88163 43.4226 7.27026C43.4226 7.65358 43.4226 8.03955 43.4226 8.42818C43.4506 9.0224 43.4999 9.46541 43.5691 9.75722H44.5761V11.447H44.5774ZM39.989 9.3036C39.989 9.46939 40.0809 9.5808 40.2647 9.63784C40.4485 9.69487 40.6749 9.72406 40.9453 9.72406C41.2157 9.71212 41.3901 9.70681 41.4701 9.70681C41.9748 9.70681 42.2279 9.52112 42.2279 9.14973L42.1933 8.84997L42.1067 8.02629C42.1067 7.8154 41.9775 7.70929 41.7191 7.70929C41.506 7.70929 41.2569 7.7703 40.9706 7.89366C40.6829 8.01701 40.4751 8.13373 40.3459 8.24514C40.2167 8.35656 40.1248 8.50511 40.0702 8.6908C40.0156 8.8765 39.989 9.08077 39.989 9.3036Z" fill="white"/>
<path d="M44.0952 9.75865H45.2753C45.7574 9.75865 46.0238 9.7613 46.0758 9.7666C46.1277 9.77191 46.4061 9.84088 46.9109 9.97219C46.9335 9.92709 46.9508 9.87669 46.9628 9.82231C46.9748 9.76793 46.9801 9.70028 46.9801 9.6207C46.9801 9.48939 46.9601 9.39521 46.9202 9.33818C46.8802 9.28114 46.8429 9.22014 46.8083 9.15382C46.7737 9.0875 46.6218 9.05566 46.3515 9.05566C46.1157 9.05566 45.9146 8.96282 45.7481 8.77712C45.5816 8.59143 45.499 8.37523 45.499 8.12985C45.499 7.87253 45.6109 7.62184 45.8347 7.37514C46.0584 7.12976 46.3595 7.00641 46.739 7.00641C47.0321 7.00641 47.3544 7.26373 47.7073 7.77836C48.0603 8.293 48.2361 8.93629 48.2361 9.70692C48.2361 10.2613 48.1362 10.7441 47.9351 11.1553C47.734 11.5665 47.4876 11.7721 47.1946 11.7721C47.0507 11.7151 46.8496 11.6461 46.5912 11.5665C46.3328 11.4869 45.828 11.4458 45.0755 11.4458H44.0939V9.75865H44.0952ZM46.9282 13.8996C46.9282 13.6993 47.0201 13.5096 47.2039 13.3293C47.3877 13.1489 47.6261 13.0587 47.9191 13.0587C48.2468 13.0587 48.4692 13.1369 48.5864 13.2948C48.7036 13.4513 48.7636 13.6529 48.7636 13.8996C48.7636 14.2418 48.6463 14.4925 48.4106 14.6503C48.1748 14.8068 47.9165 14.8864 47.6354 14.8864C47.4689 14.8294 47.3091 14.7392 47.1573 14.6158C47.0041 14.4925 46.9282 14.2537 46.9282 13.8996Z" fill="white"/>
<path d="M54.1009 11.4468C54.0209 11.4242 53.9304 11.4097 53.8292 11.4044C53.7293 11.399 53.5095 11.3964 53.1699 11.3964C52.9115 11.3964 52.7263 11.4256 52.6145 11.4826C52.5026 11.5396 52.2935 11.7731 51.9858 12.1816C51.6781 12.5901 51.2492 12.8886 50.6978 13.0769L50.6113 12.8116C50.7258 12.5888 50.9389 12.2745 51.2479 11.8686C51.477 11.4004 51.5929 10.6908 51.5929 9.7424L50.6459 4.46076C50.4448 4.12386 50.2357 3.76043 50.0172 3.3718C49.7988 2.98317 49.6896 2.6025 49.6896 2.23112C49.6896 1.6422 49.8547 1.19919 50.185 0.902082C50.5154 0.604973 50.8324 0.456421 51.136 0.456421C51.3718 0.456421 51.5569 0.573137 51.6914 0.807907C51.826 1.04268 51.8939 1.32785 51.8939 1.66475C51.8939 1.88758 51.8486 2.26958 51.7567 2.80942C51.6648 3.34925 51.6248 3.68217 51.6368 3.80818C51.786 4.83745 51.9552 5.79775 52.1443 6.68908C52.3334 7.5804 52.4906 8.25951 52.6131 8.72507C52.737 9.19062 52.8262 9.53549 52.8848 9.75832H54.0982V11.4468H54.1009Z" fill="white"/>
<path d="M59.0255 11.447H57.278C57.1741 11.4815 57.0889 11.4988 57.0196 11.4988C56.8878 11.4988 56.7306 11.3675 56.5508 11.1048C56.3697 10.8422 56.2072 10.6446 56.0646 10.5133C55.8982 10.8223 55.7663 11.0544 55.6691 11.2123C55.5718 11.3701 55.4227 11.4484 55.2215 11.4484H53.6033V9.75989H54.4464C55.3587 9.75989 55.8795 9.50523 56.0087 8.99723C56.1379 8.48922 56.3683 8.23456 56.7013 8.23456C56.7466 8.23456 56.9317 8.48922 57.2567 8.99723C57.5804 9.50656 57.9839 9.75989 58.4661 9.75989H59.0255V11.447ZM54.2639 13.8133C54.2639 13.613 54.3558 13.4233 54.5396 13.243C54.7234 13.0626 54.9618 12.9724 55.2548 12.9724C55.5585 12.9724 55.7756 13.0427 55.9048 13.182C56.034 13.3212 56.0979 13.5321 56.0979 13.812C56.0979 14.0574 56.0127 14.2828 55.8435 14.4898C55.6744 14.6953 55.432 14.7988 55.1163 14.7988C54.9498 14.7988 54.766 14.6927 54.5649 14.4818C54.3638 14.2709 54.2639 14.0481 54.2639 13.8133ZM56.632 13.7629C56.632 13.5626 56.7226 13.3729 56.9037 13.1926C57.0849 13.0122 57.3206 12.922 57.6137 12.922C57.9466 12.922 58.1717 13.0002 58.2889 13.1581C58.4061 13.3146 58.4661 13.5162 58.4661 13.7629C58.4661 14.0998 58.3489 14.3492 58.1131 14.5083C57.8774 14.6688 57.619 14.7484 57.338 14.7484C57.1715 14.6861 57.0116 14.5932 56.8598 14.4699C56.708 14.3465 56.632 14.1104 56.632 13.7629Z" fill="white"/>
<path d="M64.0111 11.4469H62.2636C62.1597 11.4814 62.0745 11.4986 62.0052 11.4986C61.8734 11.4986 61.7162 11.3673 61.5364 11.1047C61.3552 10.8421 61.1928 10.6444 61.0502 10.5131C60.8838 10.8222 60.7519 11.0543 60.6547 11.2121C60.5574 11.37 60.4083 11.4482 60.2071 11.4482H58.5889V9.75975H59.432C60.3443 9.75975 60.8651 9.50508 60.9943 8.99708C61.1235 8.48907 61.3539 8.23441 61.6869 8.23441C61.7322 8.23441 61.9173 8.48907 62.2423 8.99708C62.566 9.50641 62.9695 9.75975 63.4517 9.75975H64.0111V11.4469ZM59.448 5.11078C59.448 4.9105 59.5385 4.7195 59.7197 4.53646C59.9008 4.35342 60.1365 4.2619 60.4296 4.2619C60.9983 4.2619 61.282 4.54442 61.282 5.11078C61.282 5.34555 61.1928 5.56706 61.0156 5.7753C60.8371 5.98354 60.5961 6.08832 60.2924 6.08832C60.1259 6.08832 59.9434 5.98354 59.7463 5.7753C59.5465 5.56706 59.448 5.34555 59.448 5.11078Z" fill="white"/>
<path d="M67.4286 8.23201C67.4286 9.12334 67.3074 10.008 67.0676 10.8861C66.8266 11.7642 66.3697 12.2019 65.6984 12.2019C65.6065 12.2019 65.4454 12.0759 65.2163 11.8252C64.9872 11.5732 64.7941 11.4485 64.6396 11.4485H63.5208V9.76001H65.0711C65.2203 9.76001 65.3654 9.80378 65.5053 9.89264C65.6465 9.98151 65.7597 10.0545 65.8449 10.1115C65.8796 9.64328 65.9115 9.12599 65.9395 8.55963C65.9675 7.99326 65.9821 7.46537 65.9821 6.97328C65.9821 6.38437 65.9288 5.8631 65.8223 5.40815C65.7157 4.9532 65.6372 4.60304 65.5852 4.35766C65.5333 4.11228 65.3335 3.70508 64.9872 3.13607C64.6409 2.56705 64.4664 2.06567 64.4664 1.63062C64.4664 1.20751 64.6222 0.848056 64.9352 0.550947C65.2482 0.253838 65.5679 0.105286 65.8956 0.105286C66.1073 0.105286 66.3164 0.253838 66.5202 0.550947C66.724 0.848056 66.8252 1.17965 66.8252 1.54573C66.8252 1.67174 66.8106 1.84284 66.7826 2.06037C66.7533 2.27789 66.7453 2.4291 66.7573 2.51531C66.7573 3.09892 66.8226 3.75283 66.9504 4.47836C67.0796 5.20389 67.1622 5.69863 67.2008 5.96125C67.2394 6.22388 67.2861 6.57272 67.3433 7.00777C67.3993 7.44017 67.4286 7.84869 67.4286 8.23201Z" fill="white"/>
<path d="M68.9943 3.24963C68.949 2.95252 68.8558 2.72173 68.7146 2.55991C68.5734 2.39677 68.4322 2.22699 68.2884 2.04926C68.2311 1.53462 68.3936 1.06508 68.7745 0.639316C69.1568 0.213548 69.5537 0 69.9666 0C70.2702 0 70.4847 0.133961 70.6085 0.403216C70.7324 0.672471 70.7764 0.895308 70.7417 1.07172C70.6618 1.35158 70.5766 1.64869 70.4873 1.96304C70.3981 2.27739 70.3542 2.62358 70.3542 3.00027C70.3542 3.76029 70.4354 4.73252 70.5992 5.91565C70.763 7.09878 70.8443 7.99939 70.8443 8.61616C70.8443 9.10824 70.5566 9.81256 69.9839 10.7291C69.4098 11.6469 68.6466 12.2398 67.693 12.5078C68.2098 11.8791 68.5694 11.3777 68.7732 11.0036C68.977 10.6296 69.1208 10.2635 69.2034 9.90673C69.286 9.54993 69.3392 9.24486 69.3632 8.99418C69.3859 8.74217 69.3978 8.49944 69.3978 8.266C69.3978 8.0551 69.3859 7.78585 69.3632 7.45956C69.3406 7.13327 69.3166 6.83615 69.2939 6.56823L68.9943 3.24963Z" fill="white"/>
<path d="M75.5736 1.87852C75.5736 1.52438 75.6695 1.29492 75.8626 1.19278C76.0544 1.08933 76.2862 1.03893 76.5552 1.03893C76.8482 1.03893 77.0534 1.08137 77.1706 1.16758C77.2878 1.2538 77.413 1.44215 77.5448 1.73395C77.694 1.3745 77.8485 1.12116 78.0097 0.975256C78.1708 0.829355 78.4372 0.756409 78.8102 0.756409C79.0566 0.756409 79.263 0.875778 79.4295 1.11585C79.596 1.35593 79.6799 1.56152 79.6799 1.73262C79.6799 1.978 79.5587 2.18093 79.3189 2.34143C79.0779 2.50192 78.8141 2.5815 78.5265 2.5815C78.2681 2.5815 78.0816 2.52181 77.967 2.40111C77.8472 2.24062 77.7513 2.11197 77.6834 2.01514C77.3557 2.42632 77.1133 2.67169 76.9561 2.74862C76.7976 2.82555 76.6192 2.86402 76.418 2.86402C76.2063 2.86402 76.0118 2.77515 75.8373 2.59874C75.6615 2.42234 75.5736 2.18226 75.5736 1.87852ZM82.6088 11.447L82.9191 11.4643C82.8618 11.4643 82.7686 11.4643 82.6394 11.4643C82.5102 11.4643 82.345 11.4643 82.1439 11.4643C81.5472 11.4643 81.0771 11.6513 80.7361 12.0253C80.3951 12.3994 79.8304 12.5864 79.0446 12.5864C79.0899 12.4431 79.2337 12.2521 79.4748 12.0121C79.7158 11.772 79.865 11.5889 79.9223 11.4629C79.8304 11.451 79.7278 11.4457 79.6173 11.4457C79.5054 11.4457 79.4202 11.4457 79.3629 11.4457C78.926 11.4457 78.6583 11.4483 78.5584 11.4537C78.4585 11.459 78.3733 11.4735 78.304 11.4961C77.8445 11.4271 77.389 11.2587 76.9348 10.9907C76.4806 10.7215 76.2542 10.0702 76.2542 9.03567C76.2542 8.07537 76.6245 7.38697 77.365 6.96916C78.2254 6.7344 79.0898 6.50095 79.9569 6.26619C80.0089 6.15742 80.0075 5.99029 79.9529 5.76481C79.8983 5.53933 79.8397 5.35761 79.7758 5.221C79.7132 5.08438 79.5334 4.92256 79.2377 4.73687C78.942 4.55117 78.7942 4.36946 78.7942 4.19305C78.7942 3.74739 78.9114 3.4662 79.1471 3.34815C79.3829 3.23143 79.6839 3.17174 80.0515 3.17174C80.4591 3.17174 80.7987 3.34152 81.0717 3.6824C81.3448 4.02195 81.4806 4.47292 81.4806 5.03265C81.4806 5.39874 81.4766 5.76614 81.4673 6.13488C81.4593 6.50361 81.454 6.88163 81.454 7.27026C81.454 7.65358 81.454 8.03955 81.454 8.42818C81.482 9.0224 81.5312 9.46541 81.6005 9.75722H82.6074V11.447H82.6088ZM78.019 9.3036C78.019 9.46939 78.1109 9.5808 78.2947 9.63784C78.4785 9.69487 78.7049 9.72406 78.9753 9.72406C79.2457 9.71212 79.4202 9.70681 79.5001 9.70681C80.0049 9.70681 80.2579 9.52112 80.2579 9.14973L80.2233 8.84997L80.1367 8.02629C80.1367 7.8154 80.0075 7.70929 79.7491 7.70929C79.536 7.70929 79.287 7.7703 79.0006 7.89366C78.7129 8.01701 78.5051 8.13373 78.3759 8.24514C78.2468 8.35656 78.1548 8.50511 78.1002 8.6908C78.0456 8.8765 78.019 9.08077 78.019 9.3036Z" fill="white"/>
<path d="M87.7828 11.6019C87.6616 11.6245 87.4977 11.4958 87.2873 11.216C87.0782 10.9361 86.9184 10.7557 86.8091 10.6761C86.7399 10.7332 86.6027 10.8671 86.3963 11.0793C86.1898 11.2902 85.9461 11.4534 85.665 11.5674C85.653 11.5674 85.5039 11.4189 85.2175 11.1218C84.9298 10.8247 84.7327 10.6761 84.6235 10.6761C84.4863 10.6761 84.3331 10.7995 84.1666 11.0448C84.0001 11.2902 83.8709 11.4255 83.779 11.4481H82.0569V9.75959H82.5044C83.3648 9.75959 83.8869 9.50493 84.0667 8.99692C84.2479 8.48892 84.481 8.25149 84.7687 8.28465C84.8832 8.3072 85.035 8.50351 85.2255 8.87224C85.4146 9.24098 85.5904 9.53146 85.7503 9.74235C85.8368 9.66277 85.9834 9.42402 86.1938 9.0261C86.4029 8.62819 86.5854 8.43056 86.7399 8.43056C86.9756 8.86561 87.2047 9.23037 87.4285 9.52748C87.6522 9.82459 87.8933 9.94528 88.1517 9.88825C88.2663 9.8657 88.3395 9.77418 88.3715 9.61369C88.4034 9.45319 88.4194 9.33382 88.4194 9.25423C88.4194 9.18526 88.4194 9.12426 88.4194 9.06987C88.4194 9.01549 88.4114 8.97172 88.3941 8.93724C88.3941 8.76083 88.3648 8.65472 88.3075 8.62023C88.2503 8.58574 88.0811 8.5685 87.8001 8.5685C87.5643 8.5685 87.3526 8.47566 87.1634 8.28996C86.9743 8.10427 86.8797 7.91724 86.8797 7.7289C86.8797 7.49413 87.0116 7.23417 87.2753 6.94899C87.539 6.66382 87.8494 6.52057 88.205 6.52057C88.4287 6.52057 88.7351 6.80972 89.1213 7.3867C89.5089 7.96367 89.7021 8.4982 89.7021 8.99029C89.714 9.08711 89.7194 9.17067 89.7194 9.23965C89.7194 9.73173 89.5902 10.2145 89.3318 10.6881C89.0734 11.1616 88.5566 11.464 87.7828 11.6019Z" fill="white"/>
<path d="M95.2638 11.4468C95.1839 11.4242 95.0933 11.4097 94.9921 11.4044C94.8922 11.399 94.6725 11.3964 94.3328 11.3964C94.0744 11.3964 93.8893 11.4256 93.7774 11.4826C93.6655 11.5396 93.4564 11.7731 93.1488 12.1816C92.8411 12.5901 92.4122 12.8886 91.8608 13.0769L91.7742 12.8116C91.8888 12.5888 92.1019 12.2745 92.4109 11.8686C92.64 11.4004 92.7558 10.6908 92.7558 9.7424L91.8089 4.46076C91.6077 4.12386 91.3986 3.76043 91.1802 3.3718C90.9618 2.98317 90.8525 2.6025 90.8525 2.23112C90.8525 1.6422 91.0177 1.19919 91.348 0.902082C91.6783 0.604973 91.9953 0.456421 92.299 0.456421C92.5347 0.456421 92.7199 0.573137 92.8544 0.807907C92.9889 1.04268 93.0569 1.32785 93.0569 1.66475C93.0569 1.88758 93.0116 2.26958 92.9197 2.80942C92.8278 3.34925 92.7878 3.68217 92.7998 3.80818C92.949 4.83745 93.1181 5.79775 93.3073 6.68908C93.4964 7.5804 93.6535 8.25951 93.7761 8.72507C93.9 9.19062 93.9892 9.53549 94.0478 9.75832H95.2612V11.4468H95.2638Z" fill="white"/>
<path d="M94.7574 9.75852H95.9375C96.4197 9.75852 96.686 9.76117 96.738 9.76647C96.7899 9.77178 97.0683 9.84075 97.5731 9.97206C97.5957 9.92696 97.6131 9.87656 97.625 9.82218C97.637 9.7678 97.6424 9.70015 97.6424 9.62057C97.6424 9.48926 97.6224 9.39508 97.5824 9.33805C97.5425 9.28101 97.5052 9.22001 97.4705 9.15369C97.4359 9.08737 97.2841 9.05553 97.0137 9.05553C96.7779 9.05553 96.5768 8.96268 96.4103 8.77699C96.2439 8.5913 96.1613 8.3751 96.1613 8.12972C96.1613 7.8724 96.2732 7.62171 96.4969 7.37501C96.7207 7.12963 97.0217 7.00628 97.4013 7.00628C97.6943 7.00628 98.0166 7.2636 98.3696 7.77823C98.7225 8.29287 98.8984 8.93616 98.8984 9.70678C98.8984 10.2612 98.7985 10.744 98.5973 11.1552C98.3962 11.5664 98.1498 11.772 97.8568 11.772C97.7129 11.7149 97.5118 11.646 97.2534 11.5664C96.995 11.4868 96.4903 11.4457 95.7377 11.4457H94.7561V9.75852H94.7574ZM96.8485 3.87602C96.6368 4.00733 96.5529 4.16251 96.5995 4.33892C96.6394 4.46493 96.714 4.56043 96.8232 4.62675C96.9324 4.69307 97.0523 4.7249 97.1842 4.7249C97.2534 4.7249 97.4106 4.6745 97.657 4.57502C97.9034 4.47554 98.0499 4.43045 98.0965 4.44238C98.263 4.46493 98.3576 4.55247 98.3802 4.70368C98.4029 4.85488 98.4149 5.02467 98.4149 5.21434C98.1911 5.34034 97.7116 5.56185 96.9764 5.87886C96.2412 6.19586 95.8629 6.33778 95.8403 6.30329C95.783 6.21177 95.7257 6.10434 95.6685 5.98231C95.6112 5.85896 95.5819 5.76081 95.5819 5.68653C95.5819 5.65204 95.5992 5.59368 95.6338 5.51012C95.6685 5.42788 95.7444 5.36554 95.8616 5.32575C95.9788 5.28596 96.0894 5.24882 96.1932 5.21434C95.9575 5.0366 95.8176 4.81377 95.771 4.54584C95.7364 4.44238 95.7191 4.3376 95.7191 4.22884C95.7191 3.97152 95.807 3.7288 95.9815 3.50066C96.1559 3.27252 96.3384 3.12927 96.5276 3.07223C96.7167 3.0152 96.8685 2.98602 96.9844 2.98602C97.2308 2.98602 97.4492 3.02979 97.6384 3.11866C97.8275 3.20753 97.9221 3.31496 97.9221 3.43964C97.9221 3.60544 97.8661 3.73277 97.7542 3.82164C97.6424 3.91051 97.5092 3.92907 97.3533 3.87735C97.1815 3.84286 97.0896 3.82562 97.0776 3.82562C97.0177 3.82429 96.9404 3.84153 96.8485 3.87602Z" fill="white"/>
<path d="M97.9583 16.2921C96.3973 16.2921 94.9042 15.8146 93.4817 14.8596C92.0579 13.9046 91.2601 12.7162 91.0883 11.293L91.364 11.5158C92.0472 12.6366 92.8677 13.5226 93.8267 14.1739C94.7856 14.8251 96.0217 15.1514 97.5374 15.1514C98.3472 15.1514 99.121 15.0572 99.8616 14.8689C100.602 14.6805 101.221 14.4153 101.721 14.0757C102.22 13.7362 102.784 13.1366 103.412 12.2798C104.041 11.423 104.355 10.5078 104.355 9.53552C104.355 9.36973 104.35 9.23178 104.338 9.11904C104.326 9.00762 104.048 8.8405 103.503 8.61766C102.958 8.39483 102.685 8.01417 102.685 7.47698C102.685 6.61351 103.024 6.18243 103.701 6.18243C104.246 6.18243 104.719 6.50342 105.117 7.14671C105.517 7.79001 105.715 8.54339 105.715 9.40553C105.715 10.3207 105.416 11.3036 104.815 12.3554C104.216 13.4072 103.673 14.15 103.193 14.585C102.509 15.0877 101.736 15.4976 100.872 15.8159C100.009 16.1329 99.0384 16.2921 97.9583 16.2921Z" fill="white"/>
<path d="M1.52176 23.8879V21.6184H0.552124V21.0706H1.52176V18.9789H2.1038V21.0706H3.07343V21.6184H2.1038V23.8879H1.52176Z" fill="white" stroke="white" stroke-width="0.336446" stroke-miterlimit="10"/>
<path d="M5.98882 22.9592C5.98882 23.1038 5.96085 23.2378 5.90491 23.3638C5.84897 23.4898 5.77438 23.6025 5.67849 23.698C5.58259 23.7935 5.46938 23.8691 5.33885 23.9235C5.20832 23.9779 5.0698 24.0057 4.92196 24.0057C4.77412 24.0057 4.63693 23.9779 4.50774 23.9235C4.37854 23.8691 4.26799 23.7948 4.17343 23.6993C4.07886 23.6038 4.00427 23.4937 3.951 23.3651C3.89772 23.2364 3.86975 23.1011 3.86975 22.9566C3.86975 22.812 3.89639 22.674 3.951 22.5441C4.00427 22.4154 4.08019 22.304 4.17609 22.2111C4.27199 22.117 4.38254 22.0427 4.51173 21.9883C4.64093 21.9339 4.77678 21.9061 4.92196 21.9061C5.06714 21.9061 5.20832 21.9339 5.33752 21.9883C5.46671 22.0427 5.57992 22.117 5.67715 22.2125C5.77305 22.3066 5.8503 22.4181 5.90491 22.5467C5.96085 22.674 5.98882 22.812 5.98882 22.9579V22.9592ZM5.45872 22.9592C5.45872 22.8889 5.44407 22.8213 5.41477 22.7576C5.3868 22.6926 5.34684 22.6382 5.29889 22.5892C5.25094 22.5401 5.19367 22.5043 5.12841 22.4738C5.06314 22.4459 4.99522 22.43 4.92462 22.43C4.85403 22.43 4.78078 22.4446 4.71951 22.4711C4.65558 22.499 4.60097 22.5361 4.55302 22.5812C4.5064 22.6276 4.46778 22.6833 4.44114 22.747C4.41317 22.812 4.39985 22.8796 4.39985 22.9552C4.39985 23.0308 4.4145 23.0972 4.44114 23.1595C4.46911 23.2245 4.5064 23.2789 4.55302 23.3253C4.59964 23.3717 4.65558 23.4089 4.71951 23.4367C4.78344 23.4646 4.85137 23.4778 4.92462 23.4778C4.99788 23.4778 5.06314 23.4632 5.12841 23.4367C5.19367 23.4089 5.24961 23.3717 5.29889 23.3253C5.34684 23.2789 5.38547 23.2232 5.41477 23.1595C5.44274 23.0945 5.45872 23.0282 5.45872 22.9552V22.9592Z" fill="white" stroke="white" stroke-width="0.336446" stroke-miterlimit="10"/>
<path d="M7.06177 23.8878V18.9802H7.64341V23.8878H7.06177Z" fill="white" stroke="white" stroke-width="0.336446" stroke-miterlimit="10"/>
<path d="M13.8361 21.4569C13.8361 21.689 13.8055 21.9158 13.7442 22.132C13.683 22.3495 13.5964 22.5525 13.4845 22.7421C13.3726 22.9305 13.2381 23.1029 13.0783 23.2568C12.9198 23.412 12.7453 23.5459 12.5535 23.6573C12.3617 23.7701 12.1566 23.855 11.9355 23.9147C11.7157 23.9743 11.484 24.0062 11.2442 24.0062C11.0045 24.0062 10.7741 23.9757 10.5543 23.9147C10.3345 23.855 10.1307 23.7688 9.94162 23.6587C9.75249 23.5486 9.57934 23.4146 9.42484 23.2607C9.27034 23.1056 9.13714 22.9345 9.02659 22.7461C8.91605 22.5578 8.8308 22.3548 8.76954 22.136C8.7096 21.9185 8.6803 21.6916 8.6803 21.4555C8.6803 21.1001 8.74689 20.7658 8.87875 20.4541C9.01194 20.1424 9.19308 19.8719 9.42617 19.6411C9.65925 19.4116 9.92963 19.2286 10.24 19.0959C10.5503 18.9633 10.8846 18.8956 11.2429 18.8956C11.4813 18.8956 11.7091 18.9261 11.9275 18.9885C12.1473 19.0495 12.3537 19.137 12.5455 19.2498C12.7386 19.3625 12.9144 19.4952 13.0716 19.6517C13.2288 19.8082 13.3646 19.9806 13.4778 20.1703C13.5897 20.36 13.6763 20.5629 13.7389 20.7817C13.8015 20.9993 13.8321 21.2248 13.8321 21.4569H13.8361ZM13.2328 21.4569C13.2328 21.185 13.1808 20.9303 13.0769 20.6889C12.973 20.4475 12.8319 20.2379 12.6507 20.0575C12.4709 19.8772 12.2605 19.7352 12.0181 19.6304C11.777 19.5257 11.5186 19.4739 11.2429 19.4739C10.9672 19.4739 10.7088 19.5257 10.4717 19.6278C10.2333 19.7299 10.0269 19.8718 9.85105 20.0496C9.6739 20.2286 9.53672 20.4395 9.43549 20.6809C9.33427 20.9237 9.28499 21.181 9.28499 21.4569C9.28499 21.7328 9.33427 21.9861 9.43549 22.2262C9.53672 22.4662 9.6739 22.6745 9.84972 22.8535C10.0255 23.0326 10.2333 23.1732 10.4704 23.2767C10.7088 23.3801 10.9672 23.4305 11.2442 23.4305C11.5213 23.4305 11.7837 23.3788 12.0261 23.2753C12.2671 23.1719 12.4776 23.03 12.6561 22.8509C12.8345 22.6718 12.9757 22.4623 13.0783 22.2235C13.1808 21.9834 13.2328 21.7288 13.2328 21.4569ZM10.6049 21.4502C10.6049 21.3614 10.6222 21.2778 10.6542 21.1996C10.6888 21.1213 10.7341 21.0523 10.7927 20.9953C10.8526 20.9383 10.9206 20.8918 10.9992 20.856C11.0791 20.8215 11.1643 20.8043 11.2536 20.8043C11.3428 20.8043 11.4294 20.8215 11.5106 20.856C11.5919 20.8892 11.6611 20.9356 11.7211 20.9953C11.781 21.055 11.8263 21.1213 11.8609 21.1996C11.8955 21.2778 11.9128 21.3627 11.9128 21.4502C11.9128 21.5378 11.8955 21.6267 11.8609 21.7049C11.8263 21.7832 11.7797 21.8521 11.7211 21.9092C11.6611 21.9675 11.5919 22.0126 11.5106 22.0471C11.4294 22.0803 11.3441 22.0962 11.2536 22.0962C11.163 22.0962 11.0791 22.0789 10.9992 22.0471C10.9192 22.0139 10.85 21.9689 10.7927 21.9092C10.7328 21.8521 10.6875 21.7832 10.6542 21.7049C10.6209 21.6267 10.6049 21.5418 10.6049 21.4502Z" fill="white" stroke="white" stroke-width="0.336446" stroke-miterlimit="10"/>
<path d="M19.8212 21.4569C19.8212 21.689 19.7906 21.9158 19.7293 22.132C19.6681 22.3495 19.5815 22.5525 19.4696 22.7421C19.3577 22.9305 19.2232 23.1029 19.0634 23.2568C18.9049 23.412 18.7304 23.5459 18.5386 23.6573C18.3468 23.7701 18.1417 23.855 17.9206 23.9147C17.7008 23.9743 17.4691 24.0062 17.2293 24.0062C16.9896 24.0062 16.7592 23.9757 16.5394 23.9147C16.3196 23.855 16.1159 23.7688 15.9267 23.6587C15.7376 23.5486 15.5644 23.4146 15.4099 23.2607C15.2554 23.1056 15.1223 22.9345 15.0117 22.7461C14.9012 22.5578 14.8159 22.3548 14.7546 22.136C14.6947 21.9185 14.6654 21.6916 14.6654 21.4555C14.6654 21.1001 14.732 20.7658 14.8639 20.4541C14.9971 20.1424 15.1782 19.8719 15.4113 19.6411C15.6444 19.4116 15.9147 19.2286 16.2251 19.0959C16.5354 18.9633 16.8697 18.8956 17.228 18.8956C17.4664 18.8956 17.6942 18.9261 17.9126 18.9885C18.1324 19.0495 18.3388 19.137 18.5306 19.2498C18.7237 19.3625 18.8995 19.4952 19.0567 19.6517C19.2139 19.8082 19.3497 19.9806 19.4629 20.1703C19.5748 20.36 19.6614 20.5629 19.724 20.7817C19.7866 20.9993 19.8172 21.2248 19.8172 21.4569H19.8212ZM19.2192 21.4569C19.2192 21.185 19.1673 20.9303 19.0634 20.6889C18.9595 20.4475 18.8183 20.2379 18.6372 20.0575C18.4574 19.8772 18.2469 19.7352 18.0045 19.6304C17.7634 19.5257 17.505 19.4739 17.2307 19.4739C16.955 19.4739 16.6966 19.5257 16.4595 19.6278C16.2211 19.7299 16.0146 19.8718 15.8388 20.0496C15.6617 20.2286 15.5245 20.4395 15.4233 20.6809C15.322 20.9237 15.2728 21.181 15.2728 21.4569C15.2728 21.7328 15.322 21.9861 15.4233 22.2262C15.5245 22.4662 15.6617 22.6745 15.8375 22.8535C16.0133 23.0326 16.2211 23.1732 16.4582 23.2767C16.6966 23.3801 16.955 23.4305 17.232 23.4305C17.5104 23.4305 17.7714 23.3788 18.0138 23.2753C18.2549 23.1719 18.4653 23.03 18.6438 22.8509C18.8223 22.6718 18.9635 22.4623 19.066 22.2235C19.1686 21.9834 19.2205 21.7288 19.2205 21.4569H19.2192ZM16.59 21.4502C16.59 21.3614 16.6073 21.2778 16.6393 21.1996C16.6739 21.1213 16.7192 21.0523 16.7778 20.9953C16.8378 20.9383 16.9057 20.8918 16.9843 20.856C17.0642 20.8215 17.1494 20.8043 17.2387 20.8043C17.3279 20.8043 17.4145 20.8215 17.4957 20.856C17.577 20.8892 17.6462 20.9356 17.7062 20.9953C17.7661 21.0537 17.8114 21.1213 17.846 21.1996C17.8806 21.2778 17.898 21.3627 17.898 21.4502C17.898 21.5378 17.8806 21.6267 17.846 21.7049C17.8114 21.7832 17.7648 21.8521 17.7062 21.9092C17.6462 21.9675 17.577 22.0126 17.4957 22.0471C17.4145 22.0803 17.3292 22.0962 17.2387 22.0962C17.1481 22.0962 17.0642 22.0789 16.9843 22.0471C16.9043 22.0139 16.8351 21.9689 16.7778 21.9092C16.7179 21.8521 16.6726 21.7832 16.6393 21.7049C16.606 21.6267 16.59 21.5418 16.59 21.4502Z" fill="white" stroke="white" stroke-width="0.336446" stroke-miterlimit="10"/>
<path d="M21.6233 20.3734L22.9152 21.4611L21.6233 22.5487L23.6971 23.4798L23.4014 24.0276L20.5298 22.7026L21.9603 21.4611L20.5298 20.2196L23.4014 18.8945L23.6971 19.4423L21.6233 20.3734Z" fill="white" stroke="white" stroke-width="0.336446" stroke-miterlimit="10"/>
<path d="M26.5596 22.9592C26.5596 23.1038 26.5317 23.2378 26.4757 23.3638C26.4198 23.4898 26.3452 23.6025 26.2493 23.698C26.1534 23.7935 26.0402 23.8691 25.9096 23.9235C25.7791 23.9779 25.6406 24.0057 25.4928 24.0057C25.3449 24.0057 25.2077 23.9779 25.0785 23.9235C24.9493 23.8691 24.8388 23.7948 24.7442 23.6993C24.6497 23.6038 24.5751 23.4937 24.5218 23.3651C24.4685 23.2378 24.4406 23.1011 24.4406 22.9566C24.4406 22.812 24.4672 22.674 24.5218 22.5441C24.5751 22.4154 24.651 22.304 24.7469 22.2111C24.8428 22.117 24.9533 22.0427 25.0825 21.9883C25.2117 21.9339 25.3476 21.9061 25.4928 21.9061C25.6379 21.9061 25.7791 21.9339 25.9083 21.9883C26.0375 22.0427 26.1507 22.117 26.248 22.2125C26.3439 22.3066 26.4211 22.4181 26.4757 22.5467C26.5317 22.674 26.5596 22.812 26.5596 22.9579V22.9592ZM26.0295 22.9592C26.0295 22.8889 26.0149 22.8213 25.9856 22.7576C25.9576 22.6926 25.9176 22.6382 25.8697 22.5892C25.8217 22.5401 25.7645 22.5043 25.6992 22.4738C25.6339 22.4459 25.566 22.43 25.4954 22.43C25.4248 22.43 25.3516 22.4446 25.2903 22.4711C25.2264 22.499 25.1718 22.5361 25.1238 22.5812C25.0772 22.6276 25.0386 22.6833 25.0119 22.747C24.984 22.812 24.9707 22.8796 24.9707 22.9552C24.9707 23.0308 24.9853 23.0972 25.0119 23.1595C25.0399 23.2245 25.0772 23.2789 25.1238 23.3253C25.1704 23.3717 25.2264 23.4089 25.2903 23.4367C25.3542 23.4646 25.4222 23.4778 25.4954 23.4778C25.5687 23.4778 25.6339 23.4632 25.6992 23.4367C25.7645 23.4089 25.8204 23.3717 25.8697 23.3253C25.9176 23.2789 25.9563 23.2232 25.9856 23.1595C26.0135 23.0945 26.0295 23.0282 26.0295 22.9552V22.9592Z" fill="white" stroke="white" stroke-width="0.336446" stroke-miterlimit="10"/>
<path d="M28.0664 18.9802L29.3091 20.5758V18.9802H29.8911V20.5705L31.1311 18.9802H31.893L29.9777 21.4326L31.893 23.8851H31.1338L29.5968 21.9168L28.0624 23.8851H27.3032L29.2158 21.4326L27.3032 18.9802H28.0651H28.0664Z" fill="white" stroke="white" stroke-width="0.336446" stroke-miterlimit="10"/>
<path d="M32.5331 23.8878V23.34H33.869V19.528H32.5331V18.9802H34.4524V21.0838H35.454V18.9802H37.3732V19.528H36.0373V23.34H37.3732V23.8878H35.454V21.6329H34.4524V23.8878H32.5331Z" fill="white" stroke="white" stroke-width="0.336446" stroke-miterlimit="10"/>
<path d="M39.035 23.888V21.6186H38.0641V21.0708H39.035V18.9791H39.6171V21.0708H40.5881V21.6186H39.6171V23.888H39.035Z" fill="white" stroke="white" stroke-width="0.336446" stroke-miterlimit="10"/>
<path d="M45.9634 23.8878V18.9802H46.545V23.8878H45.9634Z" fill="white" stroke="white" stroke-width="0.336446" stroke-miterlimit="10"/>
<path d="M52.8903 23.888V21.6186H51.9193V21.0708H52.8903V18.9791H53.4723V21.0708H54.4433V21.6186H53.4723V23.888H52.8903Z" fill="white" stroke="white" stroke-width="0.336446" stroke-miterlimit="10"/>
<path d="M55.3079 23.8878V18.9802H58.7575V19.528H55.8912V23.34H58.7575V23.8878H55.3079Z" fill="white" stroke="white" stroke-width="0.336446" stroke-miterlimit="10"/>
<path d="M61.5907 19.804C61.5907 19.93 61.5667 20.0467 61.5201 20.1555C61.4735 20.2642 61.4082 20.3597 61.3243 20.4433C61.2404 20.5255 61.1445 20.5905 61.0326 20.6369C60.9207 20.6834 60.8009 20.7072 60.6743 20.7072C60.5465 20.7072 60.4253 20.6834 60.3134 20.6369C60.2028 20.5905 60.1069 20.5269 60.0257 20.4433C59.9444 20.3611 59.8818 20.2656 59.8339 20.1555C59.7873 20.0467 59.7633 19.9287 59.7633 19.804C59.7633 19.6793 59.7873 19.5599 59.8339 19.4498C59.8805 19.3397 59.9458 19.2429 60.0284 19.1607C60.1109 19.0784 60.2068 19.0135 60.3174 18.967C60.4279 18.9206 60.5478 18.8967 60.673 18.8967C60.7995 18.8967 60.9154 18.9206 61.0273 18.9684C61.1392 19.0161 61.2377 19.0824 61.319 19.1633C61.4016 19.2442 61.4682 19.3411 61.5161 19.4512C61.564 19.5599 61.588 19.678 61.588 19.8026L61.5907 19.804ZM61.5907 23.104C61.5907 23.23 61.5667 23.3467 61.5201 23.4555C61.4735 23.5643 61.4082 23.6598 61.3243 23.7433C61.2404 23.8256 61.1445 23.8905 61.0326 23.937C60.9207 23.9834 60.8009 24.0073 60.6743 24.0073C60.5465 24.0073 60.4253 23.9834 60.3134 23.937C60.2028 23.8905 60.1069 23.8269 60.0257 23.7433C59.9444 23.6611 59.8818 23.5656 59.8339 23.4555C59.7873 23.3467 59.7633 23.2287 59.7633 23.104C59.7633 22.9793 59.7873 22.8599 59.8339 22.7499C59.8805 22.6398 59.9458 22.5429 60.0284 22.4607C60.1109 22.3785 60.2068 22.3135 60.3174 22.2671C60.4279 22.2206 60.5478 22.1968 60.673 22.1968C60.7995 22.1968 60.9154 22.2206 61.0273 22.2684C61.1392 22.3161 61.2377 22.3825 61.319 22.4634C61.4016 22.5443 61.4682 22.6411 61.5161 22.7512C61.564 22.86 61.588 22.978 61.588 23.1027L61.5907 23.104ZM61.0859 19.804C61.0859 19.7469 61.0752 19.6939 61.0539 19.6448C61.0313 19.5957 61.0033 19.552 60.966 19.5148C60.9287 19.4764 60.8848 19.4472 60.8342 19.426C60.7836 19.4047 60.7303 19.3941 60.6757 19.3941C60.6211 19.3941 60.5638 19.4034 60.5158 19.4246C60.4666 19.4459 60.4226 19.4737 60.3853 19.5122C60.348 19.5506 60.32 19.5931 60.2987 19.6435C60.2774 19.6939 60.2681 19.7469 60.2681 19.8053C60.2681 19.922 60.3067 20.0188 60.384 20.0945C60.4626 20.1701 60.5585 20.2098 60.6757 20.2098C60.7303 20.2098 60.7836 20.2006 60.8342 20.1793C60.8848 20.1581 60.9287 20.1303 60.966 20.0945C61.0033 20.0586 61.0326 20.0149 61.0539 19.9658C61.0752 19.9167 61.0859 19.8637 61.0859 19.8066V19.804ZM61.0859 23.104C61.0859 23.047 61.0752 22.9939 61.0539 22.9448C61.0313 22.8958 61.0033 22.852 60.966 22.8149C60.9287 22.7764 60.8848 22.7472 60.8342 22.726C60.7836 22.7048 60.7303 22.6942 60.6757 22.6942C60.6211 22.6942 60.5638 22.7034 60.5158 22.7247C60.4666 22.7459 60.4226 22.7737 60.3853 22.8122C60.348 22.8507 60.32 22.8931 60.2987 22.9435C60.2774 22.9939 60.2681 23.047 60.2681 23.1053C60.2681 23.2221 60.3067 23.3189 60.384 23.3945C60.4626 23.4701 60.5585 23.5099 60.6757 23.5099C60.7303 23.5099 60.7836 23.5006 60.8342 23.4794C60.8848 23.4581 60.9287 23.4303 60.966 23.3945C61.0033 23.3587 61.0326 23.3149 61.0539 23.2658C61.0752 23.2167 61.0859 23.1637 61.0859 23.1067V23.104Z" fill="white" stroke="white" stroke-width="0.336446" stroke-miterlimit="10"/>
<path d="M67.713 21.4569C67.713 21.689 67.6823 21.9158 67.6211 22.132C67.5598 22.3495 67.4732 22.5525 67.3613 22.7421C67.2494 22.9305 67.1149 23.1029 66.9551 23.2568C66.7966 23.412 66.6221 23.5459 66.4303 23.6573C66.2385 23.7701 66.0334 23.855 65.8123 23.9147C65.5926 23.9743 65.3608 24.0062 65.1211 24.0062C64.8813 24.0062 64.6522 23.9757 64.4311 23.9147C64.2114 23.855 64.0076 23.7688 63.8184 23.6587C63.6306 23.5486 63.4562 23.4146 63.3017 23.2607C63.1472 23.1056 63.014 22.9345 62.9034 22.7461C62.7929 22.5578 62.7076 22.3548 62.6464 22.136C62.5864 21.9185 62.5571 21.6916 62.5571 21.4555C62.5571 21.1001 62.6237 20.7658 62.7556 20.4541C62.8888 20.1424 63.0699 19.8719 63.303 19.6411C63.5361 19.4116 63.8065 19.2286 64.1168 19.0959C64.4271 18.9633 64.7601 18.8956 65.1197 18.8956C65.3581 18.8956 65.5859 18.9261 65.8043 18.9885C66.0228 19.0508 66.2292 19.137 66.4223 19.2498C66.6155 19.3625 66.7913 19.4952 66.9484 19.6517C67.1056 19.8082 67.2428 19.9806 67.3547 20.1703C67.4666 20.36 67.5531 20.5629 67.6157 20.7817C67.6783 20.9993 67.709 21.2248 67.709 21.4569H67.713ZM67.1096 21.4569C67.1096 21.185 67.0577 20.9303 66.9538 20.6889C66.8499 20.4475 66.7087 20.2379 66.5289 20.0575C66.3491 19.8772 66.1386 19.7352 65.8962 19.6304C65.6552 19.5257 65.3968 19.4739 65.1224 19.4739C64.848 19.4739 64.587 19.5257 64.3512 19.6278C64.1141 19.7299 63.9064 19.8718 63.7305 20.0496C63.5534 20.2286 63.4149 20.4395 63.315 20.6809C63.2138 20.9237 63.1645 21.181 63.1645 21.4569C63.1645 21.7328 63.2138 21.9861 63.315 22.2262C63.4149 22.4662 63.5534 22.6745 63.7292 22.8535C63.905 23.0326 64.1115 23.1732 64.3499 23.2767C64.5883 23.3801 64.8467 23.4305 65.1237 23.4305C65.4021 23.4305 65.6631 23.3788 65.9056 23.2753C66.1466 23.1719 66.3571 23.03 66.5355 22.8509C66.714 22.6718 66.8552 22.4623 66.9578 22.2235C67.059 21.9848 67.1109 21.7288 67.1096 21.4569Z" fill="white" stroke="white" stroke-width="0.336446" stroke-miterlimit="10"/>
<path d="M70.6995 22.9592C70.6995 23.1038 70.6715 23.2378 70.6156 23.3638C70.561 23.4898 70.4851 23.6025 70.3892 23.698C70.2933 23.7935 70.1801 23.8691 70.0495 23.9235C69.919 23.9779 69.7805 24.0057 69.6326 24.0057C69.4848 24.0057 69.3476 23.9779 69.2184 23.9235C69.0892 23.8691 68.9787 23.7948 68.8841 23.6993C68.7896 23.6038 68.715 23.4937 68.6617 23.3651C68.6084 23.2378 68.5804 23.1011 68.5804 22.9566C68.5804 22.812 68.6071 22.674 68.6617 22.5441C68.715 22.4154 68.7909 22.304 68.8868 22.2111C68.9813 22.117 69.0946 22.0427 69.2224 21.9883C69.3516 21.9339 69.4875 21.9061 69.6326 21.9061C69.7778 21.9061 69.919 21.9339 70.0482 21.9883C70.1774 22.0427 70.2906 22.117 70.3878 22.2125C70.4837 22.3066 70.561 22.4181 70.6156 22.5467C70.6715 22.674 70.6995 22.812 70.6995 22.9579V22.9592ZM70.1694 22.9592C70.1694 22.8889 70.1548 22.8213 70.1268 22.7576C70.0988 22.6926 70.0589 22.6382 70.0109 22.5892C69.963 22.5401 69.9057 22.5043 69.8404 22.4738C69.7752 22.4459 69.7072 22.43 69.6366 22.43C69.5661 22.43 69.4955 22.4446 69.4315 22.4711C69.3676 22.499 69.3117 22.5361 69.265 22.5812C69.2184 22.6276 69.1798 22.6833 69.1532 22.747C69.1252 22.812 69.1119 22.8796 69.1119 22.9552C69.1119 23.0308 69.1265 23.0972 69.1532 23.1595C69.1811 23.2245 69.2184 23.2789 69.265 23.3253C69.3117 23.3717 69.3676 23.4089 69.4315 23.4367C69.4955 23.4646 69.5634 23.4778 69.6366 23.4778C69.7099 23.4778 69.7752 23.4632 69.8404 23.4367C69.9057 23.4102 69.9616 23.3717 70.0109 23.3253C70.0589 23.2789 70.0975 23.2232 70.1268 23.1595C70.1548 23.0945 70.1694 23.0282 70.1694 22.9552V22.9592Z" fill="white" stroke="white" stroke-width="0.336446" stroke-miterlimit="10"/>
<path d="M71.5087 23.7172L73.0711 21.8152L71.4435 20.2885L74.106 18.8998L74.4176 19.3892L72.481 20.3959L73.9009 21.7754L72.0309 24.0448L71.5074 23.7198V23.7172H71.5087Z" fill="white" stroke="white" stroke-width="0.336446" stroke-miterlimit="10"/>
<path d="M76.0289 23.888V21.6186H75.058V21.0708H76.0289V18.9791H76.611V21.0708H77.5806V21.6186H76.611V23.888H76.0289Z" fill="white" stroke="white" stroke-width="0.336446" stroke-miterlimit="10"/>
<path d="M83.6481 23.888V21.6186H82.6771V21.0708H83.6481V18.9791H84.2301V21.0708H85.2011V21.6186H84.2301V23.888H83.6481Z" fill="white" stroke="white" stroke-width="0.336446" stroke-miterlimit="10"/>
<path d="M88.1174 22.9592C88.1174 23.1038 88.0894 23.2378 88.0334 23.3638C87.9775 23.4898 87.9029 23.6025 87.8057 23.698C87.7098 23.7935 87.5979 23.8691 87.4674 23.9235C87.3369 23.9779 87.1983 24.0057 87.0505 24.0057C86.9027 24.0057 86.7655 23.9779 86.6363 23.9235C86.5071 23.8691 86.3965 23.7948 86.302 23.6993C86.2074 23.6038 86.1328 23.4937 86.0795 23.3651C86.0263 23.2378 85.9983 23.1011 85.9983 22.9566C85.9983 22.812 86.0249 22.674 86.0795 22.5441C86.1328 22.4154 86.2087 22.304 86.3046 22.2111C86.3992 22.117 86.5111 22.0427 86.6403 21.9883C86.7695 21.9339 86.9053 21.9061 87.0505 21.9061C87.1943 21.9061 87.3369 21.9339 87.4661 21.9883C87.5952 22.0427 87.7085 22.117 87.8044 22.2125C87.9003 22.3066 87.9775 22.4181 88.0334 22.5467C88.0881 22.674 88.1174 22.812 88.1174 22.9579V22.9592ZM87.5873 22.9592C87.5873 22.8889 87.5726 22.8213 87.5446 22.7576C87.5167 22.6926 87.4767 22.6382 87.4288 22.5892C87.3808 22.5401 87.3235 22.5043 87.2583 22.4738C87.193 22.4459 87.1251 22.43 87.0545 22.43C86.9839 22.43 86.9133 22.4446 86.8494 22.4711C86.7854 22.499 86.7308 22.5361 86.6829 22.5812C86.6363 22.6276 86.5976 22.6833 86.571 22.747C86.543 22.812 86.5297 22.8796 86.5297 22.9552C86.5297 23.0308 86.5444 23.0972 86.571 23.1595C86.599 23.2245 86.6363 23.2789 86.6829 23.3253C86.7295 23.3717 86.7854 23.4089 86.8494 23.4367C86.9133 23.4646 86.9812 23.4778 87.0545 23.4778C87.1278 23.4778 87.1943 23.4632 87.2583 23.4367C87.3235 23.4102 87.3795 23.3717 87.4288 23.3253C87.4767 23.2789 87.5153 23.2232 87.5446 23.1595C87.5726 23.0945 87.5873 23.0282 87.5873 22.9552V22.9592Z" fill="white" stroke="white" stroke-width="0.336446" stroke-miterlimit="10"/>
<path d="M89.087 23.8878V18.9802H92.5367V19.528H89.6704V23.34H92.5367V23.8878H89.087Z" fill="white" stroke="white" stroke-width="0.336446" stroke-miterlimit="10"/>
<path d="M95.556 22.9592C95.556 23.1038 95.528 23.2378 95.472 23.3638C95.4174 23.4898 95.3415 23.6025 95.2443 23.698C95.1484 23.7935 95.0365 23.8691 94.906 23.9235C94.7755 23.9779 94.6369 24.0057 94.4891 24.0057C94.3413 24.0057 94.2041 23.9779 94.0749 23.9235C93.9457 23.8691 93.8351 23.7948 93.7406 23.6993C93.646 23.6038 93.5714 23.4937 93.5181 23.3651C93.4649 23.2364 93.4369 23.1011 93.4369 22.9566C93.4369 22.812 93.4635 22.674 93.5181 22.5441C93.5714 22.4154 93.6473 22.304 93.7432 22.2111C93.8378 22.117 93.9497 22.0427 94.0789 21.9883C94.2081 21.9339 94.3439 21.9061 94.4891 21.9061C94.6329 21.9061 94.7755 21.9339 94.9047 21.9883C95.0339 22.0427 95.1471 22.117 95.243 22.2125C95.3389 22.3066 95.4161 22.4181 95.472 22.5467C95.5267 22.674 95.556 22.812 95.556 22.9579V22.9592ZM95.0259 22.9592C95.0259 22.8889 95.0125 22.8213 94.9832 22.7576C94.9553 22.6926 94.9153 22.6382 94.8674 22.5892C94.8194 22.5401 94.7621 22.5043 94.6969 22.4738C94.6316 22.4459 94.5637 22.43 94.4931 22.43C94.4225 22.43 94.3519 22.4446 94.288 22.4711C94.2241 22.499 94.1694 22.5361 94.1215 22.5812C94.0749 22.6276 94.0362 22.6833 94.0096 22.747C93.9816 22.812 93.9683 22.8796 93.9683 22.9552C93.9683 23.0308 93.983 23.0972 94.0096 23.1595C94.0376 23.2245 94.0749 23.2789 94.1215 23.3253C94.1681 23.3717 94.2241 23.4089 94.288 23.4367C94.3519 23.4646 94.4198 23.4778 94.4931 23.4778C94.5663 23.4778 94.6329 23.4632 94.6969 23.4367C94.7621 23.4102 94.8181 23.3717 94.8674 23.3253C94.9153 23.2789 94.9539 23.2232 94.9832 23.1595C95.0112 23.0945 95.0259 23.0282 95.0259 22.9552V22.9592Z" fill="white" stroke="white" stroke-width="0.336446" stroke-miterlimit="10"/>
<path d="M97.3217 23.888V21.6186H96.3521V21.0708H97.3217V18.9791H97.9037V21.0708H98.8734V21.6186H97.9037V23.888H97.3217Z" fill="white" stroke="white" stroke-width="0.336446" stroke-miterlimit="10"/>
<path d="M100.605 20.3734L101.897 21.4611L100.605 22.5487L102.679 23.4798L102.383 24.0276L99.5127 22.7026L100.942 21.4611L99.5127 20.2196L102.383 18.8945L102.679 19.4423L100.605 20.3734Z" fill="white" stroke="white" stroke-width="0.336446" stroke-miterlimit="10"/>
<path d="M104.291 23.888V21.6186H103.32V21.0708H104.291V18.9791H104.873V21.0708H105.844V21.6186H104.873V23.888H104.291Z" fill="white" stroke="white" stroke-width="0.336446" stroke-miterlimit="10"/>
</svg>
