<svg width="59" height="63" viewBox="0 0 59 63" fill="none" xmlns="http://www.w3.org/2000/svg">
<path d="M32.7793 34.438V35.2487C33.9807 36.2907 34.7633 37.9949 34.7633 39.9238C34.7633 43.0978 32.642 45.6713 30.0265 45.6713C29.9716 45.6713 29.9166 45.6683 29.8627 45.6664C29.8127 45.6683 29.7617 45.6713 29.7117 45.6713C27.6875 45.6713 25.983 43.8821 25.4583 41.4405C25.3505 40.9619 25.2916 40.46 25.2906 39.9404C25.2906 39.9462 25.2906 39.9531 25.2906 39.9589C25.2906 43.5862 27.4659 46.5268 30.1481 46.5268C32.8313 46.5268 35.0055 43.5862 35.0055 39.9589C35.0045 37.6424 34.1189 35.6071 32.7793 34.438Z" fill="#9F2A2B"/>
<path d="M32.7786 34.438L33.9015 35.4478L33.4288 35.2457" fill="#9F2A2B"/>
<path d="M29.2732 35.605L30.0264 36.0894L29.5086 36.8239L28.7701 36.3395L29.2732 35.605Z" fill="#03694B"/>
<path d="M31.3422 37.0868C31.3383 37.1229 31.3373 37.1561 31.3363 37.1903C31.8767 37.5751 32.2876 38.1914 32.472 38.9228L32.8309 38.8906C32.6397 37.8495 32.1621 36.9618 31.5168 36.3885L31.403 36.743C31.3716 36.8817 31.351 36.996 31.3422 37.0868Z" fill="#03694B"/>
<path d="M32.8317 38.8905L32.4728 38.9227H32.4718C32.5424 39.1952 32.5816 39.4823 32.5816 39.7792C32.5816 41.253 31.646 42.4904 30.3809 42.841C30.1985 42.9054 30.0082 42.9396 29.8111 42.9396C29.7876 42.9396 29.7631 42.9386 29.7395 42.9367C29.7091 42.9377 29.6797 42.9396 29.6493 42.9396C28.0302 42.9396 26.717 41.5245 26.717 39.7792C26.717 39.6835 26.7219 39.5888 26.7297 39.495H26.7121C26.7023 39.6308 26.6974 39.7685 26.6974 39.9082C26.6974 42.2335 28.0919 44.1184 29.8111 44.1184C31.5313 44.1184 32.9249 42.2335 32.9249 39.9082C32.9239 39.5575 32.8915 39.2167 32.8317 38.8905Z" fill="#03694B"/>
<path d="M18.4056 13.1081C18.4066 13.0632 18.5458 12.7721 18.7165 12.4606C19.097 11.7623 18.9646 11.818 18.4929 12.5543C18.1771 13.0466 18.1339 13.0788 18.0476 12.8825C17.9231 12.6012 18.031 12.0406 18.2918 11.608C18.5488 11.1812 19.3304 10.7085 19.909 10.6304L20.3484 10.5708L20.3052 11.3375C20.2679 12.0045 20.2219 12.1461 19.9551 12.4284C19.4834 12.9264 18.3987 13.4021 18.4056 13.1081ZM15.741 14.3299C15.741 14.2459 15.8361 13.9529 15.9528 13.6784C16.2353 13.0134 16.0656 13.1364 15.7449 13.8298C15.6057 14.1296 15.4546 14.3758 15.4086 14.3758C15.2438 14.3758 15.183 13.5954 15.3124 13.153C15.4841 12.57 16.2019 11.8717 16.8649 11.6431C17.1454 11.5465 17.3906 11.482 17.4092 11.5015C17.4278 11.5201 17.4563 11.9039 17.471 12.3541C17.5033 13.3132 17.3719 13.5671 16.5472 14.1336C15.997 14.5096 15.741 14.5721 15.741 14.3299ZM20.0522 14.5877C19.8688 14.4734 19.6658 14.2605 19.6001 14.114L19.4804 13.8484L19.9149 14.0037C20.5759 14.24 20.6534 14.1863 20.0561 13.905L19.5236 13.655L19.8649 13.4753C20.2885 13.2526 21.0535 13.2429 21.3555 13.4567C21.5311 13.5818 22.1891 14.5828 22.1009 14.5906C22.0901 14.5916 21.89 14.6639 21.6556 14.7527C21.1437 14.9451 20.52 14.8807 20.0522 14.5877ZM21.2035 12.6168C21.0456 12.6168 20.8456 12.568 20.7593 12.5075L20.6004 12.3991L20.9397 12.3326C21.4566 12.2321 21.4928 12.1744 21.0064 12.2262L20.5729 12.2731L20.7514 12.0494C20.9731 11.7721 21.4879 11.4947 21.7557 11.5093C21.9116 11.5181 22.6491 11.8551 22.5912 11.8912C22.5844 11.8951 22.4696 12.0084 22.3372 12.1422C22.0469 12.4323 21.6056 12.6178 21.2035 12.6168ZM17.9319 15.5633C17.6936 15.4461 17.4337 15.2459 17.3562 15.118C17.2229 14.9012 17.2307 14.8895 17.4631 14.9461C17.6004 14.9793 17.9044 15.035 18.1388 15.0701C18.5135 15.1258 18.4939 15.1102 17.979 14.9393C17.6573 14.8328 17.3935 14.698 17.3935 14.6404C17.3935 14.4578 18.1241 14.1599 18.5654 14.1619C19.0362 14.1638 19.2755 14.325 19.7227 14.9422L20.0169 15.3485L19.5569 15.5594C18.9685 15.829 18.4762 15.8309 17.9319 15.5633ZM13.1412 15.8026C13.1814 15.5799 13.2814 15.2049 13.3628 14.9686C13.4471 14.7244 13.4619 14.5887 13.3961 14.6551C13.3324 14.7195 13.1657 15.1063 13.0245 15.5145L12.7675 16.2577L12.6028 15.8583C12.3713 15.2977 12.3958 14.9315 12.7097 14.2966C12.9941 13.7195 13.4628 13.2849 14.0856 13.0221C14.5495 12.8258 14.5583 12.8268 14.5426 13.0544C14.5357 13.1579 14.5916 13.4958 14.6652 13.8044C14.8711 14.6619 14.676 15.1092 13.7708 15.8573C13.199 16.33 13.047 16.3173 13.1412 15.8026ZM15.6302 16.6894C15.4772 16.6093 15.2879 16.4657 15.2105 16.371C15.081 16.2138 15.1359 16.203 15.8038 16.2538L16.5403 16.3105L15.8558 16.1503C15.4801 16.0624 15.1536 15.9706 15.13 15.9481C15.1075 15.9247 15.2428 15.7958 15.4321 15.66C15.6518 15.5018 15.9813 15.3954 16.352 15.3651C16.9149 15.3182 16.9414 15.3289 17.4004 15.7841C17.6593 16.0409 17.8711 16.2792 17.8711 16.3134C17.8711 16.4013 17.266 16.7529 16.9286 16.8593C16.5923 16.9668 16.0146 16.8906 15.6302 16.6894ZM10.6649 17.5352C10.7031 17.081 10.71 16.7333 10.6806 16.7626C10.6512 16.7929 10.5364 17.1767 10.4266 17.6162L10.2265 18.4151L9.98918 17.8887C9.55277 16.9189 9.95388 15.8339 11.0425 15.0389C11.5779 14.6473 11.6927 14.6209 11.6927 14.8856C11.6927 14.9891 11.7888 15.3289 11.9055 15.6415C12.1713 16.3486 12.1703 16.4599 11.8986 17.0283C11.6731 17.499 10.9012 18.3614 10.7051 18.3614C10.6335 18.3624 10.6198 18.0752 10.6649 17.5352ZM13.3971 18.0635L13.1304 17.8848L13.71 17.7979C14.4877 17.6817 14.521 17.6074 13.7943 17.6074C13.4658 17.6074 13.1696 17.5635 13.1372 17.5098C13.0421 17.3545 13.6855 16.8701 14.1611 16.7412C14.673 16.6015 14.979 16.7021 15.5017 17.1806C15.9185 17.5615 15.9293 17.6572 15.5812 17.8887C14.8417 18.377 13.9659 18.4473 13.3971 18.0635ZM11.472 19.7795L11.2288 19.5802L11.8604 19.5011C12.8842 19.3732 12.9892 19.2531 12.0271 19.3097C11.1474 19.3615 11.1386 19.3595 11.2582 19.1339C11.3239 19.0089 11.5563 18.7843 11.7741 18.6348C12.3291 18.253 12.8675 18.2735 13.5276 18.7013L14.0483 19.0392L13.7629 19.34C13.3491 19.7775 12.8862 19.9738 12.2644 19.9767C11.8868 19.9777 11.6397 19.9162 11.472 19.7795ZM7.4727 20.2346C7.1471 19.3693 7.46485 18.3145 8.29943 17.4951C8.53872 17.2607 8.76428 17.0713 8.80155 17.0752C8.95748 17.0898 9.56846 18.5509 9.56356 18.9015C9.55767 19.3947 9.14087 20.2756 8.728 20.6672L8.40044 20.9778L8.32983 20.6936C8.2906 20.5373 8.27687 20.0471 8.29943 19.6056C8.32689 19.0519 8.30727 18.8595 8.23666 18.9864C8.17978 19.088 8.1131 19.5968 8.08858 20.1183C8.04445 21.0305 8.03562 21.0588 7.84732 20.886C7.73945 20.7873 7.57175 20.4944 7.4727 20.2346ZM9.72832 21.7982C9.59984 21.681 9.59788 21.6819 10.4138 21.4026C10.8277 21.261 10.9562 21.1887 10.7335 21.2229C9.23796 21.4544 9.19383 21.429 9.87542 20.7395C10.458 20.1506 10.9061 20.0773 11.6544 20.4484C11.9682 20.6047 12.2252 20.7883 12.2252 20.8567C12.2252 21.1213 11.3788 21.7972 10.9228 21.8968C10.4462 21.9993 9.89798 21.9544 9.72832 21.7982ZM5.44754 23.5571C4.86893 22.7006 5.14254 21.1135 6.01243 20.2785L6.31841 19.9845L6.82151 20.6506C7.27165 21.2464 7.32461 21.3762 7.32461 21.8743C7.32461 22.18 7.25694 22.6254 7.17358 22.8627C7.01471 23.3178 6.57045 24.0708 6.45963 24.0727C6.34881 24.0747 6.15169 22.8851 6.15071 22.1966C6.14972 21.7337 6.11834 21.5882 6.04577 21.7034C5.9173 21.9046 5.9124 23.2348 6.03792 23.7846C6.13109 24.188 6.12815 24.1929 5.90259 24.0434C5.77608 23.9585 5.57209 23.7407 5.44754 23.5571ZM8.2298 24.0776C8.01601 23.9887 8.01601 23.9887 8.2298 23.9057C8.78586 23.6889 9.5616 23.3256 9.5616 23.2826C9.5616 23.2563 9.21443 23.3461 8.7888 23.4828C8.36416 23.6196 8.00228 23.6899 7.98364 23.6401C7.91892 23.4614 8.28864 22.8939 8.65346 22.6127C9.09086 22.2757 9.52139 22.2484 10.201 22.517C10.4648 22.6215 10.6963 22.7181 10.7149 22.7328C10.7855 22.7865 10.4256 23.3793 10.1834 23.6078C9.67045 24.0952 8.78194 24.3071 8.2298 24.0776ZM6.96175 26.5651C6.7813 26.4938 6.79405 26.4704 7.07159 26.3541C7.40307 26.2155 8.38279 25.5846 8.26805 25.5836C8.23078 25.5836 7.88067 25.734 7.49035 25.9186C7.10003 26.1031 6.7509 26.2252 6.71559 26.1891C6.59497 26.067 7.03824 25.2505 7.39914 24.9302C7.79829 24.5757 8.12977 24.5386 8.94473 24.7554L9.44685 24.8892L9.19677 25.4351C8.78292 26.3395 7.7316 26.8708 6.96175 26.5651ZM3.77054 27.0905C3.4116 26.6588 3.23899 25.9899 3.30862 25.3013C3.37139 24.6782 3.73523 23.7436 4.01375 23.4887C4.18537 23.3305 4.24618 23.3676 4.84049 23.9936C5.56425 24.7564 5.71822 25.2486 5.51717 26.1569C5.37889 26.779 5.08958 27.5232 4.98465 27.5232C4.85814 27.5232 4.54137 26.7331 4.32562 25.8834L4.12653 25.0982L4.18734 25.7838C4.22068 26.1608 4.33542 26.7536 4.44232 27.1003L4.6365 27.7312L4.34229 27.5769C4.17949 27.4919 3.92255 27.2731 3.77054 27.0905ZM6.19582 28.9989C6.36646 28.869 6.63027 28.6512 6.7813 28.5144C7.00294 28.3162 6.93429 28.3347 6.43903 28.6082C6.09971 28.7967 5.79275 28.9197 5.75646 28.8836C5.60838 28.7332 5.98595 27.8796 6.37725 27.4851L6.79307 27.0641L7.5639 27.1413C7.98855 27.1833 8.34552 27.2282 8.35827 27.2419C8.372 27.2546 8.33473 27.4382 8.27785 27.6501C8.02091 28.5926 7.23242 29.2479 6.3645 29.2401L5.88494 29.2362L6.19582 28.9989ZM2.90458 31.3047C2.72903 31.2041 2.44168 30.8867 2.26516 30.5976C1.97291 30.119 1.94447 29.9901 1.94643 29.1473C1.94839 28.4119 1.99938 28.1072 2.19945 27.657C2.42305 27.153 2.63684 26.9225 2.63684 27.1872C2.63684 27.2399 2.92027 27.4694 3.26645 27.696C4.05298 28.2117 4.25108 28.5457 4.31679 29.4667C4.3668 30.1737 4.19812 31.2383 4.01669 31.3516C3.91666 31.4141 3.45867 30.6738 3.08404 29.8436C2.70059 28.994 2.90752 29.8026 3.3253 30.7871C3.6656 31.5879 3.67051 31.6231 3.45181 31.5576C3.32628 31.5186 3.07914 31.4053 2.90458 31.3047ZM5.99576 31.3896L6.63125 30.7294L5.94378 31.2812C5.56621 31.585 5.21315 31.833 5.15921 31.833C5.03074 31.833 5.17196 30.8916 5.35241 30.541C5.65839 29.9452 5.96633 29.7743 6.77738 29.744L7.53644 29.7157V30.0937C7.53644 31.0283 6.59595 32.0479 5.73489 32.0479H5.35928L5.99576 31.3896ZM5.51325 34.5012C6.11442 33.7267 6.10952 33.6984 5.48089 34.3088L4.87383 34.8977L4.87579 34.2551C4.87873 33.1808 5.40733 32.4864 6.22524 32.4825C6.41157 32.4815 6.68715 32.4337 6.83818 32.376C7.10984 32.2715 7.1118 32.2735 7.10885 32.8341C7.10493 33.8068 6.48611 34.7512 5.74469 34.9153C5.58876 34.9504 5.41224 34.9924 5.35339 35.0081C5.12979 35.0696 5.17 34.9436 5.51325 34.5012ZM2.49366 35.5657C1.74048 35.2473 1.0383 33.9787 1.0383 32.9366C1.0383 32.5196 1.22463 31.6192 1.35506 31.4072C1.43842 31.2705 1.47765 31.2734 1.64437 31.4248C1.75029 31.5205 2.10432 31.7188 2.43089 31.8643C3.12719 32.1739 3.42925 32.5225 3.64893 33.2697C3.81957 33.8508 3.86272 35.138 3.71758 35.3684C3.60872 35.5413 2.9134 34.8069 2.48189 34.0637C2.32106 33.7863 2.16905 33.5587 2.14453 33.5587C2.05823 33.5587 2.6643 34.6946 3.02128 35.2024L3.3812 35.7142H3.1115C2.9644 35.7132 2.68588 35.6468 2.49366 35.5657ZM5.48677 37.6801C5.59759 37.517 5.79667 37.1899 5.92907 36.9525L6.17032 36.5218L5.92122 36.8451C5.40145 37.52 5.10135 37.812 5.01505 37.7251C4.83264 37.5395 4.91894 36.3207 5.14352 35.929C5.32593 35.6106 5.4799 35.513 6.136 35.2991C6.5626 35.1594 6.93625 35.0706 6.96665 35.1018C7.09611 35.2327 7.12258 36.0228 7.01177 36.4388C6.82053 37.1576 6.00458 37.976 5.47794 37.977C5.29357 37.976 5.29455 37.9634 5.48677 37.6801ZM2.40932 39.8531C1.95427 39.6178 1.27759 38.7564 1.07654 38.1557C0.893151 37.6088 0.804887 36.0208 0.949051 35.8753C0.987298 35.8362 1.155 35.8743 1.32172 35.9603C1.48844 36.0452 1.88072 36.1761 2.19553 36.2513C2.90359 36.4193 3.391 36.8383 3.68521 37.5297C3.92451 38.0932 4.20401 39.5533 4.09319 39.6646C3.98433 39.775 3.19879 39.1695 2.61036 38.523C1.94545 37.7915 2.04156 37.9917 2.83004 38.9781C3.15171 39.3804 3.51065 39.7613 3.62637 39.8248C3.79702 39.9176 3.80976 39.9576 3.69012 40.0367C3.51065 40.1549 2.79376 40.0524 2.40932 39.8531ZM6.20857 40.2965C6.35862 39.9547 6.46649 39.6598 6.44786 39.6412C6.43021 39.6236 6.25172 39.8942 6.05263 40.2428C5.85355 40.5915 5.65447 40.8552 5.61132 40.8278C5.45931 40.7331 5.2818 39.7047 5.35634 39.356C5.5005 38.6792 5.69076 38.4517 6.38608 38.1323C6.7558 37.9624 7.08532 37.8081 7.11964 37.7895C7.21575 37.7368 7.43053 38.5503 7.42954 38.9595C7.42856 39.4635 6.98529 40.3795 6.61752 40.6403C6.32135 40.8503 6.02223 40.989 5.96437 40.9431C5.94966 40.9294 6.0595 40.6393 6.20857 40.2965ZM7.11964 43.2303C7.40601 42.2781 7.36286 42.1023 7.04707 42.9334C6.90095 43.3182 6.73619 43.6786 6.68127 43.7343C6.62046 43.7958 6.49493 43.6356 6.35469 43.3143C6.02027 42.5496 6.10363 41.7078 6.55181 41.3259C6.92742 41.0065 7.61784 40.5622 7.73945 40.5622C8.03366 40.5622 8.25628 41.906 8.07485 42.5887C7.95814 43.0243 7.24909 43.9032 7.01373 43.9032C6.96077 43.9042 7.00882 43.6005 7.11964 43.2303ZM3.15564 44.2187C2.25241 43.7548 1.50511 42.4676 1.38448 41.1647C1.32956 40.57 1.33937 40.5329 1.52865 40.6071C1.64045 40.651 2.09157 40.7253 2.53191 40.7702C2.97224 40.8161 3.47927 40.9304 3.65972 41.0241C4.27462 41.3454 5.03467 42.6199 5.15921 43.536L5.22884 44.0507L4.59923 43.6962C4.25304 43.5018 3.68227 43.1258 3.3302 42.8621L2.69078 42.3816L3.31059 42.9823C3.65089 43.3124 4.17557 43.7499 4.47468 43.954C4.82283 44.1903 4.96503 44.3427 4.86696 44.3749C4.7836 44.4023 4.64238 44.4492 4.5551 44.4804C4.3011 44.5712 3.57734 44.4355 3.15564 44.2187ZM8.4789 45.8311C8.57795 45.0097 8.55833 44.7216 8.43869 45.2656C8.40142 45.4356 8.29845 45.8399 8.21018 46.1651C8.05818 46.7247 8.0415 46.7442 7.88851 46.5421C7.58351 46.1387 7.32853 45.4658 7.32657 45.0566C7.32363 44.4882 7.56194 44.079 8.1229 43.6874C8.38671 43.5038 8.60247 43.3045 8.60247 43.245C8.60247 43.0116 8.8496 43.3094 9.09184 43.8358C9.38703 44.4765 9.41939 45.1406 9.18304 45.7119C9.02613 46.0919 8.50146 46.7472 8.42006 46.6651C8.39946 46.6446 8.42594 46.2686 8.4789 45.8311ZM4.60708 48.4397C3.72248 47.9396 2.9997 46.8683 2.70941 45.628L2.64567 45.3584L3.80976 45.3271C5.15725 45.292 5.32691 45.3516 6.09186 46.1338C6.56849 46.6212 7.26675 47.801 7.19516 47.9982C7.1471 48.1311 5.72018 47.6447 5.01015 47.2531C4.43742 46.9366 4.41584 46.9327 4.71201 47.1906C4.88756 47.3449 5.51129 47.7101 6.09677 48.0031C6.68225 48.2961 7.13729 48.5373 7.10885 48.5383C7.07943 48.5393 6.86466 48.6125 6.63027 48.7004C6.05558 48.9192 5.27592 48.8186 4.60708 48.4397ZM10.0539 48.1076C10.0029 48.552 9.9274 49.0081 9.88621 49.1194C9.8156 49.3128 9.79893 49.3099 9.56748 49.0657C9.20462 48.6819 8.92708 48.0051 8.92512 47.4923C8.92316 47.0978 8.99475 46.9571 9.48216 46.3985C10.0117 45.791 10.0519 45.7666 10.2393 45.9346C11.0081 46.627 11.1376 48.2033 10.4942 49.0335L10.255 49.3421L10.202 48.3195L10.149 47.297L10.0539 48.1076ZM11.1905 50.8949C11.0258 50.643 10.8963 50.2679 10.8689 49.9642C10.8277 49.5003 10.865 49.3948 11.2984 48.7776L11.7741 48.1008L12.0977 48.3762C12.8254 48.9954 13.1323 50.3998 12.7165 51.2104C12.5116 51.6098 12.3331 51.5795 12.3262 51.1459C12.3233 50.9867 12.2536 50.5648 12.1703 50.2093L12.0192 49.5628L12.081 50.684L12.1428 51.8051L11.8045 51.562C11.6191 51.4262 11.3426 51.1274 11.1905 50.8949ZM7.1373 52.5835C6.44296 52.2563 5.61818 51.436 5.25532 50.7113C4.91894 50.0394 4.91404 49.9398 5.22002 49.9398C5.35241 49.9398 5.79569 49.8411 6.20563 49.72C7.17358 49.4339 7.63451 49.5042 8.48086 50.0628C9.05948 50.4457 9.98722 51.4633 9.98722 51.7163C9.98722 51.8794 8.44261 51.6792 7.64334 51.4116C7.20398 51.2651 6.83132 51.1576 6.81562 51.1733C6.79993 51.1889 7.12749 51.3569 7.54429 51.5454C8.30924 51.8911 9.33113 52.2036 9.69889 52.2036C9.99801 52.2036 9.86463 52.4478 9.44783 52.6616C8.89079 52.9468 7.83458 52.9117 7.1373 52.5835ZM14.0669 53.5064C13.8316 53.3345 13.5433 53.0308 13.4256 52.8326C13.0392 52.1831 13.0382 51.9311 13.4138 51.0893C13.6031 50.6644 13.7718 50.2972 13.7894 50.2738C13.8061 50.2504 14.0101 50.3588 14.2425 50.514C15.0496 51.0541 15.5056 52.3208 15.2144 53.2115C15.1438 53.4273 15.0545 53.6021 15.0153 53.6021C14.9761 53.6012 14.8093 53.1597 14.6436 52.6216C14.3023 51.5063 14.1738 51.4067 14.3974 52.4292C14.7397 54.0035 14.7407 53.9996 14.0669 53.5064ZM16.8139 55.24C16.2549 54.8561 15.8724 54.2848 15.8724 53.8346C15.8724 53.5445 16.25 52.2388 16.3696 52.1138C16.4373 52.0434 17.1473 52.4585 17.4572 52.7495C17.9554 53.2174 18.2281 53.8561 18.2291 54.5622C18.231 55.5749 18.1016 55.572 17.6259 54.5485C17.3896 54.0406 17.1748 53.6471 17.1483 53.6744C17.1218 53.7018 17.215 54.0485 17.3562 54.446C17.8123 55.7292 17.8093 55.7039 17.5141 55.6179C17.3709 55.5759 17.0561 55.406 16.8139 55.24ZM10.0539 56.0965C9.04967 55.5964 7.76593 54.1422 8.32885 54.1422C8.41221 54.1422 8.88001 53.9449 9.36742 53.7037C10.1441 53.3199 10.3187 53.272 10.7747 53.3228C11.4759 53.4019 12.5292 53.9166 13.1235 54.4704C13.3912 54.7204 13.6109 54.9626 13.6109 55.0095C13.6109 55.1706 12.0349 55.2448 11.1513 55.1247C10.6678 55.0583 10.253 55.0241 10.2295 55.0485C10.1324 55.1462 11.8143 55.4577 12.7528 55.5163L13.759 55.5779L13.3452 55.9402C12.8077 56.41 12.4478 56.5145 11.5093 56.4725C10.9052 56.4451 10.5923 56.365 10.0539 56.0965ZM20.2454 56.7821C19.6266 56.4549 19.1597 55.8171 19.1597 55.2966C19.1597 54.5563 19.3883 53.6588 19.5775 53.6588C20.214 53.6588 21.2428 54.4635 21.5978 55.237C21.8076 55.6941 21.9028 56.8201 21.7312 56.8094C21.6831 56.8055 21.4673 56.5203 21.2506 56.1736C20.4896 54.9577 20.3032 54.8727 20.8927 56.0105L21.4752 57.1346L21.0398 57.0526C20.7995 57.0086 20.4425 56.8866 20.2454 56.7821ZM23.8426 57.8124C23.0345 57.3339 22.9688 57.1991 22.8992 55.8855L22.8364 54.6999L23.3356 54.7829C24.8037 55.0271 25.7707 55.9558 25.956 57.2967L26.0433 57.9267L25.1264 57.0155C23.9319 55.8279 23.8769 55.7888 24.4683 56.5399C25.2087 57.4794 25.6422 58.0878 25.6422 58.1874C25.6412 58.3798 24.3408 58.1083 23.8426 57.8124ZM13.9091 59.5772C13.454 59.3496 12.8823 58.9678 12.641 58.7304L12.1997 58.2968L12.5312 58.122C12.7136 58.0253 13.0961 57.7509 13.3824 57.5106C14.4004 56.657 15.0751 56.5174 16.4393 56.8768C17.1218 57.0565 18.4654 57.7108 18.4654 57.8642C18.4654 58.0761 17.1375 58.4169 15.3458 58.665L14.5946 58.7695L15.6351 58.7851C16.5844 58.7998 17.2611 58.7275 18.3379 58.499L18.7312 58.415L18.5115 58.7968C17.9966 59.6944 17.0346 60.1124 15.6478 60.0381C14.8966 59.9991 14.5936 59.919 13.9091 59.5772ZM19.098 62.7297C18.8234 62.6116 18.3673 62.3782 18.0839 62.2111L17.569 61.9055L18.1467 61.2912C18.4644 60.9523 18.9293 60.4444 19.1813 60.1622C19.4628 59.8457 19.8227 59.5967 20.1159 59.5137C20.9231 59.2871 22.652 59.3486 23.5719 59.6358C24.025 59.7774 24.3957 59.9141 24.3957 59.9405C24.3957 60.1592 22.2235 61.1935 20.9682 61.5724L20.3444 61.7599L20.9682 61.6887C21.7076 61.6037 23.3895 61.089 24.0652 60.7423C24.329 60.6065 24.5693 60.5216 24.5997 60.5519C24.6301 60.5821 24.5624 60.8429 24.4487 61.13C24.1878 61.7892 23.3366 62.5539 22.5618 62.8264C21.789 63.096 19.8247 63.0423 19.098 62.7297Z" fill="#DDBD57"/>
<path d="M41.0447 13.1081C41.0437 13.0632 40.9054 12.7721 40.7367 12.4606C40.3591 11.7623 40.4906 11.818 40.9584 12.5543C41.2712 13.0466 41.3143 13.0788 41.3997 12.8825C41.5232 12.6012 41.4163 12.0406 41.1574 11.608C40.9025 11.1812 40.1277 10.7085 39.555 10.6304L39.1195 10.5708L39.1617 11.3375C39.199 12.0045 39.2441 12.1461 39.5089 12.4284C39.9776 12.9264 41.0515 13.4021 41.0447 13.1081ZM43.6857 14.3299C43.6857 14.2459 43.5915 13.9529 43.4758 13.6784C43.1963 13.0134 43.364 13.1364 43.6818 13.8298C43.8191 14.1296 43.9691 14.3758 44.0152 14.3758C44.178 14.3758 44.2388 13.5954 44.1103 13.153C43.9407 12.57 43.2297 11.8717 42.5726 11.6431C42.2941 11.5465 42.0509 11.482 42.0332 11.5015C42.0146 11.5201 41.9871 11.9039 41.9714 12.3541C41.9391 13.3132 42.0695 13.5671 42.8874 14.1336C43.4317 14.5096 43.6857 14.5721 43.6857 14.3299ZM39.4137 14.5877C39.5952 14.4734 39.7972 14.2605 39.8619 14.114L39.9806 13.8484L39.5501 14.0037C38.895 14.24 38.8185 14.1863 39.4098 13.905L39.9374 13.655L39.5991 13.4753C39.1794 13.2526 38.4213 13.2429 38.1222 13.4567C37.9476 13.5818 37.2964 14.5828 37.3837 14.5906C37.3945 14.5916 37.5926 14.6639 37.825 14.7527C38.332 14.9451 38.9499 14.8807 39.4137 14.5877ZM38.2722 12.6168C38.4281 12.6168 38.6262 12.568 38.7125 12.5075L38.8695 12.3991L38.5331 12.3326C38.0211 12.2321 37.9849 12.1744 38.4664 12.2262L38.8959 12.2731L38.7194 12.0494C38.4997 11.7721 37.9888 11.4947 37.725 11.5093C37.571 11.5181 36.8394 11.8551 36.8963 11.8912C36.9031 11.8951 37.0169 12.0084 37.1483 12.1422C37.4366 12.4323 37.874 12.6178 38.2722 12.6168ZM41.5144 15.5633C41.7508 15.4461 42.0077 15.2459 42.0852 15.118C42.2176 14.9012 42.2097 14.8895 41.9793 14.9461C41.8429 14.9793 41.5429 15.035 41.3104 15.0701C40.9387 15.1258 40.9584 15.1102 41.4693 14.9393C41.789 14.8328 42.0499 14.698 42.0499 14.6404C42.0499 14.4578 41.3261 14.1599 40.8887 14.1619C40.4219 14.1638 40.1856 14.325 39.7423 14.9422L39.45 15.3485L39.9051 15.5594C40.4876 15.829 40.975 15.8309 41.5144 15.5633ZM46.262 15.8026C46.2218 15.5799 46.1227 15.2049 46.0423 14.9686C45.959 14.7244 45.9443 14.5887 46.009 14.6551C46.0717 14.7195 46.2375 15.1063 46.3777 15.5145L46.6317 16.2577L46.7955 15.8583C47.025 15.2977 47.0005 14.9315 46.6896 14.2966C46.4081 13.7195 45.9433 13.2849 45.3254 13.0221C44.8655 12.8258 44.8576 12.8268 44.8723 13.0544C44.8792 13.1579 44.8243 13.4958 44.7507 13.8044C44.5468 14.6619 44.7399 15.1092 45.6373 15.8573C46.2051 16.33 46.3552 16.3173 46.262 15.8026ZM43.7955 16.6894C43.9466 16.6093 44.1339 16.4657 44.2114 16.371C44.3398 16.2138 44.2849 16.203 43.6229 16.2538L42.8933 16.3105L43.5719 16.1503C43.9446 16.0624 44.2682 15.9706 44.2908 15.9481C44.3133 15.9247 44.179 15.7958 43.9917 15.66C43.774 15.5018 43.4474 15.3954 43.0796 15.3651C42.5216 15.3182 42.4951 15.3289 42.0411 15.7841C41.7841 16.0409 41.5742 16.2792 41.5742 16.3134C41.5742 16.4013 42.1744 16.7529 42.5079 16.8593C42.8423 16.9668 43.414 16.8906 43.7955 16.6894ZM48.7157 17.5352C48.6775 17.081 48.6706 16.7333 48.7 16.7626C48.7295 16.7929 48.8422 17.1767 48.9521 17.6162L49.1502 18.4151L49.3855 17.8887C49.818 16.9189 49.4209 15.8339 48.3411 15.0389C47.8105 14.6473 47.6968 14.6209 47.6968 14.8856C47.6968 14.9891 47.6016 15.3289 47.4859 15.6415C47.2231 16.3486 47.2231 16.4599 47.4928 17.0283C47.7164 17.499 48.4813 18.3614 48.6755 18.3614C48.7471 18.3624 48.7608 18.0752 48.7157 17.5352ZM46.009 18.0635L46.2728 17.8848L45.6991 17.7979C44.9282 17.6817 44.8959 17.6074 45.6157 17.6074C45.9413 17.6074 46.2345 17.5635 46.2669 17.5098C46.362 17.3545 45.7236 16.8701 45.2529 16.7412C44.7449 16.6015 44.4418 16.7021 43.924 17.1806C43.5111 17.5615 43.5003 17.6572 43.8455 17.8887C44.5772 18.377 45.4441 18.4473 46.009 18.0635ZM47.9155 19.7795L48.1567 19.5802L47.531 19.5011C46.516 19.3732 46.413 19.2531 47.3663 19.3097C48.2381 19.3615 48.2469 19.3595 48.1283 19.1339C48.0626 19.0089 47.8331 18.7843 47.6173 18.6348C47.0672 18.253 46.5337 18.2735 45.8795 18.7013L45.3637 19.0392L45.6461 19.34C46.0561 19.7775 46.515 19.9738 47.1319 19.9767C47.5055 19.9777 47.7497 19.9162 47.9155 19.7795ZM51.8785 20.2346C52.2011 19.3693 51.8863 18.3145 51.0586 17.4951C50.8213 17.2607 50.5977 17.0713 50.5614 17.0752C50.4065 17.0898 49.8014 18.5509 49.8063 18.9015C49.8122 19.3947 50.226 20.2756 50.634 20.6672L50.9586 20.9778L51.0282 20.6936C51.0665 20.5373 51.0802 20.0471 51.0586 19.6056C51.0312 19.0519 51.0508 18.8595 51.1204 18.9864C51.1763 19.088 51.243 19.5968 51.2675 20.1183C51.3107 21.0305 51.3195 21.0588 51.5068 20.886C51.6147 20.7873 51.7814 20.4944 51.8785 20.2346ZM49.6435 21.7982C49.77 21.681 49.7729 21.6819 48.9638 21.4026C48.5539 21.261 48.4264 21.1887 48.6471 21.2229C50.1289 21.4544 50.173 21.429 49.4973 20.7395C48.9207 20.1506 48.4764 20.0773 47.734 20.4484C47.4232 20.6047 47.1692 20.7883 47.1692 20.8567C47.1692 21.1213 48.0086 21.7972 48.4598 21.8968C48.9334 21.9993 49.4758 21.9544 49.6435 21.7982ZM53.886 23.5571C54.4587 22.7006 54.1881 21.1135 53.326 20.2785L53.023 19.9845L52.5248 20.6506C52.0795 21.2464 52.0256 21.3762 52.0256 21.8743C52.0256 22.18 52.0933 22.6254 52.1747 22.8627C52.3316 23.3178 52.7719 24.0708 52.8818 24.0727C52.9916 24.0747 53.1868 22.8851 53.1877 22.1966C53.1887 21.7337 53.2191 21.5882 53.2917 21.7034C53.4192 21.9046 53.4241 23.2348 53.2995 23.7846C53.2073 24.188 53.2103 24.1929 53.4339 24.0434C53.5604 23.9585 53.7634 23.7407 53.886 23.5571ZM51.1292 24.0776C51.3411 23.9887 51.3411 23.9887 51.1292 23.9057C50.5791 23.6889 49.8102 23.3256 49.8102 23.2826C49.8102 23.2563 50.1544 23.3461 50.5761 23.4828C50.9968 23.6196 51.3558 23.6899 51.3744 23.6401C51.4382 23.4614 51.0724 22.8939 50.7115 22.6127C50.278 22.2757 49.8514 22.2484 49.1776 22.517C48.9168 22.6215 48.6873 22.7181 48.6686 22.7328C48.599 22.7865 48.955 23.3793 49.1953 23.6078C49.7013 24.0952 50.582 24.3071 51.1292 24.0776ZM52.3855 26.5651C52.564 26.4938 52.5522 26.4704 52.2767 26.3541C51.9481 26.2155 50.9772 25.5846 51.091 25.5836C51.1283 25.5836 51.4744 25.734 51.8618 25.9186C52.2492 26.1031 52.5944 26.2252 52.6287 26.1891C52.7484 26.067 52.309 25.2505 51.952 24.9302C51.5568 24.5757 51.2283 24.5386 50.4212 24.7554L49.924 24.8892L50.1711 25.4351C50.581 26.3395 51.6225 26.8708 52.3855 26.5651ZM55.5483 27.0905C55.9043 26.6588 56.0759 25.9899 56.0063 25.3013C55.9435 24.6782 55.5826 23.7436 55.307 23.4887C55.1364 23.3305 55.0766 23.3676 54.4881 23.9936C53.7713 24.7564 53.6183 25.2486 53.8173 26.1569C53.9537 26.779 54.241 27.5232 54.345 27.5232C54.4695 27.5232 54.7843 26.7331 54.9981 25.8834L55.1952 25.0982L55.1354 25.7838C55.103 26.1608 54.9893 26.7536 54.8834 27.1003L54.6912 27.7312L54.9834 27.5769C55.1423 27.4919 55.3973 27.2731 55.5483 27.0905ZM53.1436 28.9989C52.9749 28.869 52.7131 28.6512 52.563 28.5144C52.3443 28.3162 52.411 28.3347 52.9014 28.6082C53.2378 28.7967 53.5418 28.9197 53.5781 28.8836C53.7252 28.7332 53.3505 27.8796 52.9632 27.4851L52.5513 27.0641L51.7873 27.1413C51.3666 27.1833 51.0125 27.2282 50.9998 27.2419C50.9861 27.2546 51.0223 27.4382 51.0802 27.6501C51.3352 28.5926 52.1168 29.2479 52.9769 29.2401L53.4515 29.2362L53.1436 28.9989ZM56.4064 31.3047C56.58 31.2041 56.8654 30.8867 57.0399 30.5976C57.3293 30.119 57.3577 29.9901 57.3557 29.1473C57.3538 28.4119 57.3028 28.1072 57.1056 27.657C56.884 27.153 56.6722 26.9225 56.6722 27.1872C56.6722 27.2399 56.3917 27.4694 56.0484 27.696C55.2688 28.2117 55.0726 28.5457 55.0079 29.4667C54.9589 30.1737 55.1256 31.2383 55.3051 31.3516C55.4041 31.4141 55.8582 30.6738 56.2299 29.8436C56.6094 28.994 56.4044 29.8026 55.9906 30.7871C55.6532 31.5879 55.6483 31.6231 55.8651 31.5576C55.9886 31.5186 56.2328 31.4053 56.4064 31.3047ZM53.3427 31.3896L52.7131 30.7294L53.3937 31.2812C53.7683 31.585 54.1174 31.833 54.1704 31.833C54.2969 31.833 54.1577 30.8916 53.9792 30.541C53.6761 29.9452 53.3711 29.7743 52.5669 29.744L51.8147 29.7157V30.0937C51.8147 31.0283 52.7464 32.0479 53.6006 32.0479H53.9733L53.3427 31.3896ZM53.8213 34.5012C53.226 33.7267 53.2299 33.6984 53.8536 34.3088L54.4548 34.8977L54.4528 34.2551C54.4499 33.1808 53.9262 32.4864 53.1152 32.4825C52.9298 32.4815 52.6572 32.4337 52.5081 32.376C52.2384 32.2715 52.2374 32.2735 52.2394 32.8341C52.2433 33.8068 52.8572 34.7512 53.5918 34.9153C53.7467 34.9504 53.9213 34.9924 53.9792 35.0081C54.2008 35.0696 54.1616 34.9436 53.8213 34.5012ZM56.8134 35.5657C57.5597 35.2473 58.255 33.9787 58.255 32.9366C58.255 32.5196 58.0707 31.6192 57.9412 31.4072C57.8579 31.2705 57.8206 31.2734 57.6539 31.4248C57.5489 31.5205 57.1978 31.7188 56.8742 31.8643C56.1838 32.1739 55.8847 32.5225 55.6679 33.2697C55.4983 33.8508 55.4561 35.138 55.5993 35.3684C55.7072 35.5413 56.3966 34.8069 56.8232 34.0637C56.9821 33.7863 57.1331 33.5587 57.1576 33.5587C57.2429 33.5587 56.6428 34.6946 56.2887 35.2024L55.9317 35.7142H56.1985C56.3476 35.7132 56.6231 35.6468 56.8134 35.5657ZM53.8468 37.6801C53.7369 37.517 53.5398 37.1899 53.4084 36.9525L53.1691 36.5218L53.4162 36.8451C53.9311 37.52 54.2283 37.812 54.3136 37.7251C54.495 37.5395 54.4087 36.3207 54.1861 35.929C54.0047 35.6106 53.8536 35.513 53.2034 35.2991C52.7807 35.1594 52.41 35.0706 52.3796 35.1018C52.2512 35.2327 52.2247 36.0228 52.3345 36.4388C52.5238 37.1576 53.3329 37.976 53.8536 37.977C54.038 37.976 54.038 37.9634 53.8468 37.6801ZM56.8968 39.8531C57.3479 39.6178 58.0187 38.7564 58.2178 38.1557C58.3992 37.6088 58.4875 36.0208 58.3443 35.8753C58.306 35.8362 58.1403 35.8743 57.9746 35.9603C57.8098 36.0452 57.4205 36.1761 57.1086 36.2513C56.4074 36.4193 55.9239 36.8383 55.6326 37.5297C55.3953 38.0932 55.1187 39.5533 55.2286 39.6646C55.3365 39.775 56.1151 39.1695 56.6987 38.523C57.3577 37.7915 57.2626 37.9917 56.4809 38.9781C56.1622 39.3804 55.8062 39.7613 55.6915 39.8248C55.5218 39.9176 55.51 39.9576 55.6287 40.0367C55.8052 40.1549 56.5153 40.0524 56.8968 39.8531ZM53.1318 40.2965C52.9837 39.9547 52.8769 39.6598 52.8945 39.6412C52.9122 39.6236 53.0887 39.8942 53.2868 40.2428C53.4849 40.5915 53.681 40.8552 53.7232 40.8278C53.8732 40.7331 54.0498 39.7047 53.9762 39.356C53.833 38.6792 53.6447 38.4517 52.9563 38.1323C52.5905 37.9624 52.2629 37.8081 52.2296 37.7895C52.1345 37.7368 51.9216 38.5503 51.9226 38.9595C51.9236 39.4635 52.363 40.3795 52.7278 40.6403C53.021 40.8503 53.3182 40.989 53.375 40.9431C53.3888 40.9294 53.2799 40.6393 53.1318 40.2965ZM52.2286 43.2303C51.9452 42.2781 51.9874 42.1023 52.3002 42.9334C52.4453 43.3182 52.6081 43.6786 52.6621 43.7343C52.7229 43.7958 52.8465 43.6356 52.9857 43.3143C53.3172 42.5496 53.2348 41.7078 52.7896 41.3259C52.4179 41.0065 51.7334 40.5622 51.6127 40.5622C51.3205 40.5622 51.1008 41.906 51.2803 42.5887C51.395 43.0243 52.0982 43.9032 52.3326 43.9032C52.3865 43.9042 52.3384 43.6005 52.2286 43.2303ZM56.1573 44.2187C57.0527 43.7548 57.7931 42.4676 57.9128 41.1647C57.9677 40.57 57.9579 40.5329 57.7706 40.6071C57.6597 40.651 57.2125 40.7253 56.7771 40.7702C56.3417 40.8151 55.8376 40.9304 55.6591 41.0241C55.0501 41.3454 54.2969 42.6199 54.1733 43.536L54.1047 44.0507L54.7284 43.6962C55.0717 43.5018 55.6375 43.1258 55.9857 42.8621L56.6192 42.3816L56.0053 42.9823C55.6679 43.3124 55.1482 43.7499 54.851 43.954C54.5068 44.1903 54.3656 44.3427 54.4617 44.3749C54.545 44.4023 54.6843 44.4492 54.7706 44.4804C55.0226 44.5712 55.7386 44.4355 56.1573 44.2187ZM50.8821 45.8311C50.784 45.0097 50.8036 44.7216 50.9213 45.2656C50.9586 45.4356 51.0606 45.8399 51.1479 46.1651C51.2989 46.7247 51.3156 46.7442 51.4666 46.5421C51.7687 46.1387 52.0207 45.4658 52.0236 45.0566C52.0266 44.4882 51.7902 44.079 51.2342 43.6874C50.9733 43.5038 50.7595 43.3045 50.7595 43.245C50.7595 43.0116 50.5143 43.3094 50.275 43.8358C49.9828 44.4765 49.9504 45.1406 50.1848 45.7119C50.3398 46.0919 50.8595 46.7472 50.9409 46.6651C50.9606 46.6446 50.9341 46.2686 50.8821 45.8311ZM54.7186 48.4397C55.5954 47.9396 56.3113 46.8683 56.5986 45.628L56.6614 45.3584L55.5071 45.3271C54.1714 45.292 54.0037 45.3516 53.2456 46.1338C52.7729 46.6212 52.0815 47.801 52.1521 47.9982C52.2002 48.1311 53.6134 47.6447 54.3175 47.2531C54.8844 46.9366 54.9069 46.9327 54.6127 47.1906C54.4381 47.3449 53.8213 47.7101 53.2407 48.0031C52.6611 48.2961 52.209 48.5373 52.2374 48.5383C52.2659 48.5393 52.4797 48.6125 52.7121 48.7004C53.2829 48.9192 54.0557 48.8186 54.7186 48.4397ZM49.3208 48.1076C49.3718 48.552 49.4464 49.0081 49.4875 49.1194C49.5572 49.3128 49.5748 49.3099 49.8033 49.0657C50.1632 48.6819 50.4378 48.0051 50.4398 47.4923C50.4418 47.0978 50.3702 46.9571 49.8877 46.3985C49.363 45.791 49.3228 45.7666 49.1374 45.9346C48.3754 46.627 48.2469 48.2033 48.8854 49.0335L49.1227 49.3421L49.1757 48.3195L49.2286 47.297L49.3208 48.1076ZM48.195 50.8949C48.3587 50.643 48.4862 50.2679 48.5137 49.9642C48.5549 49.5003 48.5176 49.3948 48.0881 48.7776L47.6173 48.1008L47.2966 48.3762C46.5748 48.9954 46.2708 50.3998 46.6827 51.2104C46.8857 51.6098 47.0632 51.5795 47.0691 51.1459C47.0721 50.9867 47.1407 50.5648 47.2231 50.2093L47.3731 49.5628L47.3123 50.684L47.2506 51.8051L47.586 51.562C47.7703 51.4262 48.0449 51.1274 48.195 50.8949ZM52.211 52.5835C52.8994 52.2563 53.7163 51.436 54.0763 50.7113C54.4097 50.0394 54.4146 49.9398 54.1116 49.9398C53.9811 49.9398 53.5408 49.8411 53.1348 49.72C52.1756 49.4339 51.7186 49.5042 50.8801 50.0628C50.3064 50.4457 49.3875 51.4633 49.3875 51.7163C49.3875 51.8794 50.9184 51.6792 51.7098 51.4116C52.1452 51.2651 52.515 51.1576 52.5297 51.1733C52.5454 51.1889 52.2208 51.3569 51.8079 51.5454C51.0498 51.8911 50.0367 52.2036 49.6719 52.2036C49.3757 52.2036 49.5081 52.4478 49.92 52.6616C50.4731 52.9468 51.5205 52.9117 52.211 52.5835ZM45.3441 53.5064C45.5765 53.3345 45.8629 53.0308 45.9796 52.8326C46.362 52.1831 46.364 51.9311 45.9913 51.0893C45.803 50.6644 45.6363 50.2972 45.6196 50.2738C45.603 50.2504 45.4009 50.3588 45.1715 50.514C44.3722 51.0541 43.9201 52.3208 44.2084 53.2115C44.278 53.4273 44.3673 53.6021 44.4065 53.6021C44.4457 53.6012 44.6105 53.1597 44.7743 52.6216C45.1126 51.5063 45.2401 51.4067 45.0185 52.4292C44.6782 54.0035 44.6772 53.9996 45.3441 53.5064ZM42.6226 55.24C43.1767 54.8561 43.5553 54.2848 43.5553 53.8346C43.5553 53.5445 43.1816 52.2388 43.0629 52.1138C42.9963 52.0434 42.2921 52.4585 41.9852 52.7495C41.4909 53.2174 41.2212 53.8561 41.2212 54.5622C41.2192 55.5749 41.3477 55.572 41.8194 54.5485C42.0538 54.0406 42.2666 53.6471 42.2931 53.6744C42.3196 53.7018 42.2264 54.0485 42.0871 54.446C41.635 55.7292 41.638 55.7039 41.9312 55.6179C42.0705 55.5759 42.3823 55.406 42.6226 55.24ZM49.3218 56.0965C50.3162 55.5964 51.5892 54.1422 51.0312 54.1422C50.9488 54.1422 50.4849 53.9449 50.0014 53.7037C49.2326 53.3199 49.059 53.272 48.6069 53.3228C47.9125 53.4019 46.8681 53.9166 46.2797 54.4704C46.0139 54.7204 45.7971 54.9626 45.7971 55.0095C45.7971 55.1706 47.3594 55.2448 48.2342 55.1247C48.7138 55.0583 49.1247 55.0241 49.1482 55.0485C49.2443 55.1462 47.5781 55.4577 46.6474 55.5163L45.65 55.5779L46.06 55.9402C46.5925 56.41 46.9485 56.5145 47.8792 56.4725C48.4784 56.4451 48.7873 56.365 49.3218 56.0965ZM39.2225 56.7821C39.8364 56.4549 40.2983 55.8171 40.2983 55.2966C40.2983 54.5563 40.0718 53.6588 39.8845 53.6588C39.2539 53.6588 38.234 54.4635 37.8819 55.237C37.674 55.6941 37.5798 56.8201 37.7505 56.8094C37.7975 56.8055 38.0123 56.5203 38.2271 56.1736C38.9813 54.9577 39.1666 54.8727 38.5821 56.0105L38.0045 57.1346L38.436 57.0526C38.6733 57.0086 39.0273 56.8866 39.2225 56.7821ZM35.6576 57.8124C36.4589 57.3339 36.5236 57.1991 36.5923 55.8855L36.654 54.6999L36.1598 54.7829C34.7054 55.0271 33.7463 55.9558 33.5638 57.2967L33.4775 57.9267L34.3867 57.0155C35.5704 55.8279 35.6253 55.7888 35.0388 56.5399C34.3053 57.4794 33.8757 58.0878 33.8757 58.1874C33.8747 58.3798 35.1634 58.1083 35.6576 57.8124ZM45.501 59.5772C45.9521 59.3496 46.518 58.9678 46.7582 58.7304L47.1956 58.2968L46.8671 58.122C46.6866 58.0253 46.3071 57.7509 46.0237 57.5106C45.0145 56.657 44.3467 56.5174 42.9943 56.8768C42.3176 57.0565 40.9858 57.7108 40.9858 57.8642C40.9858 58.0761 42.3019 58.4169 44.077 58.665L44.8213 58.7695L43.7906 58.7851C42.8501 58.7998 42.1793 58.7275 41.1123 58.499L40.723 58.415L40.9407 58.7968C41.4507 59.6944 42.4049 60.1124 43.7779 60.0381C44.5232 59.9991 44.8233 59.919 45.501 59.5772ZM40.3591 62.7297C40.6308 62.6116 41.0839 62.3782 41.3644 62.2111L41.8753 61.9055L41.3026 61.2912C40.9878 60.9523 40.5268 60.4444 40.2777 60.1622C39.9992 59.8457 39.6422 59.5967 39.351 59.5137C38.5507 59.2871 36.8374 59.3486 35.9264 59.6358C35.4772 59.7774 35.1104 59.9141 35.1104 59.9405C35.1104 60.1592 37.2631 61.1935 38.5076 61.5724L39.1254 61.7599L38.5076 61.6887C37.775 61.6037 36.1078 61.089 35.438 60.7423C35.1771 60.6065 34.9378 60.5216 34.9084 60.5519C34.878 60.5821 34.9457 60.8429 35.0575 61.13C35.3164 61.7892 36.1598 62.5539 36.9277 62.8264C37.6916 63.096 39.6383 63.0423 40.3591 62.7297Z" fill="#DDBD57"/>
<path d="M29.8332 60.8655C30.7204 60.8655 31.4396 60.1379 31.4396 59.2404C31.4396 58.3429 30.7204 57.6153 29.8332 57.6153C28.946 57.6153 28.2268 58.3429 28.2268 59.2404C28.2268 60.1379 28.946 60.8655 29.8332 60.8655Z" fill="#DDBD57"/>
<path d="M36.2079 49.6787C36.1461 49.4208 35.9196 49.3027 35.6764 49.245C35.5528 49.2157 35.4234 49.206 35.2959 49.206C34.6064 49.203 33.917 49.205 33.2276 49.2079C33.1432 49.2079 33.1118 49.1864 33.0981 49.0956C33.0589 48.8427 32.8019 48.6405 32.4999 48.6229L29.7686 48.62L27.0374 48.6229C26.7353 48.6405 26.4784 48.8436 26.4391 49.0956C26.4254 49.1874 26.393 49.2089 26.3097 49.2079C25.6202 49.205 24.9308 49.203 24.2414 49.206C24.1139 49.207 23.9844 49.2157 23.8609 49.245C23.6177 49.3027 23.3911 49.4208 23.3293 49.6787C23.2734 49.9091 23.2852 50.1572 23.2734 50.3975C23.2705 50.4639 23.3293 50.458 23.3754 50.459C24.2551 50.4697 25.1348 50.4893 26.0135 50.4902C27.2649 50.4912 28.5163 50.4902 29.7686 50.4893C31.02 50.4902 32.2714 50.4912 33.5237 50.4902C34.4034 50.4893 35.2831 50.4697 36.1618 50.459C36.2079 50.458 36.2678 50.4639 36.2638 50.3975C36.2521 50.1572 36.2638 49.9091 36.2079 49.6787Z" fill="#DDBD57"/>
<path d="M47.7736 39.1549C47.7315 39.1393 47.7069 39.11 47.6903 39.0504C47.3215 37.7691 46.9479 36.4897 46.5762 35.2093C46.2378 34.0472 45.8995 32.884 45.5621 31.7218C45.2591 30.6768 44.957 29.6318 44.653 28.5868C44.3441 27.5262 44.0342 26.4656 43.7253 25.405C43.5027 24.6393 43.28 23.8736 43.0584 23.1089C43.0574 23.104 43.0564 23.1001 43.0545 23.0952C43.5654 23.022 43.9587 22.5854 43.9587 22.0561C43.9587 21.476 43.486 21.0052 42.9034 21.0052C42.3209 21.0052 41.8482 21.476 41.8482 22.0561C41.8482 22.0864 41.8502 22.1157 41.8531 22.145C41.8531 22.1489 41.8531 22.1528 41.8541 22.1557L41.8462 22.1518C41.8384 22.1586 41.8306 22.1645 41.8227 22.1674C41.7521 22.1899 41.6805 22.2104 41.6099 22.2289C41.145 22.35 40.6733 22.3862 40.1947 22.2758C39.8613 22.1987 39.5249 22.1254 39.2003 22.019C39.1866 22.0151 39.1738 22.0112 39.1601 22.0063C39.0718 21.976 38.9836 21.9438 38.8953 21.9125C38.3942 21.7367 37.7518 21.515 36.9005 21.2435C36.6799 21.1732 36.4632 21.1136 36.2484 21.0609C35.6678 20.9183 35.1117 20.8382 34.589 20.8031C33.2935 20.7171 32.2 20.9076 31.4282 21.1214C30.8937 21.2689 30.5132 21.4271 30.3288 21.5111L30.8624 19.6477L29.7826 17.8497L29.7816 17.8507L29.7806 17.8497L28.7009 19.6477L29.2344 21.5111C29.05 21.4271 28.6695 21.2689 28.135 21.1214C27.3632 20.9085 26.2697 20.7171 24.9742 20.8031C24.4515 20.8382 23.8954 20.9183 23.3149 21.0609C23.1011 21.1136 22.8833 21.1732 22.6627 21.2435C21.8114 21.515 21.1691 21.7367 20.6679 21.9125C20.5797 21.9447 20.4924 21.977 20.4031 22.0063C20.3904 22.0112 20.3767 22.0141 20.3629 22.019C20.0383 22.1254 19.7019 22.1987 19.3685 22.2758C18.8899 22.3862 18.4182 22.35 17.9533 22.2289C17.8817 22.2104 17.8111 22.1899 17.7405 22.1674C17.7327 22.1645 17.7248 22.1586 17.717 22.1518L17.7091 22.1557C17.7091 22.1518 17.7091 22.1479 17.7101 22.145C17.7131 22.1157 17.715 22.0864 17.715 22.0561C17.715 21.476 17.2423 21.0052 16.6598 21.0052C16.0773 21.0052 15.6046 21.476 15.6046 22.0561C15.6046 22.5854 15.9978 23.022 16.5088 23.0952C16.5078 23.1001 16.5068 23.104 16.5048 23.1089C16.2832 23.8746 16.0606 24.6402 15.838 25.405C15.529 26.4656 15.2182 27.5262 14.9102 28.5868C14.6062 29.6318 14.3041 30.6768 14.0011 31.7218C13.6637 32.884 13.3254 34.0472 12.9871 35.2093C12.6144 36.4897 12.2417 37.7691 11.873 39.0504C11.8563 39.11 11.8308 39.1393 11.7896 39.1549C11.3836 39.2155 10.955 39.2858 10.5029 39.3669C10.5029 39.3669 10.8913 39.7741 11.06 40.1833C11.2247 40.5818 12.5379 41.3035 16.3489 41.3387C16.4068 41.3397 16.4637 41.3397 16.5215 41.3397C16.5627 41.3397 16.6029 41.3406 16.6441 41.3406C16.699 41.3406 16.751 41.3397 16.8049 41.3397C16.8079 41.3397 16.8108 41.3397 16.8138 41.3397C20.7209 41.3192 22.0625 40.5867 22.2282 40.1833C22.3969 39.7741 22.7853 39.3669 22.7853 39.3669C22.3881 39.2956 22.0095 39.2331 21.6477 39.1774C21.6447 39.1696 21.6408 39.1628 21.6388 39.154C21.5084 38.7096 21.3731 38.2672 21.2407 37.8238C20.7993 36.354 20.359 34.8841 19.9177 33.4143C19.5843 32.3029 19.2498 31.1915 18.9154 30.0791C18.5212 28.7646 18.1279 27.45 17.7327 26.1355C17.4316 25.1315 17.1286 24.1275 16.8265 23.1235C16.8236 23.1138 16.8226 23.104 16.8206 23.0942C17.0815 23.0542 17.311 22.9194 17.4718 22.7261C17.4924 22.7016 17.512 22.6772 17.5307 22.6508C17.9622 22.9009 18.8007 23.2495 19.9775 23.1216C20.2864 23.0874 20.6189 23.022 20.9739 22.9116C23.36 22.1703 26.4315 21.3168 28.8499 23.315C28.8637 23.3452 28.8696 23.3853 28.8666 23.4156C28.8078 23.9322 28.8607 24.4283 29.1304 24.8834C29.1912 24.987 29.2648 25.0827 29.3374 25.1891C29.2922 25.2116 29.2471 25.2272 29.2128 25.2545C29.0745 25.3639 28.9284 25.4665 28.8068 25.5925C28.6881 25.7165 28.7176 25.8874 28.8558 25.989C28.9245 26.0388 29 26.0788 29.0735 26.1218C29.1775 26.1833 29.2373 26.3425 29.2373 26.4783C29.3589 26.4343 29.4815 26.3953 29.6061 26.365C29.8826 26.2966 30.1327 26.281 30.3583 26.3064C30.3857 26.2273 30.4308 26.1579 30.4916 26.1218C30.5652 26.0788 30.6407 26.0398 30.7094 25.989C30.8476 25.8874 30.8771 25.7175 30.7584 25.5925C30.6368 25.4665 30.4907 25.3639 30.3524 25.2545C30.3171 25.2272 30.2729 25.2126 30.2278 25.1891C30.3004 25.0827 30.374 24.987 30.4348 24.8834C30.7045 24.4283 30.7574 23.9322 30.6986 23.4156C30.6947 23.3843 30.7015 23.3452 30.7152 23.315C33.1327 21.3168 36.2052 22.1703 38.5913 22.9116C38.9463 23.022 39.2788 23.0884 39.5877 23.1216C40.7645 23.2495 41.603 22.9009 42.0345 22.6508C42.0522 22.6772 42.0728 22.7016 42.0934 22.7261C42.2542 22.9194 42.4837 23.0542 42.7446 23.0942C42.7426 23.104 42.7416 23.1148 42.7387 23.1235C42.4366 24.1275 42.1346 25.1315 41.8325 26.1355C41.4383 27.45 41.044 28.7646 40.6498 30.0791C40.3163 31.1905 39.9819 32.3019 39.6475 33.4143C39.2062 34.8841 38.7659 36.354 38.3245 37.8238C38.1912 38.2672 38.0568 38.7096 37.9264 39.154C37.9234 39.1628 37.9205 39.1696 37.9175 39.1774C37.5557 39.2331 37.1771 39.2956 36.7799 39.3669C36.7799 39.3669 37.1683 39.7741 37.337 40.1833C37.5037 40.5867 38.8443 41.3192 42.7514 41.3397C42.7544 41.3397 42.7573 41.3397 42.7593 41.3397C42.8132 41.3397 42.8652 41.3406 42.9201 41.3406C42.9623 41.3406 43.0015 41.3397 43.0427 41.3397C43.1006 41.3397 43.1574 41.3397 43.2153 41.3387C47.0253 41.3035 48.3395 40.5818 48.5042 40.1833C48.6729 39.7741 49.0613 39.3669 49.0613 39.3669C48.6082 39.2858 48.1796 39.2155 47.7736 39.1549ZM16.5411 38.7819C16.1508 38.7701 14.6248 38.7545 12.1603 39.1002C12.1319 39.1032 12.1044 39.1061 12.077 39.109C13.5617 34.0022 15.0446 28.9003 16.5284 23.7984C16.5333 23.8003 16.5372 23.8023 16.5421 23.8043V38.7819H16.5411ZM21.4064 39.1413C18.8222 38.7604 17.206 38.7692 16.7647 38.7809V23.7691L16.7912 23.7681C18.329 28.8876 19.8657 34.0071 21.4064 39.1413ZM29.7797 20.4964C29.5659 20.472 29.3972 20.1761 29.3972 19.8137C29.3972 19.4514 29.5659 19.1555 29.7797 19.1311C29.9934 19.1555 30.1621 19.4514 30.1621 19.8137C30.1621 20.1761 29.9934 20.472 29.7797 20.4964ZM42.7956 38.7809C42.3543 38.7692 40.738 38.7604 38.1539 39.1413C39.6956 34.0071 41.2323 28.8876 42.7681 23.7671L42.7946 23.7681V38.7809H42.7956ZM47.4 39.1002C44.9355 38.7545 43.4085 38.7701 43.0192 38.7819V23.8043C43.0231 23.8023 43.028 23.8003 43.0329 23.7984C44.5167 28.9003 45.9995 34.0022 47.4843 39.109C47.4559 39.1061 47.4284 39.1042 47.4 39.1002Z" fill="#DDBD57"/>
<path d="M29.8892 13.1776C28.2014 13.1805 26.6911 13.3934 25.6113 13.743C25.5349 13.7674 25.4937 13.8387 25.4956 13.9169C25.4907 13.9969 25.5329 14.0751 25.6113 14.1005C26.6901 14.4501 28.2004 14.665 29.8892 14.6679C31.577 14.665 33.0873 14.4501 34.167 14.1005C34.2455 14.0751 34.2867 13.9969 34.2827 13.9169C34.2837 13.8387 34.2435 13.7674 34.167 13.743C33.0873 13.3944 31.577 13.1805 29.8892 13.1776ZM29.8862 13.4744C31.4093 13.4774 32.7911 13.6561 33.8395 13.9481C32.7911 14.2392 31.4093 14.4286 29.8862 14.4306C28.3632 14.4286 26.9843 14.2392 25.936 13.9481C26.9843 13.6561 28.3632 13.4774 29.8862 13.4744Z" fill="#DDBD57"/>
<path d="M28.5163 4.95939C28.4486 4.72011 28.2623 4.3988 28.0515 4.28942C27.822 4.17125 27.4209 4.17808 27.2031 4.31872C27.0747 4.40173 26.9648 4.6244 26.957 4.78457C26.9501 4.91739 27.0354 5.09514 27.1208 5.19183C27.209 5.29144 27.3757 5.3979 27.5032 5.39594C27.6062 5.39399 27.7514 5.31488 27.8043 5.22113C27.8504 5.13811 27.8592 4.97697 27.8043 4.90079C27.7474 4.82168 27.5817 4.75918 27.5032 4.81387C27.4552 4.84805 27.5327 5.00431 27.4758 5.01799C27.4179 5.03166 27.3424 4.90079 27.3659 4.84317C27.4052 4.74551 27.5984 4.75527 27.6945 4.78457C27.7896 4.81387 27.9004 4.9213 27.9406 5.01799C28.0142 5.1928 28.0093 5.48091 27.9406 5.65866C27.8328 6.04833 27.6435 6.29249 27.2571 6.38625C27.16 6.4341 26.9972 6.46535 26.9011 6.41555C26.8481 6.3882 26.8089 6.30128 26.7912 6.24073C26.7697 6.16553 26.7177 5.98876 26.7912 5.97899C26.8844 5.96532 26.7942 6.24561 26.8736 6.29933C26.9933 6.38039 27.2404 6.32081 27.3385 6.21241C27.4189 6.12353 27.4277 5.92332 27.3934 5.80515C27.3571 5.68112 27.2335 5.53072 27.1198 5.48482C26.9805 5.42915 26.7628 5.477 26.6275 5.54341C26.4951 5.60787 26.3342 5.75339 26.2715 5.89305C26.2116 6.02782 26.2146 6.24268 26.244 6.3882C26.2734 6.53372 26.3529 6.73393 26.4627 6.82475C26.6559 6.98394 27.0109 7.03766 27.2561 7.02887C27.4709 7.02008 27.7631 6.92632 27.9396 6.79546C28.1466 6.6431 28.3712 6.34718 28.4594 6.09619C28.5742 5.77585 28.6085 5.28558 28.5163 4.95939Z" fill="#DDBD57"/>
<path d="M26.6487 7.30386C26.6555 7.2062 26.4407 7.5402 26.3652 7.31265C26.2632 6.77648 26.9429 6.79894 27.0105 7.20131C26.8605 7.93379 26.3407 8.16134 25.7248 8.21994C25.0815 8.31077 24.4038 8.25412 24.0017 8.86061C23.6134 10.016 24.2116 11.1782 25.1501 11.7719C25.2296 11.3071 25.6101 11.3989 25.6699 11.7133C25.667 12.0513 25.4296 12.1558 25.1501 12.1792C24.4784 11.9731 23.9066 11.517 23.3996 11.0141C22.2473 9.65559 22.5738 7.34683 24.4764 7.38004C25.003 7.41129 26.3535 7.99531 26.6487 7.30386Z" fill="#DDBD57"/>
<path d="M26.269 11.7589C25.6854 11.4982 25.5217 11.3263 25.3089 10.4532C25.2373 10.3194 25.148 10.168 25.0117 10.0977C24.8783 10.0635 24.7744 10.1563 24.6488 10.1905C24.5586 10.252 24.3674 10.3946 24.5037 10.0518C24.7606 9.78808 25.0421 9.71874 25.3304 9.94825C25.5158 10.1485 25.6599 10.3252 25.911 10.4082C26.0169 10.462 26.1915 10.3418 26.2749 10.291C26.3562 10.3682 26.2317 10.5411 26.064 10.5899C25.8786 10.6817 25.6913 10.5069 25.5423 10.5586C25.7296 11.1563 26.0346 11.4855 26.4759 11.5968C26.7976 11.8214 26.4749 11.8234 26.269 11.7589Z" fill="#DDBD57"/>
<path d="M27.3838 11.4881C26.8405 11.1434 26.7013 10.9481 26.6061 10.0515C26.5532 9.90892 26.4845 9.74484 26.359 9.65499C26.2315 9.60128 26.1158 9.67746 25.9873 9.69211C25.8902 9.73898 25.6813 9.8513 25.8618 9.53291C26.1511 9.31024 26.4394 9.28387 26.6934 9.5544C26.8503 9.78098 26.97 9.97728 27.2073 10.0964C27.3054 10.1658 27.4937 10.073 27.5829 10.0349C27.6526 10.1238 27.5074 10.2752 27.3348 10.2996C27.1387 10.3621 26.9768 10.1619 26.8229 10.1912C26.9288 10.8113 27.1877 11.1824 27.6104 11.3592C27.8987 11.6288 27.579 11.5819 27.3838 11.4881Z" fill="#DDBD57"/>
<path d="M28.6021 11.3061C28.0588 10.9389 27.9195 10.7318 27.8244 9.7796C27.7714 9.62822 27.7028 9.45438 27.5773 9.35867C27.4498 9.30105 27.3341 9.38309 27.2056 9.39871C27.1085 9.44852 26.8996 9.56865 27.08 9.22878C27.3694 8.99243 27.6577 8.96411 27.9117 9.25124C28.0686 9.49149 28.1882 9.70049 28.4256 9.82745C28.5236 9.90168 28.7119 9.80206 28.8012 9.76202C28.8708 9.85675 28.7257 10.0179 28.5531 10.0433C28.3569 10.1097 28.1951 9.89679 28.0411 9.92805C28.1471 10.5873 28.406 10.9818 28.8286 11.1693C29.117 11.4555 28.7973 11.4067 28.6021 11.3061Z" fill="#DDBD57"/>
<path d="M29.5015 11.3141C29.118 10.5425 29.0396 10.2251 29.1494 9.36373C29.1229 8.41054 28.6287 6.48658 27.3724 7.08135C26.8193 7.32551 26.6339 7.91344 27.1282 8.34023C27.3812 8.4457 27.5754 8.43105 27.7392 8.21424C27.8921 7.9818 27.7597 7.84898 27.6578 7.6683C27.748 7.59799 27.8686 7.85093 27.902 7.96227C27.9392 8.08337 27.8313 8.15564 27.8608 8.27772C28.8219 8.97211 28.4149 10.6109 29.2504 11.3863C29.3485 11.4391 29.4534 11.4166 29.5015 11.3141Z" fill="#DDBD57"/>
<path d="M29.8732 11.5708C27.9981 11.5737 26.1975 11.9195 24.9873 12.4068C24.9873 12.4068 25.1893 12.4771 25.3266 12.9576C25.4394 13.3551 25.5738 13.8796 25.4826 13.9382C25.4904 13.9352 25.4992 13.9323 25.5071 13.9294C25.5179 13.9216 25.5296 13.9137 25.5414 13.9079C26.0778 13.6881 26.7182 13.5123 27.4342 13.3873C27.6195 13.3551 27.8098 13.3248 28.0049 13.2994C28.2001 13.274 28.4002 13.2535 28.6032 13.236C28.613 13.235 28.6238 13.234 28.6345 13.233C28.6551 13.2311 28.6767 13.2321 28.6963 13.2301C28.7767 13.2233 28.8572 13.2174 28.9386 13.2115C29.1435 13.1988 29.3505 13.1891 29.5613 13.1842C29.6613 13.1822 29.7643 13.1783 29.8653 13.1783C29.9703 13.1783 30.0732 13.1822 30.1772 13.1842C30.1841 13.1842 30.1909 13.1842 30.1978 13.1842C30.3017 13.1871 30.4037 13.1891 30.5057 13.193C30.5077 13.193 30.5106 13.193 30.5126 13.193C30.6156 13.1979 30.7185 13.2047 30.8205 13.2115C32.1494 13.2946 33.3292 13.5436 34.2187 13.9079C34.2314 13.9128 34.2432 13.9216 34.253 13.9294C34.2608 13.9323 34.2697 13.9352 34.2775 13.9382C34.1863 13.8796 34.2756 13.3785 34.3883 12.9811C34.5247 12.5006 34.7659 12.3941 34.7659 12.3941C33.5557 11.9077 31.7493 11.5747 29.8732 11.5708Z" fill="#DDBD57"/>
<path d="M31.0121 4.97459C31.0797 4.73531 31.2661 4.414 31.4769 4.30462C31.7064 4.18645 32.1075 4.19328 32.3252 4.33392C32.4537 4.41693 32.5635 4.6396 32.5714 4.79977C32.5782 4.93259 32.4929 5.11034 32.4076 5.20702C32.3193 5.30664 32.1526 5.41309 32.0251 5.41114C31.9222 5.40919 31.777 5.33008 31.7241 5.23632C31.678 5.15331 31.6691 4.99217 31.7241 4.91599C31.7809 4.83688 31.9467 4.77438 32.0251 4.82907C32.0732 4.86325 31.9957 5.01951 32.0526 5.03318C32.1105 5.04686 32.186 4.91599 32.1624 4.85837C32.1232 4.7607 31.93 4.77047 31.8339 4.79977C31.7388 4.82907 31.6279 4.9365 31.5877 5.03318C31.5142 5.208 31.5191 5.49611 31.5877 5.67385C31.6956 6.06353 31.8849 6.30769 32.2713 6.40144C32.3684 6.4493 32.5312 6.48055 32.6273 6.43074C32.6802 6.4034 32.7195 6.31648 32.7371 6.25593C32.7587 6.18073 32.8107 6.00396 32.7371 5.99419C32.644 5.98052 32.7342 6.26081 32.6547 6.31452C32.5351 6.39558 32.288 6.33601 32.1899 6.2276C32.1095 6.13873 32.1006 5.93852 32.135 5.82035C32.1713 5.69632 32.2948 5.54592 32.4086 5.50001C32.5478 5.44435 32.7656 5.4922 32.9009 5.55861C33.0333 5.62307 33.1941 5.76859 33.2569 5.90825C33.3167 6.04302 33.3138 6.25788 33.2844 6.4034C33.2549 6.54892 33.1755 6.74913 33.0657 6.83995C32.8725 6.99914 32.5174 7.05286 32.2723 7.04407C32.0565 7.03528 31.7652 6.94152 31.5887 6.81065C31.3818 6.6583 31.1572 6.36238 31.0689 6.11138C30.9532 5.79007 30.9189 5.30078 31.0121 4.97459Z" fill="#DDBD57"/>
<path d="M32.8777 7.31851C32.8709 7.22084 33.0857 7.55485 33.1612 7.3273C33.2632 6.79113 32.5835 6.81359 32.5159 7.21596C32.6659 7.94843 33.1857 8.17599 33.8016 8.23459C34.4449 8.32541 35.1226 8.26877 35.5247 8.87526C35.913 10.0306 35.3148 11.1928 34.3763 11.7866C34.2968 11.3217 33.9163 11.4135 33.8565 11.728C33.8604 12.0659 34.0968 12.1704 34.3763 12.1939C35.048 11.9878 35.6198 11.5317 36.1268 11.0287C37.2792 9.67024 36.9526 7.36148 35.05 7.39468C34.5234 7.42594 33.1739 8.01094 32.8777 7.31851Z" fill="#DDBD57"/>
<path d="M33.2573 11.7741C33.8408 11.5134 34.0046 11.3415 34.2174 10.4684C34.289 10.3346 34.3782 10.1832 34.5145 10.1129C34.6479 10.0787 34.7519 10.1715 34.8774 10.2057C34.9676 10.2672 35.1589 10.4098 35.0225 10.067C34.7656 9.80328 34.4841 9.73394 34.1958 9.96345C34.0105 10.1637 33.8663 10.3404 33.6152 10.4234C33.5093 10.4772 33.3348 10.357 33.2514 10.3062C33.17 10.3834 33.2945 10.5563 33.4622 10.6051C33.6476 10.6969 33.8349 10.5221 33.984 10.5738C33.7967 11.1715 33.4917 11.5007 33.0503 11.612C32.7297 11.8366 33.0513 11.8386 33.2573 11.7741Z" fill="#DDBD57"/>
<path d="M32.1426 11.5027C32.686 11.158 32.8252 10.9626 32.9203 10.0661C32.9733 9.9235 33.0419 9.75943 33.1675 9.66958C33.295 9.61587 33.4107 9.69204 33.5392 9.70669C33.6363 9.75357 33.8451 9.86588 33.6647 9.5475C33.3754 9.32483 33.0871 9.29846 32.8331 9.56899C32.6761 9.79557 32.5565 9.99187 32.3192 10.111C32.2211 10.1804 32.0328 10.0876 31.9436 10.0495C31.8739 10.1384 32.0191 10.2897 32.1917 10.3142C32.3878 10.3767 32.5496 10.1765 32.7036 10.2058C32.5977 10.8259 32.3388 11.197 31.9161 11.3738C31.6278 11.6434 31.9475 11.5975 32.1426 11.5027Z" fill="#DDBD57"/>
<path d="M30.9252 11.3219C31.4685 10.9547 31.6078 10.7477 31.7029 9.79547C31.7559 9.64409 31.8245 9.47025 31.9501 9.37454C32.0776 9.31692 32.1933 9.39896 32.3218 9.41458C32.4188 9.46439 32.6277 9.58452 32.4473 9.24465C32.158 9.0083 31.8706 8.97998 31.6157 9.26711C31.4587 9.50736 31.3391 9.71636 31.1018 9.84332C31.0037 9.91755 30.8154 9.81793 30.7262 9.77789C30.6565 9.87262 30.8017 10.0338 30.9743 10.0592C31.1704 10.1256 31.3322 9.91266 31.4862 9.94392C31.3803 10.6031 31.1214 10.9977 30.6987 11.1852C30.4104 11.4714 30.7301 11.4216 30.9252 11.3219Z" fill="#DDBD57"/>
<path d="M30.0251 11.3292C30.4086 10.5577 30.4871 10.2403 30.3772 9.37887C30.4037 8.42568 30.898 6.50172 32.1543 7.09648C32.7074 7.34064 32.8927 7.92857 32.3984 8.35536C32.1454 8.46084 31.9512 8.44619 31.7875 8.22938C31.6345 7.99694 31.7669 7.86412 31.8689 7.68344C31.7786 7.61312 31.658 7.86607 31.6247 7.97741C31.5874 8.09851 31.6953 8.17078 31.6659 8.29286C30.7048 8.98724 31.1118 10.626 30.2762 11.4015C30.1781 11.4542 30.0732 11.4318 30.0251 11.3292Z" fill="#DDBD57"/>
<path d="M29.8752 11.7016C28.0011 11.7065 26.3162 12.0815 25.106 12.6831C25.0256 12.7242 24.9403 12.6705 24.9138 12.5425C24.8873 12.4136 24.9315 12.2671 25.0119 12.2251C26.227 11.5991 27.955 11.2055 29.8752 11.1987C31.7964 11.2045 33.5303 11.5981 34.7454 12.2251C34.8258 12.2671 34.8699 12.4136 34.8434 12.5425C34.817 12.6705 34.7316 12.7242 34.6512 12.6831C33.442 12.0815 31.7503 11.7065 29.8752 11.7016Z" fill="#DDBD57"/>
<path d="M30.9401 5.43833C30.942 6.13076 30.4193 6.6933 29.773 6.69525C29.1268 6.6972 28.6001 6.13759 28.5982 5.44614C28.5982 5.44321 28.5982 5.44126 28.5982 5.43833C28.5962 4.74589 29.1189 4.18335 29.7652 4.1814C30.4115 4.17945 30.9381 4.73906 30.9401 5.43051C30.9401 5.43344 30.9401 5.43637 30.9401 5.43833Z" fill="#DDBD57"/>
<path d="M30.5546 7.49975C30.5556 7.94998 30.2192 8.31622 29.8034 8.31817C29.3866 8.31915 29.0482 7.95584 29.0472 7.50561C29.0472 7.50366 29.0472 7.50171 29.0472 7.50073C29.0463 7.0505 29.3826 6.68427 29.7985 6.68231C30.2153 6.68134 30.5536 7.04464 30.5546 7.49487C30.5546 7.49682 30.5546 7.4978 30.5546 7.49975Z" fill="#DDBD57"/>
<path d="M30.3627 8.96013C30.3636 9.30097 30.1136 9.57834 29.8036 9.57931C29.4937 9.58029 29.2417 9.30488 29.2407 8.96404C29.2407 8.96306 29.2407 8.96111 29.2407 8.96013C29.2397 8.61928 29.4898 8.34192 29.7997 8.34094C30.1096 8.33997 30.3617 8.61538 30.3627 8.95622C30.3627 8.9572 30.3627 8.95818 30.3627 8.96013Z" fill="#DDBD57"/>
<path d="M30.2072 10.0435C30.2082 10.2906 30.0257 10.4918 29.8012 10.4927C29.5766 10.4937 29.3942 10.2935 29.3932 10.0454C29.3932 10.0445 29.3932 10.0435 29.3932 10.0435C29.3922 9.7964 29.5746 9.59522 29.7992 9.59424C30.0238 9.59327 30.2062 9.79347 30.2072 10.0415C30.2072 10.0415 30.2072 10.0425 30.2072 10.0435Z" fill="#DDBD57"/>
<path d="M30.1419 10.8706C30.1429 11.0796 29.99 11.2486 29.8009 11.2496C29.6118 11.2505 29.4589 11.0816 29.4579 10.8736C29.4579 10.8726 29.4579 10.8716 29.4579 10.8706C29.4569 10.6616 29.6098 10.4927 29.7989 10.4917C29.9881 10.4907 30.141 10.6597 30.1419 10.8677C30.1419 10.8697 30.1419 10.8706 30.1419 10.8706Z" fill="#DDBD57"/>
<path d="M28.2148 12.9573C27.9599 12.9573 27.7539 12.7278 27.7539 12.4446C27.7539 12.1613 27.9599 11.9308 28.2148 11.9308C28.4708 11.9308 28.6767 12.1604 28.6767 12.4446C28.6777 12.7268 28.4708 12.9573 28.2148 12.9573Z" fill="#DDBD57"/>
<path d="M25.1901 12.6986C25.2048 12.6918 25.2176 12.681 25.2323 12.6742C25.6596 12.4906 25.7791 12.765 25.837 13.057C25.8948 13.3471 25.8722 13.5424 25.4469 13.727C25.4254 13.6889 25.4028 13.6567 25.3822 13.6166C25.3519 13.5561 25.3244 13.4936 25.2999 13.4291C25.2764 13.3647 25.2568 13.2992 25.2411 13.2328C25.2274 13.1713 25.2156 13.1068 25.2078 13.0453C25.2 12.9838 25.1941 12.9232 25.1901 12.8637C25.1872 12.8041 25.1901 12.7543 25.1901 12.6986Z" fill="#DDBD57"/>
<path d="M26.3202 13.358C26.075 13.358 25.87 13.1373 25.8622 12.8648C25.8543 12.5923 26.0465 12.3706 26.2917 12.3706C26.5379 12.3706 26.7428 12.5913 26.7507 12.8648C26.7585 13.1373 26.5653 13.358 26.3202 13.358Z" fill="#DDBD57"/>
<path d="M27.2468 13.1137C27.0065 13.1137 26.8054 12.8929 26.7976 12.6205C26.7898 12.348 26.9781 12.1263 27.2183 12.1263C27.4596 12.1263 27.6606 12.347 27.6685 12.6205C27.6763 12.8929 27.488 13.1137 27.2468 13.1137Z" fill="#DDBD57"/>
<path d="M29.2934 12.9085C29.0188 12.9085 28.7903 12.6565 28.7815 12.3459C28.7727 12.0354 28.9875 11.7824 29.2621 11.7824C29.5367 11.7824 29.7661 12.0344 29.775 12.3459C29.7838 12.6565 29.569 12.9085 29.2934 12.9085Z" fill="#DDBD57"/>
<path d="M31.4177 12.9564C31.6727 12.9564 31.8787 12.7269 31.8787 12.4436C31.8787 12.1604 31.6727 11.9299 31.4177 11.9299C31.1618 11.9299 30.9558 12.1594 30.9558 12.4436C30.9558 12.7269 31.1618 12.9564 31.4177 12.9564Z" fill="#DDBD57"/>
<path d="M33.3133 13.316C33.5585 13.316 33.7635 13.0953 33.7713 12.8228C33.7792 12.5503 33.5869 12.3286 33.3418 12.3286C33.0956 12.3286 32.8906 12.5493 32.8828 12.8228C32.875 13.0953 33.0672 13.316 33.3133 13.316Z" fill="#DDBD57"/>
<path d="M32.3855 13.0722C32.6258 13.0722 32.8268 12.8515 32.8347 12.579C32.8425 12.3065 32.6542 12.0848 32.4139 12.0848C32.1727 12.0848 31.9716 12.3056 31.9638 12.579C31.955 12.8515 32.1442 13.0722 32.3855 13.0722Z" fill="#DDBD57"/>
<path d="M30.3391 12.9085C30.6137 12.9085 30.8422 12.6565 30.851 12.3459C30.8598 12.0354 30.6451 11.7824 30.3705 11.7824C30.0959 11.7824 29.8664 12.0344 29.8576 12.3459C29.8487 12.6565 30.0645 12.9085 30.3391 12.9085Z" fill="#DDBD57"/>
<path d="M34.4958 12.6949C34.4811 12.6881 34.4683 12.6773 34.4536 12.6705C34.0264 12.4869 33.9068 12.7613 33.849 13.0533C33.7912 13.3434 33.8137 13.5387 34.239 13.7233C34.2606 13.6852 34.2831 13.653 34.3037 13.6129C34.3341 13.5524 34.3615 13.4899 34.386 13.4254C34.4095 13.3609 34.4291 13.2955 34.4448 13.2291C34.4585 13.1676 34.4703 13.1031 34.4782 13.0416C34.486 12.9801 34.4919 12.9195 34.4958 12.8599C34.4987 12.7994 34.4958 12.7496 34.4958 12.6949Z" fill="#DDBD57"/>
<path d="M29.261 1.81921L27.5811 1.82117L29.4934 3.40331L29.7798 3.16599L28.6206 2.20596L29.1502 2.20401L29.261 1.81921Z" fill="#DDBD57"/>
<path d="M30.3008 1.82044L29.7801 0L29.0504 2.5617L29.3368 2.79902L29.7801 1.24618L29.9448 1.81946L30.3008 1.82044Z" fill="#DDBD57"/>
<path d="M30.6213 2.94625L31.9796 1.81921L29.6161 1.82019L29.5062 2.20401H30.939L30.5114 2.56048L30.6213 2.94625Z" fill="#DDBD57"/>
<path d="M29.7797 3.64189L31.1399 4.76599L30.4093 2.20526H30.0552L30.4985 3.7581L30.069 3.40456L29.7797 3.64189Z" fill="#DDBD57"/>
<path d="M28.9397 2.94551L28.4219 4.76692L30.3342 3.1838L30.2244 2.79999L29.0652 3.76002L29.227 3.18576L28.9397 2.94551Z" fill="#DDBD57"/>
<path d="M30.3713 7.5009C30.3723 7.84174 30.1182 8.11813 29.8034 8.11911C29.4886 8.12008 29.2327 7.84565 29.2317 7.50481C29.2317 7.50383 29.2317 7.50188 29.2317 7.5009C29.2307 7.16006 29.4847 6.88367 29.7995 6.88269C30.1143 6.88172 30.3703 7.15615 30.3713 7.49699C30.3713 7.49797 30.3713 7.49992 30.3713 7.5009Z" fill="#03694B"/>
<path d="M30.1084 10.0443C30.1094 10.2318 29.9721 10.3841 29.8026 10.3841C29.6331 10.3851 29.4949 10.2337 29.4949 10.0462C29.4949 10.0453 29.4949 10.0443 29.4949 10.0443C29.4939 9.85677 29.6311 9.70441 29.8006 9.70441C29.9702 9.70343 30.1084 9.85481 30.1084 10.0423C30.1084 10.0433 30.1084 10.0433 30.1084 10.0443Z" fill="#03694B"/>
<path d="M25.3142 7.08488C25.3152 7.38373 25.0778 7.62691 24.7836 7.62789C24.4894 7.62886 24.2511 7.38666 24.2501 7.08781C24.2501 7.08683 24.2501 7.08586 24.2501 7.08488C24.2491 6.78603 24.4865 6.54285 24.7807 6.54187C25.0749 6.5409 25.3132 6.7831 25.3142 7.08195C25.3142 7.08293 25.3142 7.0839 25.3142 7.08488Z" fill="#03694B"/>
<path d="M23.0025 9.968C23.0035 10.2668 22.7662 10.51 22.472 10.511C22.1778 10.512 21.9395 10.2698 21.9385 9.97093C21.9385 9.96995 21.9385 9.96897 21.9385 9.968C21.9375 9.66915 22.1748 9.42597 22.469 9.42499C22.7632 9.42401 23.0016 9.66622 23.0025 9.96507C23.0025 9.96604 23.0025 9.96702 23.0025 9.968Z" fill="#03694B"/>
<path d="M25.3186 10.3744C25.3548 10.642 25.1783 10.891 24.9243 10.931C24.6703 10.9701 24.434 10.7845 24.3977 10.517C24.3977 10.516 24.3977 10.515 24.3977 10.514C24.3614 10.2464 24.5379 9.99738 24.7919 9.95734C25.0459 9.91828 25.2823 10.1038 25.3186 10.3714C25.3186 10.3724 25.3186 10.3734 25.3186 10.3744Z" fill="#03694B"/>
<path d="M34.2142 7.10105C34.2133 7.3999 34.4506 7.64309 34.7448 7.64406C35.039 7.64504 35.2773 7.40381 35.2783 7.10496C35.2783 7.10398 35.2783 7.10301 35.2783 7.10105C35.2793 6.8022 35.042 6.55902 34.7477 6.55805C34.4535 6.55707 34.2152 6.7983 34.2142 7.09715C34.2142 7.09812 34.2142 7.10008 34.2142 7.10105Z" fill="#03694B"/>
<path d="M36.5242 9.9824C36.5232 10.2813 36.7605 10.5244 37.0547 10.5254C37.3489 10.5264 37.5873 10.2852 37.5882 9.98631C37.5882 9.98533 37.5882 9.98435 37.5882 9.9824C37.5892 9.68355 37.3519 9.44037 37.0577 9.4394C36.7635 9.43842 36.5252 9.67965 36.5242 9.9785C36.5242 9.98045 36.5242 9.98143 36.5242 9.9824Z" fill="#03694B"/>
<path d="M25.1836 12.8453C25.212 12.8336 25.2355 12.8179 25.2659 12.8082C25.5834 12.7095 25.6412 12.8658 25.6804 13.0699C25.7206 13.274 25.7275 13.4518 25.41 13.5504C25.3904 13.5563 25.3737 13.5553 25.3541 13.5602C25.3286 13.5289 25.3022 13.5026 25.2796 13.4674C25.259 13.4342 25.2394 13.4 25.2228 13.3629C25.2071 13.3268 25.1944 13.2887 25.1855 13.2496C25.1767 13.2105 25.1708 13.1685 25.1679 13.1256C25.165 13.0826 25.164 13.0387 25.1659 12.9947C25.1689 12.9429 25.1777 12.8951 25.1836 12.8453Z" fill="#03694B"/>
<path d="M27.2425 12.9598C27.0641 12.9598 26.9152 12.8084 26.9103 12.6209C26.9054 12.4343 27.0445 12.282 27.2239 12.282C27.4023 12.282 27.5512 12.4334 27.5571 12.6209C27.562 12.8084 27.4219 12.9598 27.2425 12.9598Z" fill="#03694B"/>
<path d="M29.2886 12.7328C29.0846 12.7328 28.915 12.56 28.9091 12.3471C28.9032 12.1342 29.0631 11.9603 29.267 11.9603C29.471 11.9603 29.6417 12.1332 29.6476 12.3471C29.6534 12.56 29.4936 12.7328 29.2886 12.7328Z" fill="#03694B"/>
<path d="M31.4181 12.7962C31.6072 12.7962 31.7601 12.639 31.7601 12.4446C31.7601 12.2503 31.6072 12.092 31.4181 12.092C31.228 12.092 31.0751 12.2493 31.0751 12.4446C31.0751 12.639 31.228 12.7962 31.4181 12.7962Z" fill="#03694B"/>
<path d="M27.844 9.69822C27.845 9.98633 27.6371 10.2197 27.3801 10.2207C27.1232 10.2217 26.9143 9.98926 26.9133 9.70115C26.9133 9.70017 26.9133 9.6992 26.9133 9.69822C26.9124 9.41012 27.1203 9.1767 27.3772 9.17572C27.6342 9.17475 27.843 9.40718 27.844 9.69529C27.844 9.69724 27.844 9.69822 27.844 9.69822Z" fill="#03694B"/>
<path d="M31.6836 9.71397C31.6826 10.0021 31.8905 10.2355 32.1475 10.2365C32.4044 10.2374 32.6133 10.005 32.6143 9.7169C32.6143 9.71592 32.6143 9.71494 32.6143 9.71397C32.6153 9.42586 32.4074 9.19245 32.1504 9.19147C31.8935 9.19049 31.6846 9.42293 31.6836 9.71104C31.6836 9.71201 31.6836 9.71299 31.6836 9.71397Z" fill="#03694B"/>
<path d="M34.2083 10.39C34.1721 10.6576 34.3486 10.9067 34.6026 10.9467C34.8566 10.9858 35.0929 10.8002 35.1292 10.5326C35.1292 10.5317 35.1292 10.5307 35.1292 10.5297C35.1655 10.2621 34.989 10.0131 34.735 9.97303C34.481 9.93396 34.2446 10.1195 34.2083 10.3871C34.2093 10.3881 34.2093 10.3891 34.2083 10.39Z" fill="#03694B"/>
<path d="M30.6549 5.43867C30.6569 5.96215 30.2617 6.38796 29.7723 6.38893C29.2829 6.39089 28.8858 5.96801 28.8838 5.44453C28.8838 5.44258 28.8838 5.44063 28.8838 5.43867C28.8818 4.9152 29.2771 4.48939 29.7664 4.48841C30.2558 4.48646 30.653 4.90934 30.6549 5.43281C30.6549 5.43477 30.6549 5.43672 30.6549 5.43867Z" fill="#891723"/>
<path d="M30.226 8.96036C30.227 9.21819 30.0377 9.42817 29.8033 9.42915C29.5689 9.43012 29.3787 9.22112 29.3777 8.96329C29.3777 8.96232 29.3777 8.96134 29.3777 8.96036C29.3767 8.70253 29.566 8.49256 29.8004 8.49158C30.0348 8.4906 30.225 8.6996 30.226 8.95743C30.226 8.95841 30.226 8.95939 30.226 8.96036Z" fill="#891723"/>
<path d="M30.0597 10.8704C30.0607 11.0277 29.945 11.1566 29.8019 11.1566C29.6589 11.1576 29.5432 11.0296 29.5422 10.8724C29.5422 10.8714 29.5422 10.8714 29.5422 10.8704C29.5422 10.7132 29.6569 10.5843 29.8 10.5843C29.9431 10.5833 30.0587 10.7113 30.0597 10.8685C30.0597 10.8695 30.0597 10.8704 30.0597 10.8704Z" fill="#891723"/>
<path d="M23.2492 7.92894C23.2502 8.22778 23.0129 8.47097 22.7187 8.47194C22.4245 8.47292 22.1862 8.23071 22.1852 7.93187C22.1852 7.93089 22.1852 7.92991 22.1852 7.92894C22.1842 7.63009 22.4215 7.3869 22.7157 7.38593C23.01 7.38495 23.2483 7.62716 23.2492 7.92601C23.2492 7.92698 23.2492 7.92796 23.2492 7.92894Z" fill="#891723"/>
<path d="M24.2617 11.685C24.2627 11.9839 24.0253 12.2271 23.7311 12.228C23.4369 12.229 23.1986 11.9868 23.1976 11.688C23.1976 11.687 23.1976 11.686 23.1976 11.685C23.1967 11.3862 23.434 11.143 23.7282 11.142C24.0224 11.1411 24.2607 11.3833 24.2617 11.6821C24.2617 11.6821 24.2617 11.6841 24.2617 11.685Z" fill="#891723"/>
<path d="M36.2797 7.94444C36.2787 8.24329 36.516 8.48647 36.8102 8.48745C37.1044 8.48842 37.3428 8.24719 37.3437 7.94834C37.3437 7.94737 37.3437 7.94639 37.3437 7.94444C37.3447 7.64559 37.1074 7.40241 36.8132 7.40143C36.519 7.40045 36.2806 7.64168 36.2797 7.94053C36.2797 7.94151 36.2797 7.94248 36.2797 7.94444Z" fill="#891723"/>
<path d="M35.2672 11.6998C35.2662 11.9987 35.5036 12.2418 35.7978 12.2428C36.092 12.2438 36.3303 12.0026 36.3313 11.7037C36.3313 11.7027 36.3313 11.7018 36.3313 11.6998C36.3323 11.401 36.0949 11.1578 35.8007 11.1568C35.5065 11.1558 35.2682 11.3971 35.2672 11.6959C35.2672 11.6979 35.2672 11.6988 35.2672 11.6998Z" fill="#891723"/>
<path d="M28.2151 12.7963C28.0259 12.7963 27.873 12.6391 27.873 12.4447C27.873 12.2504 28.0259 12.0922 28.2151 12.0922C28.4052 12.0922 28.5581 12.2494 28.5581 12.4447C28.5581 12.6381 28.4052 12.7963 28.2151 12.7963Z" fill="#891723"/>
<path d="M26.3161 13.2027C26.1339 13.2027 25.982 13.0513 25.9771 12.8638C25.9722 12.6773 26.1143 12.5249 26.2965 12.5249C26.4788 12.5249 26.6307 12.6763 26.6366 12.8638C26.6425 13.0513 26.4994 13.2027 26.3161 13.2027Z" fill="#891723"/>
<path d="M32.3906 12.9175C32.569 12.9175 32.718 12.7661 32.7229 12.5786C32.7278 12.392 32.5886 12.2397 32.4093 12.2397C32.2309 12.2397 32.0819 12.3911 32.0761 12.5786C32.0712 12.7661 32.2113 12.9175 32.3906 12.9175Z" fill="#891723"/>
<path d="M30.3446 12.7317C30.5486 12.7317 30.7182 12.5589 30.7241 12.346C30.73 12.1331 30.5701 11.9592 30.3661 11.9592C30.1622 11.9592 29.9915 12.1321 29.9856 12.346C29.9797 12.5589 30.1406 12.7317 30.3446 12.7317Z" fill="#891723"/>
<path d="M34.5033 12.8393C34.4749 12.8276 34.4514 12.812 34.421 12.8022C34.1035 12.7035 34.0457 12.8598 34.0065 13.0639C33.9663 13.268 33.9594 13.4458 34.277 13.5444C34.2966 13.5503 34.3132 13.5493 34.3328 13.5542C34.3583 13.5229 34.3848 13.4966 34.4073 13.4614C34.4279 13.4282 34.4475 13.394 34.4641 13.3569C34.4798 13.3208 34.4926 13.2827 34.5014 13.2436C34.5102 13.2046 34.5161 13.1626 34.519 13.1196C34.522 13.0766 34.5229 13.0327 34.521 12.9887C34.518 12.937 34.5092 12.8891 34.5033 12.8393Z" fill="#891723"/>
<path d="M26.627 9.97391C26.628 10.2444 26.4201 10.4652 26.1631 10.4652C25.9062 10.4661 25.6973 10.2474 25.6963 9.97587C25.6963 9.97489 25.6963 9.97392 25.6963 9.97294C25.6953 9.70241 25.9032 9.48169 26.1602 9.48169C26.4171 9.48072 26.626 9.69948 26.627 9.97099C26.627 9.97196 26.627 9.97294 26.627 9.97391Z" fill="#891723"/>
<path d="M32.9008 9.98972C32.8998 10.2602 33.1077 10.481 33.3646 10.481C33.6216 10.4819 33.8305 10.2632 33.8314 9.99168C33.8314 9.9907 33.8314 9.98972 33.8314 9.98875C33.8324 9.71822 33.6245 9.4975 33.3676 9.4975C33.1106 9.49652 32.9017 9.71529 32.9008 9.98679C32.9008 9.98777 32.9008 9.98875 32.9008 9.98972Z" fill="#891723"/>
<path d="M33.3179 13.1618C33.5002 13.1618 33.6521 13.0104 33.657 12.8229C33.6619 12.6364 33.5198 12.484 33.3375 12.484C33.1552 12.484 33.0033 12.6354 32.9974 12.8229C32.9925 13.0104 33.1356 13.1618 33.3179 13.1618Z" fill="#03694B"/>
<path d="M36.3737 39.5624C36.3737 39.5672 36.3737 39.5711 36.3737 39.576C36.2511 43.3302 34.4133 46.4828 31.8938 47.6332C31.5359 47.7641 31.1642 47.853 30.7827 47.8979C30.6964 47.9077 30.6091 47.9155 30.5218 47.9213C30.5101 47.9223 30.4983 47.9233 30.4875 47.9233C30.3973 47.9282 30.3071 47.9321 30.2159 47.9321C30.1207 47.9321 30.0266 47.9282 29.9334 47.9233C29.906 47.9213 29.8785 47.9194 29.851 47.9174C29.7804 47.9116 29.7098 47.9047 29.6392 47.8969C29.6137 47.894 29.5882 47.8911 29.5627 47.8881C29.4744 47.8764 29.3872 47.8618 29.2999 47.8452C29.2705 47.8393 29.241 47.8325 29.2116 47.8266C29.1518 47.8139 29.093 47.8002 29.0341 47.7856C28.9968 47.7758 28.9586 47.7661 28.9213 47.7563C28.8684 47.7416 28.8154 47.725 28.7634 47.7094C28.6997 47.6889 28.6359 47.6684 28.5732 47.645C28.5281 47.6293 28.483 47.6127 28.4388 47.5961C28.3898 47.5766 28.3408 47.5561 28.2917 47.5356C28.2613 47.5229 28.2319 47.5092 28.2025 47.4965C28.0191 47.4145 27.8406 47.3217 27.666 47.2191C27.6572 47.2133 27.6474 47.2084 27.6386 47.2025C27.5768 47.1654 27.515 47.1273 27.4542 47.0873C27.4532 47.0863 27.4522 47.0853 27.4503 47.0853C27.259 46.9603 27.0737 46.8236 26.8952 46.6752C25.1858 45.2561 24.0521 42.7764 24.0521 39.9511C24.0521 39.8846 24.0541 39.8192 24.0551 39.7528C24.0551 39.7421 24.0541 39.7313 24.0541 39.7206C24.0541 36.2965 25.8478 33.3656 28.3917 32.1439C28.9704 31.8938 29.6166 31.6839 30.3335 31.5139C31.2368 31.2961 31.7977 31.217 32.0145 31.2756L32.0733 31.2913L32.851 29.672C32.3558 29.7755 31.9703 29.8546 31.6948 29.9103C31.4192 29.966 31.2456 30.0021 31.176 30.0187C30.4385 30.1564 29.8746 30.173 29.4852 30.0666C29.3234 30.0226 29.1567 29.9406 28.9831 29.8224C28.8095 29.7033 28.6575 29.5665 28.5261 29.4112C28.3957 29.2569 28.2956 29.0919 28.227 28.918C28.1583 28.7442 28.1446 28.5831 28.1858 28.4327C28.227 28.2832 28.3221 28.1553 28.4702 28.0498C28.6193 27.9443 28.7958 27.8652 29.0027 27.8106C29.2087 27.7568 29.4274 27.7295 29.6578 27.7305C29.8883 27.7305 30.109 27.7598 30.3208 27.8174C30.8553 27.9629 31.278 28.1739 31.5918 28.4502C31.6143 28.4561 31.632 28.4463 31.6447 28.42C31.6938 28.2432 31.6791 28.0401 31.6006 27.8135C31.5222 27.5869 31.4104 27.3652 31.2633 27.1494C31.1161 26.9335 30.9494 26.745 30.7641 26.5839C30.5777 26.4228 30.3983 26.3192 30.2266 26.2714C29.6314 26.1083 28.9625 26.3554 28.2191 27.0097C27.5464 27.6064 27.1227 28.2207 26.9491 28.8526C26.6961 29.7726 27.0099 30.5227 27.8906 31.1028C27.7739 31.137 27.6307 31.2063 27.4611 31.3118C27.2914 31.4172 27.0992 31.5657 26.8854 31.7581C26.598 32.0247 26.3293 32.2933 26.0773 32.5638L26.0763 32.5648L26.0773 32.5638L26.0763 32.5648C24.4042 34.103 23.2823 36.652 23.1901 39.5624C23.1862 39.6913 23.1832 39.8202 23.1832 39.9491C23.1832 42.6309 24.058 45.0364 25.4428 46.6722C25.5134 46.7552 25.585 46.8363 25.6575 46.9154C25.6615 46.9193 25.6654 46.9242 25.6693 46.9281C25.7409 47.0053 25.8135 47.0805 25.887 47.1527C25.8919 47.1576 25.8968 47.1625 25.9027 47.1674C25.9763 47.2406 26.0518 47.3109 26.1283 47.3803C26.1322 47.3842 26.1361 47.3871 26.1401 47.3901C26.3764 47.602 26.6235 47.7944 26.8795 47.9643C26.8844 47.9672 26.8893 47.9711 26.8952 47.9741C26.9766 48.0278 27.058 48.0786 27.1404 48.1274C27.1492 48.1323 27.158 48.1382 27.1669 48.143C27.2482 48.1909 27.3306 48.2358 27.413 48.2788C27.4228 48.2837 27.4326 48.2886 27.4424 48.2944C27.5258 48.3374 27.6101 48.3784 27.6954 48.4165C27.7033 48.4204 27.7111 48.4233 27.719 48.4272C27.8072 48.4663 27.8955 48.5034 27.9857 48.5376C27.9867 48.5376 27.9877 48.5386 27.9897 48.5386C28.0799 48.5728 28.1721 48.605 28.2643 48.6343C28.2701 48.6362 28.275 48.6382 28.2809 48.6401C28.3692 48.6685 28.4584 48.6929 28.5477 48.7163C28.5594 48.7192 28.5712 48.7222 28.583 48.7251C28.6693 48.7466 28.7566 48.7661 28.8448 48.7827C28.8595 48.7857 28.8733 48.7886 28.888 48.7905C28.9753 48.8062 29.0635 48.8208 29.1518 48.8316C29.1655 48.8335 29.1802 48.8345 29.194 48.8364C29.2842 48.8472 29.3744 48.856 29.4656 48.8618C29.4754 48.8628 29.4862 48.8628 29.496 48.8638C29.5921 48.8696 29.6882 48.8726 29.7853 48.8726C29.8599 48.8726 29.9334 48.8706 30.007 48.8667C30.0256 48.8657 30.0452 48.8648 30.0638 48.8638C30.1305 48.8599 30.1962 48.855 30.262 48.8491C30.2698 48.8482 30.2767 48.8482 30.2845 48.8472C30.3571 48.8394 30.4297 48.8306 30.5022 48.8198C30.5189 48.8169 30.5366 48.815 30.5532 48.812C30.616 48.8023 30.6788 48.7915 30.7415 48.7788C30.7513 48.7769 30.7621 48.7749 30.7729 48.773C30.8455 48.7583 30.9171 48.7417 30.9887 48.7241C31.0014 48.7212 31.0151 48.7173 31.0279 48.7144C31.0916 48.6978 31.1544 48.6802 31.2172 48.6616C31.227 48.6587 31.2378 48.6558 31.2476 48.6528C31.3201 48.6304 31.3917 48.6069 31.4623 48.5815C31.4702 48.5786 31.477 48.5757 31.4849 48.5737C31.5506 48.5503 31.6163 48.5249 31.682 48.4985C31.6908 48.4946 31.6997 48.4917 31.7085 48.4878C31.8527 48.4282 31.9949 48.3628 32.1341 48.2905C32.141 48.2866 32.1478 48.2837 32.1537 48.2798C32.295 48.2065 32.4342 48.1264 32.5705 48.0405C32.5745 48.0376 32.5784 48.0356 32.5823 48.0327C32.7206 47.9448 32.8569 47.851 32.9903 47.7504C32.9922 47.7495 32.9932 47.7485 32.9952 47.7465C35.0184 46.221 36.3864 43.2999 36.3864 39.9462C36.3806 39.8192 36.3776 39.6903 36.3737 39.5624Z" fill="#DDBD57"/>
</svg>
