<svg width="46" height="46" viewBox="0 0 46 46" fill="none" xmlns="http://www.w3.org/2000/svg">
<rect x="0.34845" y="0.25" width="45" height="45" rx="22.5" fill="#FDC30B"/>
<path d="M25.6097 16.8103C25.1189 17.2816 24.8566 17.8501 24.8566 18.4526C24.8566 19.0502 25.1141 19.6236 25.6048 20.1143L27.1354 21.6497C27.0673 21.776 27.0042 21.9024 26.941 22.0238C26.8535 22.1988 26.7709 22.364 26.6835 22.5049C25.77 23.9431 24.5796 25.2501 23.0394 26.5037C22.2717 27.111 21.6254 27.5192 20.9695 27.8156C20.6051 27.4172 20.2261 27.0479 19.8617 26.6883C19.7256 26.5523 19.5847 26.4162 19.4487 26.2802C18.4283 25.2598 17.1067 25.2598 16.0863 26.2802L14.7599 27.6067C14.6093 27.7573 14.4538 27.9128 14.2983 28.0585C13.997 28.3501 13.6861 28.6562 13.3945 28.972C12.9281 29.4433 12.6803 30.0069 12.6803 30.5997C12.6803 31.1925 12.9281 31.7658 13.3945 32.2517C13.3994 32.2566 13.3994 32.2566 13.4043 32.2614L15.0708 33.9134C15.6928 34.5354 16.4508 34.8901 17.3302 34.9678C18.749 35.0844 20.0706 34.6666 20.9355 34.3459C23.0588 33.5587 25.0266 32.3829 27.1354 30.6289C29.6765 28.5007 31.6832 25.9401 33.0972 23.015C33.6268 21.8975 34.2536 20.4058 34.3605 18.7393C34.3653 18.6372 34.3702 18.5303 34.3702 18.4332C34.3702 17.3108 33.9669 16.3681 33.1652 15.6296C33.1555 15.6247 33.1506 15.615 33.1409 15.6102C32.8348 15.3575 32.5578 15.066 32.2614 14.7599C32.0622 14.5509 31.8533 14.3371 31.6346 14.1282C31.1342 13.6472 30.5511 13.3945 29.9535 13.3945C29.351 13.3945 28.7728 13.6521 28.2869 14.1428L25.6097 16.8103ZM30.726 15.0708C30.726 15.0757 30.7309 15.0757 30.726 15.0708C30.9301 15.2603 31.1148 15.4547 31.3188 15.6636C31.6201 15.9794 31.9359 16.3001 32.2906 16.6014C32.8153 17.0921 33.0631 17.6703 33.0631 18.4283C33.0631 18.5012 33.0631 18.5789 33.0583 18.6518C32.966 20.0949 32.4023 21.4359 31.9213 22.4417C30.59 25.1918 28.6999 27.6067 26.3045 29.6134C24.3075 31.2702 22.4612 32.378 20.4787 33.1117C19.2689 33.5636 18.3263 33.7288 17.4371 33.6559C16.8686 33.6073 16.3973 33.3887 15.994 32.9854L14.3372 31.3285C14.1137 31.0904 13.9922 30.8378 13.9922 30.59C13.9922 30.2839 14.1768 30.0361 14.3323 29.8806C14.3372 29.8757 14.342 29.8709 14.3469 29.866C14.6238 29.5696 14.9105 29.2878 15.2166 28.9914C15.3721 28.8408 15.5276 28.6853 15.6879 28.5298L17.0144 27.2034C17.5294 26.6883 18.0056 26.6883 18.5206 27.2034C18.6615 27.3443 18.8024 27.4803 18.9385 27.6212C19.3563 28.0294 19.7451 28.4181 20.124 28.8408C20.1338 28.8505 20.1386 28.8602 20.1483 28.8651C20.5662 29.283 20.9743 29.2052 21.2513 29.1178C21.2659 29.1129 21.2805 29.108 21.295 29.1032C22.1307 28.7582 22.9179 28.2723 23.8556 27.5338L23.8605 27.5289C25.5125 26.1879 26.8001 24.7739 27.7864 23.2143C27.9128 23.015 28.0148 22.811 28.112 22.6166C28.1994 22.4417 28.282 22.2765 28.3695 22.1356C28.3792 22.1162 28.3938 22.0967 28.4035 22.0773C28.4861 21.9121 28.525 21.7566 28.525 21.5963C28.525 21.193 28.2723 20.9403 28.1897 20.8577L26.528 19.196C26.3628 19.0308 26.1636 18.7684 26.1636 18.4623C26.1636 18.1611 26.3531 17.9133 26.5183 17.7626C26.5231 17.7578 26.5231 17.7578 26.528 17.7529L29.2052 15.0757C29.7008 14.5752 30.211 14.5752 30.726 15.0708Z" fill="#003566"/>
<path d="M16.8244 22.563C17.0382 21.29 17.6407 20.1336 18.5638 19.2104C19.487 18.2873 20.6434 17.6896 21.9164 17.471C22.2371 17.4175 22.4606 17.1406 22.4606 16.8247C22.4606 16.7859 22.4558 16.7519 22.4509 16.713C22.3926 16.3534 22.0525 16.1154 21.6929 16.1737C20.1527 16.436 18.7485 17.1649 17.6358 18.2775C16.5231 19.3902 15.7943 20.7944 15.5319 22.3347C15.4736 22.6942 15.7117 23.0295 16.0664 23.0927C16.4211 23.1558 16.7661 22.9226 16.8244 22.563Z" fill="#003566"/>
<path d="M21.5037 12.0098C18.9674 12.4422 16.6594 13.6375 14.8228 15.4741C12.9862 17.3108 11.7909 19.6187 11.3584 22.155C11.2953 22.5097 11.5382 22.845 11.8929 22.9082C12.2525 22.9665 12.5877 22.7284 12.6509 22.3688C13.0348 20.1046 14.1086 18.0396 15.746 16.3973C17.3883 14.755 19.4533 13.6861 21.7175 13.3022C22.0382 13.2488 22.2617 12.9718 22.2617 12.656C22.2617 12.6171 22.2568 12.5831 22.252 12.5442C22.1985 12.1895 21.8584 11.9466 21.5037 12.0098Z" fill="#003566"/>
</svg>
