<svg width="46" height="46" viewBox="0 0 46 46" fill="none" xmlns="http://www.w3.org/2000/svg">
<rect x="0.34845" y="0.25" width="45" height="45" rx="22.5" fill="#FDC30B"/>
<path d="M23.0202 33.9042C22.7814 33.9042 22.5568 33.757 22.4699 33.52C21.6733 31.349 20.2215 29.6097 18.6846 27.7683C17.302 26.1118 15.8724 24.3995 14.9673 22.3458C14.8365 22.0489 14.9714 21.7028 15.2676 21.5726C15.5656 21.4418 15.9111 21.5767 16.0408 21.873C16.879 23.7747 18.1936 25.3498 19.585 27.0169C21.1184 28.8547 22.704 30.7542 23.571 33.1158C23.6825 33.4203 23.527 33.7576 23.2226 33.8684C23.1551 33.8925 23.0871 33.9042 23.0202 33.9042Z" fill="#003566"/>
<path d="M23.021 33.9045C22.9542 33.9045 22.8861 33.8928 22.8186 33.8681C22.5142 33.7573 22.3587 33.4194 22.4702 33.1155C23.3372 30.7538 24.9228 28.8538 26.4562 27.0166C27.8476 25.3495 29.1622 23.775 30.0004 21.8727C30.1313 21.5764 30.4762 21.4421 30.7736 21.5723C31.0698 21.7031 31.2042 22.0492 31.0739 22.3455C30.1688 24.3992 28.7398 26.1115 27.3566 27.768C25.8197 29.6094 24.3679 31.3487 23.5713 33.5197C23.4844 33.7573 23.2598 33.9045 23.021 33.9045Z" fill="#003566"/>
<path d="M23.0208 23.4936C20.4767 23.4936 18.3279 21.3449 18.3279 18.8008C18.3279 16.2567 20.4767 14.108 23.0208 14.108C25.5649 14.108 27.7136 16.2567 27.7136 18.8008C27.7136 21.3449 25.5649 23.4936 23.0208 23.4936ZM23.0208 15.2812C21.1131 15.2812 19.5012 16.8932 19.5012 18.8008C19.5012 20.7084 21.1131 22.3204 23.0208 22.3204C24.9284 22.3204 26.5404 20.7084 26.5404 18.8008C26.5404 16.8932 24.9284 15.2812 23.0208 15.2812Z" fill="#003566"/>
<path d="M30.5371 22.6953C30.4585 22.6953 30.3781 22.6794 30.3013 22.6454C30.005 22.5146 29.8707 22.1685 30.0009 21.8723C30.9782 19.652 30.8192 17.1425 29.5633 14.9867C28.3074 12.8315 26.2032 11.4554 23.7894 11.2107C21.4259 10.972 19.0449 11.8689 17.4276 13.6135C15.3904 15.8103 14.8337 19.1287 16.0415 21.8723C16.1723 22.1691 16.0374 22.5152 15.7411 22.6454C15.4414 22.7768 15.0976 22.6407 14.968 22.3451C13.5742 19.1798 14.2172 15.3498 16.5677 12.8157C18.4343 10.8031 21.1813 9.77122 23.9079 10.0428C26.7001 10.3256 29.1304 11.9129 30.577 14.3954C32.0241 16.8785 32.2054 19.7763 31.075 22.3451C30.9776 22.5651 30.7629 22.6953 30.5371 22.6953Z" fill="#003566"/>
<path d="M23.048 36.9796C21.033 36.9796 18.595 36.8312 16.3718 36.037C15.496 35.7237 12.8317 34.7705 13.437 32.8136C13.6054 32.2698 14.0395 31.7788 14.7276 31.3553C15.814 30.6865 17.0229 30.3751 18.0706 30.1363C18.3844 30.0624 18.7006 30.2607 18.7728 30.5774C18.8449 30.893 18.6472 31.2074 18.3317 31.2796C17.145 31.5506 16.1823 31.8369 15.3423 32.3543C14.9094 32.6206 14.6378 32.8998 14.5569 33.1608C14.3756 33.7469 15.1188 34.3434 16.7666 34.933C19.0866 35.7624 21.724 35.8317 23.756 35.8011C26.5318 35.7589 28.6682 35.3377 30.2867 34.5141C30.7389 34.2842 31.7567 33.6806 31.4358 33.0488C30.9043 32.0023 29.0912 31.5928 27.891 31.3213L27.7091 31.2802C27.3935 31.2086 27.1958 30.8942 27.268 30.578C27.3396 30.263 27.6505 30.0612 27.9702 30.1369L28.1491 30.1774C29.5634 30.4965 31.701 30.9798 32.4817 32.5179C33.0361 33.6108 32.4149 34.7482 30.8181 35.5606C29.0372 36.4669 26.733 36.9298 23.7742 36.9749C23.5401 36.9773 23.2973 36.9796 23.048 36.9796Z" fill="#003566"/>
</svg>
